<?xml version="1.0" encoding="UTF-8"?>
<svg width="34px" height="33px" viewBox="0 0 34 33" version="1.1" xmlns="http://www.w3.org/2000/svg" xmlns:xlink="http://www.w3.org/1999/xlink">
    <!-- Generator: Sketch 46.2 (44496) - http://www.bohemiancoding.com/sketch -->
    <title>Group</title>
    <desc>Created with Sketch.</desc>
    <defs></defs>
    <g id="UI" stroke="none" stroke-width="1" fill="none" fill-rule="evenodd">
        <g id="Siri---1" transform="translate(-703.000000, -353.000000)">
            <g id="Group" transform="translate(703.000000, 354.000000)">
                <path d="M3.9844528,19.1615897 C3.9844528,19.1615897 3.9844528,19.1615897 3.9844528,19.1615897 C1.68739227,19.7456376 0,21.690105 0,23.9988502 C0,26.2904426 1.66241234,28.2231498 3.93335595,28.8228683 C3.93335595,28.8228683 3.93335595,28.8228683 3.93335595,28.8228683 L3.93335595,28.8228683 C4.38575657,28.9423397 4.84935051,28.6724474 4.968822,28.2200467 C4.9876884,28.1486057 4.99712788,28.0750035 4.99690017,28.0011136 L4.97203979,19.9270906 L4.97208194,19.9270904 C4.97073333,19.4894749 4.61488261,19.1358107 4.1772671,19.1371594 C4.11223667,19.1373598 4.04747822,19.1455649 3.9844528,19.1615897 Z" id="Oval-2" fill="#FFFFFF"></path>
                <path d="M32.9844528,19.1615897 C32.9844528,19.1615897 32.9844528,19.1615897 32.9844528,19.1615897 C30.6873923,19.7456376 29,21.690105 29,23.9988502 C29,26.2904426 30.6624123,28.2231498 32.933356,28.8228683 C32.933356,28.8228683 32.933356,28.8228683 32.933356,28.8228683 L32.933356,28.8228683 C33.3857566,28.9423397 33.8493505,28.6724474 33.968822,28.2200467 C33.9876884,28.1486057 33.9971279,28.0750035 33.9969002,28.0011136 L33.9720398,19.9270906 L33.9720819,19.9270904 C33.9707333,19.4894749 33.6148826,19.1358107 33.1772671,19.1371594 C33.1122367,19.1373598 33.0474782,19.1455649 32.9844528,19.1615897 Z" id="Oval-2-Copy" fill="#FFFFFF" transform="translate(31.500000, 24.000000) scale(-1, 1) translate(-31.500000, -24.000000) "></path>
                <rect id="Rectangle-2" fill="#FFFFFF" x="6" y="16" width="6" height="16" rx="3"></rect>
                <rect id="Rectangle-2-Copy" fill="#FFFFFF" x="22" y="16" width="6" height="16" rx="3"></rect>
                <path d="M4,23 L4,12.88 L4,12.88 C4,5.76657242 9.82029825,0 17,0 L17,0 L17,0 L17,0 C24.1797017,0 30,5.76657242 30,12.88 L30,23 L30,23" id="Rectangle-3" stroke="#FFFFFF" stroke-width="2"></path>
            </g>
        </g>
    </g>
</svg>