<?xml version="1.0" encoding="UTF-8" standalone="no"?>
<svg width="292px" height="184px" viewBox="0 0 292 184" version="1.1" xmlns="http://www.w3.org/2000/svg" xmlns:xlink="http://www.w3.org/1999/xlink">
    <!-- Generator: Sketch 46.2 (44496) - http://www.bohemiancoding.com/sketch -->
    <title>headphone_hint</title>
    <desc>Created with Sketch.</desc>
    <defs></defs>
    <g id="UI" stroke="none" stroke-width="1" fill="none" fill-rule="evenodd">
        <g id="Siri---1-Copy" transform="translate(-574.000000, -320.000000)">
            <g id="headphone_hint" transform="translate(574.000000, 320.000000)">
                <circle id="Oval" stroke="#FFFFFF" stroke-width="2" cx="146" cy="50" r="49"></circle>
                <path d="M30.016,128.8 L36.896,128.8 L36.896,130.048 L31.36,130.048 L31.36,133.76 L36.8,133.76 L36.8,135.008 L31.36,135.008 L31.36,140 L30.016,140 L30.016,128.8 Z M47.168,136.128 C47.168,136.789337 47.0586678,137.373331 46.84,137.88 C46.6213322,138.386669 46.3306685,138.813332 45.968,139.16 C45.6053315,139.506668 45.1813358,139.770666 44.696,139.952 C44.2106642,140.133334 43.7066693,140.224 43.184,140.224 C42.650664,140.224 42.1440024,140.133334 41.664,139.952 C41.1839976,139.770666 40.7626685,139.506668 40.4,139.16 C40.0373315,138.813332 39.7466678,138.386669 39.528,137.88 C39.3093322,137.373331 39.2,136.789337 39.2,136.128 L39.2,135.936 C39.2,135.28533 39.3093322,134.706669 39.528,134.2 C39.7466678,133.693331 40.0399982,133.264002 40.408,132.912 C40.7760018,132.559998 41.1999976,132.293334 41.68,132.112 C42.1600024,131.930666 42.6613307,131.84 43.184,131.84 C43.7066693,131.84 44.2079976,131.930666 44.688,132.112 C45.1680024,132.293334 45.5919982,132.559998 45.96,132.912 C46.3280018,133.264002 46.6213322,133.693331 46.84,134.2 C47.0586678,134.706669 47.168,135.28533 47.168,135.936 L47.168,136.128 Z M43.184,139.04 C43.5680019,139.04 43.922665,138.973334 44.248,138.84 C44.573335,138.706666 44.8586654,138.512001 45.104,138.256 C45.3493346,137.999999 45.5413326,137.693335 45.68,137.336 C45.8186674,136.978665 45.888,136.576002 45.888,136.128 L45.888,135.936 C45.888,135.509331 45.8186674,135.117335 45.68,134.76 C45.5413326,134.402665 45.3493346,134.096001 45.104,133.84 C44.8586654,133.583999 44.5706683,133.384001 44.24,133.24 C43.9093317,133.095999 43.5573352,133.024 43.184,133.024 C42.8106648,133.024 42.4586683,133.095999 42.128,133.24 C41.7973317,133.384001 41.5093346,133.583999 41.264,133.84 C41.0186654,134.096001 40.8266674,134.402665 40.688,134.76 C40.5493326,135.117335 40.48,135.509331 40.48,135.936 L40.48,136.128 C40.48,136.576002 40.5493326,136.978665 40.688,137.336 C40.8266674,137.693335 41.0186654,137.999999 41.264,138.256 C41.5093346,138.512001 41.794665,138.706666 42.12,138.84 C42.445335,138.973334 42.7999981,139.04 43.184,139.04 Z M49.024,132.064 L51.904,132.064 L51.904,133.12 L52.096,133.12 C52.2986677,132.682664 52.5866648,132.360001 52.96,132.152 C53.3333352,131.943999 53.7599976,131.84 54.24,131.84 C55.040004,131.84 55.6853309,132.101331 56.176,132.624 C56.6666691,133.146669 56.9279998,133.909328 56.96,134.912 L55.648,135.104 C55.648,134.367996 55.4720018,133.837335 55.12,133.512 C54.7679982,133.186665 54.3360026,133.024 53.824,133.024 C53.4933317,133.024 53.2080012,133.087999 52.968,133.216 C52.7279988,133.344001 52.5280008,133.519999 52.368,133.744 C52.2079992,133.968001 52.090667,134.229332 52.016,134.528 C51.941333,134.826668 51.904,135.146665 51.904,135.488 L51.904,138.848 L53.92,138.848 L53.92,140 L48.832,140 L48.832,138.848 L50.656,138.848 L50.656,133.216 L49.024,133.216 L49.024,132.064 Z M74.816,138.656 L74.624,138.656 C74.3679987,139.189336 74.0133356,139.583999 73.56,139.84 C73.1066644,140.096001 72.6293358,140.224 72.128,140.224 C71.6053307,140.224 71.1200022,140.136001 70.672,139.96 C70.2239978,139.783999 69.8320017,139.522668 69.496,139.176 C69.1599983,138.829332 68.896001,138.405336 68.704,137.904 C68.511999,137.402664 68.416,136.821337 68.416,136.16 L68.416,135.904 C68.416,135.25333 68.511999,134.677336 68.704,134.176 C68.896001,133.674664 69.1599983,133.250668 69.496,132.904 C69.8320017,132.557332 70.2239978,132.293334 70.672,132.112 C71.1200022,131.930666 71.5946642,131.84 72.096,131.84 C72.6400027,131.84 73.1333311,131.959999 73.576,132.2 C74.0186689,132.440001 74.3679987,132.810664 74.624,133.312 L74.816,133.312 L74.816,132.064 L76.064,132.064 L76.064,138.368 C76.064,138.688002 76.2079986,138.848 76.496,138.848 L76.896,138.848 L76.896,140 L76.048,140 C75.6853315,140 75.3893345,139.882668 75.16,139.648 C74.9306655,139.413332 74.816,139.114668 74.816,138.752 L74.816,138.656 Z M72.256,139.04 C72.6293352,139.04 72.9733318,138.970667 73.288,138.832 C73.6026682,138.693333 73.8719989,138.496001 74.096,138.24 C74.3200011,137.983999 74.4959994,137.677335 74.624,137.32 C74.7520006,136.962665 74.816,136.565336 74.816,136.128 L74.816,135.936 C74.816,135.509331 74.7520006,135.117335 74.624,134.76 C74.4959994,134.402665 74.3173345,134.096001 74.088,133.84 C73.8586655,133.583999 73.5866682,133.384001 73.272,133.24 C72.9573318,133.095999 72.6186685,133.024 72.256,133.024 C71.8826648,133.024 71.5413349,133.093333 71.232,133.232 C70.9226651,133.370667 70.6533345,133.565332 70.424,133.816 C70.1946655,134.066668 70.0160006,134.370665 69.888,134.728 C69.7599994,135.085335 69.696,135.477331 69.696,135.904 L69.696,136.16 C69.696,137.066671 69.933331,137.773331 70.408,138.28 C70.882669,138.786669 71.4986629,139.04 72.256,139.04 Z M89.6,140 L88.352,140 L88.352,128.8 L89.6,128.8 L89.6,133.312 L89.792,133.312 C90.0693347,132.831998 90.4533309,132.466668 90.944,132.216 C91.4346691,131.965332 91.9679971,131.84 92.544,131.84 C93.0346691,131.84 93.4986645,131.930666 93.936,132.112 C94.3733355,132.293334 94.7599983,132.554665 95.096,132.896 C95.4320017,133.237335 95.6986657,133.658664 95.896,134.16 C96.0933343,134.661336 96.192,135.231997 96.192,135.872 L96.192,136.192 C96.192,136.84267 96.096001,137.418664 95.904,137.92 C95.711999,138.421336 95.4480017,138.842665 95.112,139.184 C94.7759983,139.525335 94.3840022,139.783999 93.936,139.96 C93.4879978,140.136001 93.0133358,140.224 92.512,140.224 C92.2559987,140.224 91.994668,140.194667 91.728,140.136 C91.461332,140.077333 91.2080012,139.986667 90.968,139.864 C90.7279988,139.741333 90.5066677,139.592001 90.304,139.416 C90.1013323,139.239999 89.9306674,139.029335 89.792,138.784 L89.6,138.784 L89.6,140 Z M92.256,139.04 C92.6400019,139.04 92.9919984,138.973334 93.312,138.84 C93.6320016,138.706666 93.9119988,138.517335 94.152,138.272 C94.3920012,138.026665 94.578666,137.728002 94.712,137.376 C94.845334,137.023998 94.912,136.629336 94.912,136.192 L94.912,135.872 C94.912,135.445331 94.845334,135.058668 94.712,134.712 C94.578666,134.365332 94.3920012,134.066668 94.152,133.816 C93.9119988,133.565332 93.629335,133.370667 93.304,133.232 C92.978665,133.093333 92.6293352,133.024 92.256,133.024 C91.8826648,133.024 91.5360016,133.095999 91.216,133.24 C90.8959984,133.384001 90.6160012,133.583999 90.376,133.84 C90.1359988,134.096001 89.9466674,134.402665 89.808,134.76 C89.6693326,135.117335 89.6,135.509331 89.6,135.936 L89.6,136.128 C89.6,136.565336 89.6693326,136.962665 89.808,137.32 C89.9466674,137.677335 90.1359988,137.983999 90.376,138.24 C90.6160012,138.496001 90.8959984,138.693333 91.216,138.832 C91.5360016,138.970667 91.8826648,139.04 92.256,139.04 Z M99.344,136.416 C99.3760002,137.205337 99.621331,137.839998 100.08,138.32 C100.538669,138.800002 101.178663,139.04 102,139.04 C102.373335,139.04 102.698665,138.997334 102.976,138.912 C103.253335,138.826666 103.490666,138.709334 103.688,138.56 C103.885334,138.410666 104.045333,138.237334 104.168,138.04 C104.290667,137.842666 104.389333,137.632001 104.464,137.408 L105.648,137.728 C105.423999,138.464004 105.01067,139.063998 104.408,139.528 C103.80533,139.992002 102.992005,140.224 101.968,140.224 C101.402664,140.224 100.882669,140.125334 100.408,139.928 C99.933331,139.730666 99.525335,139.450668 99.184,139.088 C98.842665,138.725332 98.576001,138.293336 98.384,137.792 C98.191999,137.290664 98.096,136.736003 98.096,136.128 L98.096,135.744 C98.096,135.189331 98.1946657,134.672002 98.392,134.192 C98.5893343,133.711998 98.8639982,133.298668 99.216,132.952 C99.5680018,132.605332 99.981331,132.333334 100.456,132.136 C100.930669,131.938666 101.445331,131.84 102,131.84 C102.65067,131.84 103.213331,131.959999 103.688,132.2 C104.162669,132.440001 104.551998,132.735998 104.856,133.088 C105.160002,133.440002 105.383999,133.823998 105.528,134.24 C105.672001,134.656002 105.744,135.039998 105.744,135.392 L105.744,136.416 L99.344,136.416 Z M102,133.024 C101.647998,133.024 101.320002,133.079999 101.016,133.192 C100.711998,133.304001 100.445334,133.461332 100.216,133.664 C99.9866655,133.866668 99.8000007,134.103999 99.656,134.376 C99.5119993,134.648001 99.4186669,134.943998 99.376,135.264 L104.496,135.264 C104.474667,134.922665 104.392001,134.613335 104.248,134.336 C104.103999,134.058665 103.917334,133.824001 103.688,133.632 C103.458666,133.439999 103.197335,133.290667 102.904,133.184 C102.610665,133.077333 102.309335,133.024 102,133.024 Z M107.952,132.064 L110.448,132.064 L110.448,128.8 L111.696,128.8 L111.696,132.064 L114.768,132.064 L114.768,133.216 L111.696,133.216 L111.696,138.368 C111.696,138.688002 111.839999,138.848 112.128,138.848 L114.384,138.848 L114.384,140 L111.68,140 C111.317332,140 111.021334,139.882668 110.792,139.648 C110.562666,139.413332 110.448,139.114668 110.448,138.752 L110.448,133.216 L107.952,133.216 L107.952,132.064 Z M117.744,132.064 L120.24,132.064 L120.24,128.8 L121.488,128.8 L121.488,132.064 L124.56,132.064 L124.56,133.216 L121.488,133.216 L121.488,138.368 C121.488,138.688002 121.631999,138.848 121.92,138.848 L124.176,138.848 L124.176,140 L121.472,140 C121.109332,140 120.813334,139.882668 120.584,139.648 C120.354666,139.413332 120.24,139.114668 120.24,138.752 L120.24,133.216 L117.744,133.216 L117.744,132.064 Z M128.72,136.416 C128.752,137.205337 128.997331,137.839998 129.456,138.32 C129.914669,138.800002 130.554663,139.04 131.376,139.04 C131.749335,139.04 132.074665,138.997334 132.352,138.912 C132.629335,138.826666 132.866666,138.709334 133.064,138.56 C133.261334,138.410666 133.421333,138.237334 133.544,138.04 C133.666667,137.842666 133.765333,137.632001 133.84,137.408 L135.024,137.728 C134.799999,138.464004 134.38667,139.063998 133.784,139.528 C133.18133,139.992002 132.368005,140.224 131.344,140.224 C130.778664,140.224 130.258669,140.125334 129.784,139.928 C129.309331,139.730666 128.901335,139.450668 128.56,139.088 C128.218665,138.725332 127.952001,138.293336 127.76,137.792 C127.567999,137.290664 127.472,136.736003 127.472,136.128 L127.472,135.744 C127.472,135.189331 127.570666,134.672002 127.768,134.192 C127.965334,133.711998 128.239998,133.298668 128.592,132.952 C128.944002,132.605332 129.357331,132.333334 129.832,132.136 C130.306669,131.938666 130.821331,131.84 131.376,131.84 C132.02667,131.84 132.589331,131.959999 133.064,132.2 C133.538669,132.440001 133.927998,132.735998 134.232,133.088 C134.536002,133.440002 134.759999,133.823998 134.904,134.24 C135.048001,134.656002 135.12,135.039998 135.12,135.392 L135.12,136.416 L128.72,136.416 Z M131.376,133.024 C131.023998,133.024 130.696002,133.079999 130.392,133.192 C130.087998,133.304001 129.821334,133.461332 129.592,133.664 C129.362666,133.866668 129.176001,134.103999 129.032,134.376 C128.887999,134.648001 128.794667,134.943998 128.752,135.264 L133.872,135.264 C133.850667,134.922665 133.768001,134.613335 133.624,134.336 C133.479999,134.058665 133.293334,133.824001 133.064,133.632 C132.834666,133.439999 132.573335,133.290667 132.28,133.184 C131.986665,133.077333 131.685335,133.024 131.376,133.024 Z M137.152,132.064 L140.032,132.064 L140.032,133.12 L140.224,133.12 C140.426668,132.682664 140.714665,132.360001 141.088,132.152 C141.461335,131.943999 141.887998,131.84 142.368,131.84 C143.168004,131.84 143.813331,132.101331 144.304,132.624 C144.794669,133.146669 145.056,133.909328 145.088,134.912 L143.776,135.104 C143.776,134.367996 143.600002,133.837335 143.248,133.512 C142.895998,133.186665 142.464003,133.024 141.952,133.024 C141.621332,133.024 141.336001,133.087999 141.096,133.216 C140.855999,133.344001 140.656001,133.519999 140.496,133.744 C140.335999,133.968001 140.218667,134.229332 140.144,134.528 C140.069333,134.826668 140.032,135.146665 140.032,135.488 L140.032,138.848 L142.048,138.848 L142.048,140 L136.96,140 L136.96,138.848 L138.784,138.848 L138.784,133.216 L137.152,133.216 L137.152,132.064 Z M158.096,136.416 C158.128,137.205337 158.373331,137.839998 158.832,138.32 C159.290669,138.800002 159.930663,139.04 160.752,139.04 C161.125335,139.04 161.450665,138.997334 161.728,138.912 C162.005335,138.826666 162.242666,138.709334 162.44,138.56 C162.637334,138.410666 162.797333,138.237334 162.92,138.04 C163.042667,137.842666 163.141333,137.632001 163.216,137.408 L164.4,137.728 C164.175999,138.464004 163.76267,139.063998 163.16,139.528 C162.55733,139.992002 161.744005,140.224 160.72,140.224 C160.154664,140.224 159.634669,140.125334 159.16,139.928 C158.685331,139.730666 158.277335,139.450668 157.936,139.088 C157.594665,138.725332 157.328001,138.293336 157.136,137.792 C156.943999,137.290664 156.848,136.736003 156.848,136.128 L156.848,135.744 C156.848,135.189331 156.946666,134.672002 157.144,134.192 C157.341334,133.711998 157.615998,133.298668 157.968,132.952 C158.320002,132.605332 158.733331,132.333334 159.208,132.136 C159.682669,131.938666 160.197331,131.84 160.752,131.84 C161.40267,131.84 161.965331,131.959999 162.44,132.2 C162.914669,132.440001 163.303998,132.735998 163.608,133.088 C163.912002,133.440002 164.135999,133.823998 164.28,134.24 C164.424001,134.656002 164.496,135.039998 164.496,135.392 L164.496,136.416 L158.096,136.416 Z M160.752,133.024 C160.399998,133.024 160.072002,133.079999 159.768,133.192 C159.463998,133.304001 159.197334,133.461332 158.968,133.664 C158.738666,133.866668 158.552001,134.103999 158.408,134.376 C158.263999,134.648001 158.170667,134.943998 158.128,135.264 L163.248,135.264 C163.226667,134.922665 163.144001,134.613335 163,134.336 C162.855999,134.058665 162.669334,133.824001 162.44,133.632 C162.210666,133.439999 161.949335,133.290667 161.656,133.184 C161.362665,133.077333 161.061335,133.024 160.752,133.024 Z M172.624,132.064 L174.048,132.064 L171.712,135.84 L171.712,136.032 L174.24,140 L172.784,140 L170.624,136.512 L170.336,136.512 L168.176,140 L166.72,140 L169.248,136.032 L169.248,135.84 L166.912,132.064 L168.336,132.064 L170.336,135.36 L170.624,135.36 L172.624,132.064 Z M177.728,143.2 L176.48,143.2 L176.48,132.064 L177.728,132.064 L177.728,133.312 L177.92,133.312 C178.197335,132.831998 178.581331,132.466668 179.072,132.216 C179.562669,131.965332 180.095997,131.84 180.672,131.84 C181.162669,131.84 181.626664,131.930666 182.064,132.112 C182.501336,132.293334 182.887998,132.554665 183.224,132.896 C183.560002,133.237335 183.826666,133.658664 184.024,134.16 C184.221334,134.661336 184.32,135.231997 184.32,135.872 L184.32,136.192 C184.32,136.84267 184.224001,137.418664 184.032,137.92 C183.839999,138.421336 183.576002,138.842665 183.24,139.184 C182.903998,139.525335 182.512002,139.783999 182.064,139.96 C181.615998,140.136001 181.141336,140.224 180.64,140.224 C180.383999,140.224 180.122668,140.194667 179.856,140.136 C179.589332,140.077333 179.336001,139.986667 179.096,139.864 C178.855999,139.741333 178.634668,139.592001 178.432,139.416 C178.229332,139.239999 178.058667,139.029335 177.92,138.784 L177.728,138.784 L177.728,143.2 Z M180.384,139.04 C180.768002,139.04 181.119998,138.973334 181.44,138.84 C181.760002,138.706666 182.039999,138.517335 182.28,138.272 C182.520001,138.026665 182.706666,137.728002 182.84,137.376 C182.973334,137.023998 183.04,136.629336 183.04,136.192 L183.04,135.872 C183.04,135.445331 182.973334,135.058668 182.84,134.712 C182.706666,134.365332 182.520001,134.066668 182.28,133.816 C182.039999,133.565332 181.757335,133.370667 181.432,133.232 C181.106665,133.093333 180.757335,133.024 180.384,133.024 C180.010665,133.024 179.664002,133.095999 179.344,133.24 C179.023998,133.384001 178.744001,133.583999 178.504,133.84 C178.263999,134.096001 178.074667,134.402665 177.936,134.76 C177.797333,135.117335 177.728,135.509331 177.728,135.936 L177.728,136.128 C177.728,136.565336 177.797333,136.962665 177.936,137.32 C178.074667,137.677335 178.263999,137.983999 178.504,138.24 C178.744001,138.496001 179.023998,138.693333 179.344,138.832 C179.664002,138.970667 180.010665,139.04 180.384,139.04 Z M187.472,136.416 C187.504,137.205337 187.749331,137.839998 188.208,138.32 C188.666669,138.800002 189.306663,139.04 190.128,139.04 C190.501335,139.04 190.826665,138.997334 191.104,138.912 C191.381335,138.826666 191.618666,138.709334 191.816,138.56 C192.013334,138.410666 192.173333,138.237334 192.296,138.04 C192.418667,137.842666 192.517333,137.632001 192.592,137.408 L193.776,137.728 C193.551999,138.464004 193.13867,139.063998 192.536,139.528 C191.93333,139.992002 191.120005,140.224 190.096,140.224 C189.530664,140.224 189.010669,140.125334 188.536,139.928 C188.061331,139.730666 187.653335,139.450668 187.312,139.088 C186.970665,138.725332 186.704001,138.293336 186.512,137.792 C186.319999,137.290664 186.224,136.736003 186.224,136.128 L186.224,135.744 C186.224,135.189331 186.322666,134.672002 186.52,134.192 C186.717334,133.711998 186.991998,133.298668 187.344,132.952 C187.696002,132.605332 188.109331,132.333334 188.584,132.136 C189.058669,131.938666 189.573331,131.84 190.128,131.84 C190.77867,131.84 191.341331,131.959999 191.816,132.2 C192.290669,132.440001 192.679998,132.735998 192.984,133.088 C193.288002,133.440002 193.511999,133.823998 193.656,134.24 C193.800001,134.656002 193.872,135.039998 193.872,135.392 L193.872,136.416 L187.472,136.416 Z M190.128,133.024 C189.775998,133.024 189.448002,133.079999 189.144,133.192 C188.839998,133.304001 188.573334,133.461332 188.344,133.664 C188.114666,133.866668 187.928001,134.103999 187.784,134.376 C187.639999,134.648001 187.546667,134.943998 187.504,135.264 L192.624,135.264 C192.602667,134.922665 192.520001,134.613335 192.376,134.336 C192.231999,134.058665 192.045334,133.824001 191.816,133.632 C191.586666,133.439999 191.325335,133.290667 191.032,133.184 C190.738665,133.077333 190.437335,133.024 190.128,133.024 Z M195.904,132.064 L198.784,132.064 L198.784,133.12 L198.976,133.12 C199.178668,132.682664 199.466665,132.360001 199.84,132.152 C200.213335,131.943999 200.639998,131.84 201.12,131.84 C201.920004,131.84 202.565331,132.101331 203.056,132.624 C203.546669,133.146669 203.808,133.909328 203.84,134.912 L202.528,135.104 C202.528,134.367996 202.352002,133.837335 202,133.512 C201.647998,133.186665 201.216003,133.024 200.704,133.024 C200.373332,133.024 200.088001,133.087999 199.848,133.216 C199.607999,133.344001 199.408001,133.519999 199.248,133.744 C199.087999,133.968001 198.970667,134.229332 198.896,134.528 C198.821333,134.826668 198.784,135.146665 198.784,135.488 L198.784,138.848 L200.8,138.848 L200.8,140 L195.712,140 L195.712,138.848 L197.536,138.848 L197.536,133.216 L195.904,133.216 L195.904,132.064 Z M208.608,129.696 C208.608,129.386665 208.717332,129.122668 208.936,128.904 C209.154668,128.685332 209.418665,128.576 209.728,128.576 C210.037335,128.576 210.301332,128.685332 210.52,128.904 C210.738668,129.122668 210.848,129.386665 210.848,129.696 C210.848,130.005335 210.738668,130.269332 210.52,130.488 C210.301332,130.706668 210.037335,130.816 209.728,130.816 C209.418665,130.816 209.154668,130.706668 208.936,130.488 C208.717332,130.269332 208.608,130.005335 208.608,129.696 Z M206.336,138.848 L209.12,138.848 L209.12,133.216 L206.624,133.216 L206.624,132.064 L210.368,132.064 L210.368,138.848 L212.96,138.848 L212.96,140 L206.336,140 L206.336,138.848 Z M216.848,136.416 C216.88,137.205337 217.125331,137.839998 217.584,138.32 C218.042669,138.800002 218.682663,139.04 219.504,139.04 C219.877335,139.04 220.202665,138.997334 220.48,138.912 C220.757335,138.826666 220.994666,138.709334 221.192,138.56 C221.389334,138.410666 221.549333,138.237334 221.672,138.04 C221.794667,137.842666 221.893333,137.632001 221.968,137.408 L223.152,137.728 C222.927999,138.464004 222.51467,139.063998 221.912,139.528 C221.30933,139.992002 220.496005,140.224 219.472,140.224 C218.906664,140.224 218.386669,140.125334 217.912,139.928 C217.437331,139.730666 217.029335,139.450668 216.688,139.088 C216.346665,138.725332 216.080001,138.293336 215.888,137.792 C215.695999,137.290664 215.6,136.736003 215.6,136.128 L215.6,135.744 C215.6,135.189331 215.698666,134.672002 215.896,134.192 C216.093334,133.711998 216.367998,133.298668 216.72,132.952 C217.072002,132.605332 217.485331,132.333334 217.96,132.136 C218.434669,131.938666 218.949331,131.84 219.504,131.84 C220.15467,131.84 220.717331,131.959999 221.192,132.2 C221.666669,132.440001 222.055998,132.735998 222.36,133.088 C222.664002,133.440002 222.887999,133.823998 223.032,134.24 C223.176001,134.656002 223.248,135.039998 223.248,135.392 L223.248,136.416 L216.848,136.416 Z M219.504,133.024 C219.151998,133.024 218.824002,133.079999 218.52,133.192 C218.215998,133.304001 217.949334,133.461332 217.72,133.664 C217.490666,133.866668 217.304001,134.103999 217.16,134.376 C217.015999,134.648001 216.922667,134.943998 216.88,135.264 L222,135.264 C221.978667,134.922665 221.896001,134.613335 221.752,134.336 C221.607999,134.058665 221.421334,133.824001 221.192,133.632 C220.962666,133.439999 220.701335,133.290667 220.408,133.184 C220.114665,133.077333 219.813335,133.024 219.504,133.024 Z M226.976,140 L225.728,140 L225.728,132.064 L226.976,132.064 L226.976,133.408 L227.168,133.408 C227.658669,132.362661 228.511994,131.84 229.728,131.84 C230.645338,131.84 231.375997,132.12533 231.92,132.696 C232.464003,133.26667 232.736,134.122661 232.736,135.264 L232.736,140 L231.488,140 L231.488,135.52 C231.488,134.687996 231.301335,134.064002 230.928,133.648 C230.554665,133.231998 230.048003,133.024 229.408,133.024 C228.650663,133.024 228.056002,133.282664 227.624,133.8 C227.191998,134.317336 226.976,135.007996 226.976,135.872 L226.976,140 Z M242.944,137.184 C242.858666,137.621336 242.712001,138.026665 242.504,138.4 C242.295999,138.773335 242.032002,139.095999 241.712,139.368 C241.391998,139.640001 241.018669,139.850666 240.592,140 C240.165331,140.149334 239.690669,140.224 239.168,140.224 C238.613331,140.224 238.088002,140.133334 237.592,139.952 C237.095998,139.770666 236.661335,139.506668 236.288,139.16 C235.914665,138.813332 235.618668,138.389336 235.4,137.888 C235.181332,137.386664 235.072,136.81067 235.072,136.16 L235.072,135.968 C235.072,135.327997 235.181332,134.752003 235.4,134.24 C235.618668,133.727997 235.914665,133.296002 236.288,132.944 C236.661335,132.591998 237.095998,132.320001 237.592,132.128 C238.088002,131.935999 238.613331,131.84 239.168,131.84 C239.669336,131.84 240.133331,131.914666 240.56,132.064 C240.986669,132.213334 241.362665,132.423999 241.688,132.696 C242.013335,132.968001 242.279999,133.290665 242.488,133.664 C242.696001,134.037335 242.837333,134.442664 242.912,134.88 L241.664,135.168 C241.632,134.890665 241.554667,134.621335 241.432,134.36 C241.309333,134.098665 241.144001,133.869334 240.936,133.672 C240.727999,133.474666 240.474668,133.317334 240.176,133.2 C239.877332,133.082666 239.530669,133.024 239.136,133.024 C238.751998,133.024 238.392002,133.095999 238.056,133.24 C237.719998,133.384001 237.424001,133.586665 237.168,133.848 C236.911999,134.109335 236.712001,134.421332 236.568,134.784 C236.423999,135.146668 236.352,135.541331 236.352,135.968 L236.352,136.16 C236.352,136.608002 236.423999,137.010665 236.568,137.368 C236.712001,137.725335 236.911999,138.026665 237.168,138.272 C237.424001,138.517335 237.722665,138.706666 238.064,138.84 C238.405335,138.973334 238.773331,139.04 239.168,139.04 C239.562669,139.04 239.906665,138.978667 240.2,138.856 C240.493335,138.733333 240.743999,138.573334 240.952,138.376 C241.160001,138.178666 241.325333,137.952001 241.448,137.696 C241.570667,137.439999 241.653333,137.173335 241.696,136.896 L242.944,137.184 Z M246.224,136.416 C246.256,137.205337 246.501331,137.839998 246.96,138.32 C247.418669,138.800002 248.058663,139.04 248.88,139.04 C249.253335,139.04 249.578665,138.997334 249.856,138.912 C250.133335,138.826666 250.370666,138.709334 250.568,138.56 C250.765334,138.410666 250.925333,138.237334 251.048,138.04 C251.170667,137.842666 251.269333,137.632001 251.344,137.408 L252.528,137.728 C252.303999,138.464004 251.89067,139.063998 251.288,139.528 C250.68533,139.992002 249.872005,140.224 248.848,140.224 C248.282664,140.224 247.762669,140.125334 247.288,139.928 C246.813331,139.730666 246.405335,139.450668 246.064,139.088 C245.722665,138.725332 245.456001,138.293336 245.264,137.792 C245.071999,137.290664 244.976,136.736003 244.976,136.128 L244.976,135.744 C244.976,135.189331 245.074666,134.672002 245.272,134.192 C245.469334,133.711998 245.743998,133.298668 246.096,132.952 C246.448002,132.605332 246.861331,132.333334 247.336,132.136 C247.810669,131.938666 248.325331,131.84 248.88,131.84 C249.53067,131.84 250.093331,131.959999 250.568,132.2 C251.042669,132.440001 251.431998,132.735998 251.736,133.088 C252.040002,133.440002 252.263999,133.823998 252.408,134.24 C252.552001,134.656002 252.624,135.039998 252.624,135.392 L252.624,136.416 L246.224,136.416 Z M248.88,133.024 C248.527998,133.024 248.200002,133.079999 247.896,133.192 C247.591998,133.304001 247.325334,133.461332 247.096,133.664 C246.866666,133.866668 246.680001,134.103999 246.536,134.376 C246.391999,134.648001 246.298667,134.943998 246.256,135.264 L251.376,135.264 C251.354667,134.922665 251.272001,134.613335 251.128,134.336 C250.983999,134.058665 250.797334,133.824001 250.568,133.632 C250.338666,133.439999 250.077335,133.290667 249.784,133.184 C249.490665,133.077333 249.189335,133.024 248.88,133.024 Z M257.488,139.104 C257.488,138.794665 257.597332,138.530668 257.816,138.312 C258.034668,138.093332 258.298665,137.984 258.608,137.984 C258.917335,137.984 259.181332,138.093332 259.4,138.312 C259.618668,138.530668 259.728,138.794665 259.728,139.104 L259.728,140.672 C259.728,141.034668 259.613334,141.333332 259.384,141.568 C259.154666,141.802668 258.858668,141.92 258.496,141.92 L257.68,141.92 L257.68,141.056 L258.432,141.056 C258.720001,141.056 258.864,140.896002 258.864,140.576 L258.864,140.176 C258.778666,140.208 258.688,140.224 258.592,140.224 C258.293332,140.224 258.034668,140.114668 257.816,139.896 C257.597332,139.677332 257.488,139.413335 257.488,139.104 Z M1.472,163.2 L0.224,163.2 L0.224,152.064 L1.472,152.064 L1.472,153.312 L1.664,153.312 C1.94133472,152.831998 2.32533088,152.466668 2.816,152.216 C3.30666912,151.965332 3.83999712,151.84 4.416,151.84 C4.90666912,151.84 5.37066448,151.930666 5.808,152.112 C6.24533552,152.293334 6.63199832,152.554665 6.968,152.896 C7.30400168,153.237335 7.57066568,153.658664 7.768,154.16 C7.96533432,154.661336 8.064,155.231997 8.064,155.872 L8.064,156.192 C8.064,156.84267 7.96800096,157.418664 7.776,157.92 C7.58399904,158.421336 7.32000168,158.842665 6.984,159.184 C6.64799832,159.525335 6.25600224,159.783999 5.808,159.96 C5.35999776,160.136001 4.88533584,160.224 4.384,160.224 C4.12799872,160.224 3.866668,160.194667 3.6,160.136 C3.333332,160.077333 3.0800012,159.986667 2.84,159.864 C2.5999988,159.741333 2.37866768,159.592001 2.176,159.416 C1.97333232,159.239999 1.80266736,159.029335 1.664,158.784 L1.472,158.784 L1.472,163.2 Z M4.128,159.04 C4.51200192,159.04 4.8639984,158.973334 5.184,158.84 C5.5040016,158.706666 5.7839988,158.517335 6.024,158.272 C6.2640012,158.026665 6.450666,157.728002 6.584,157.376 C6.717334,157.023998 6.784,156.629336 6.784,156.192 L6.784,155.872 C6.784,155.445331 6.717334,155.058668 6.584,154.712 C6.450666,154.365332 6.2640012,154.066668 6.024,153.816 C5.7839988,153.565332 5.50133496,153.370667 5.176,153.232 C4.85066504,153.093333 4.5013352,153.024 4.128,153.024 C3.7546648,153.024 3.4080016,153.095999 3.088,153.24 C2.7679984,153.384001 2.4880012,153.583999 2.248,153.84 C2.0079988,154.096001 1.81866736,154.402665 1.68,154.76 C1.54133264,155.117335 1.472,155.509331 1.472,155.936 L1.472,156.128 C1.472,156.565336 1.54133264,156.962665 1.68,157.32 C1.81866736,157.677335 2.0079988,157.983999 2.248,158.24 C2.4880012,158.496001 2.7679984,158.693333 3.088,158.832 C3.4080016,158.970667 3.7546648,159.04 4.128,159.04 Z M10.304,158.848 L13.184,158.848 L13.184,149.952 L10.4,149.952 L10.4,148.8 L14.432,148.8 L14.432,158.848 L17.312,158.848 L17.312,160 L10.304,160 L10.304,158.848 Z M21.008,156.416 C21.0400002,157.205337 21.285331,157.839998 21.744,158.32 C22.202669,158.800002 22.8426626,159.04 23.664,159.04 C24.0373352,159.04 24.3626653,158.997334 24.64,158.912 C24.9173347,158.826666 25.1546657,158.709334 25.352,158.56 C25.5493343,158.410666 25.7093327,158.237334 25.832,158.04 C25.9546673,157.842666 26.053333,157.632001 26.128,157.408 L27.312,157.728 C27.0879989,158.464004 26.6746697,159.063998 26.072,159.528 C25.4693303,159.992002 24.6560051,160.224 23.632,160.224 C23.0666638,160.224 22.546669,160.125334 22.072,159.928 C21.597331,159.730666 21.189335,159.450668 20.848,159.088 C20.506665,158.725332 20.240001,158.293336 20.048,157.792 C19.855999,157.290664 19.76,156.736003 19.76,156.128 L19.76,155.744 C19.76,155.189331 19.8586657,154.672002 20.056,154.192 C20.2533343,153.711998 20.5279982,153.298668 20.88,152.952 C21.2320018,152.605332 21.645331,152.333334 22.12,152.136 C22.594669,151.938666 23.1093306,151.84 23.664,151.84 C24.3146699,151.84 24.877331,151.959999 25.352,152.2 C25.826669,152.440001 26.2159985,152.735998 26.52,153.088 C26.8240015,153.440002 27.0479993,153.823998 27.192,154.24 C27.3360007,154.656002 27.408,155.039998 27.408,155.392 L27.408,156.416 L21.008,156.416 Z M23.664,153.024 C23.3119982,153.024 22.9840015,153.079999 22.68,153.192 C22.3759985,153.304001 22.1093345,153.461332 21.88,153.664 C21.6506655,153.866668 21.4640007,154.103999 21.32,154.376 C21.1759993,154.648001 21.0826669,154.943998 21.04,155.264 L26.16,155.264 C26.1386666,154.922665 26.0560007,154.613335 25.912,154.336 C25.7679993,154.058665 25.5813345,153.824001 25.352,153.632 C25.1226655,153.439999 24.8613348,153.290667 24.568,153.184 C24.2746652,153.077333 23.9733349,153.024 23.664,153.024 Z M35.648,158.656 L35.456,158.656 C35.1999987,159.189336 34.8453356,159.583999 34.392,159.84 C33.9386644,160.096001 33.4613358,160.224 32.96,160.224 C32.4373307,160.224 31.9520022,160.136001 31.504,159.96 C31.0559978,159.783999 30.6640017,159.522668 30.328,159.176 C29.9919983,158.829332 29.728001,158.405336 29.536,157.904 C29.343999,157.402664 29.248,156.821337 29.248,156.16 L29.248,155.904 C29.248,155.25333 29.343999,154.677336 29.536,154.176 C29.728001,153.674664 29.9919983,153.250668 30.328,152.904 C30.6640017,152.557332 31.0559978,152.293334 31.504,152.112 C31.9520022,151.930666 32.4266642,151.84 32.928,151.84 C33.4720027,151.84 33.9653311,151.959999 34.408,152.2 C34.8506689,152.440001 35.1999987,152.810664 35.456,153.312 L35.648,153.312 L35.648,152.064 L36.896,152.064 L36.896,158.368 C36.896,158.688002 37.0399986,158.848 37.328,158.848 L37.728,158.848 L37.728,160 L36.88,160 C36.5173315,160 36.2213345,159.882668 35.992,159.648 C35.7626655,159.413332 35.648,159.114668 35.648,158.752 L35.648,158.656 Z M33.088,159.04 C33.4613352,159.04 33.8053318,158.970667 34.12,158.832 C34.4346682,158.693333 34.7039989,158.496001 34.928,158.24 C35.1520011,157.983999 35.3279994,157.677335 35.456,157.32 C35.5840006,156.962665 35.648,156.565336 35.648,156.128 L35.648,155.936 C35.648,155.509331 35.5840006,155.117335 35.456,154.76 C35.3279994,154.402665 35.1493345,154.096001 34.92,153.84 C34.6906655,153.583999 34.4186682,153.384001 34.104,153.24 C33.7893318,153.095999 33.4506685,153.024 33.088,153.024 C32.7146648,153.024 32.3733349,153.093333 32.064,153.232 C31.7546651,153.370667 31.4853345,153.565332 31.256,153.816 C31.0266655,154.066668 30.8480006,154.370665 30.72,154.728 C30.5919994,155.085335 30.528,155.477331 30.528,155.904 L30.528,156.16 C30.528,157.066671 30.765331,157.773331 31.24,158.28 C31.714669,158.786669 32.3306629,159.04 33.088,159.04 Z M41.328,154.112 C41.328,154.496002 41.490665,154.789332 41.816,154.992 C42.141335,155.194668 42.7359957,155.328 43.6,155.392 C44.5280046,155.466667 45.2346642,155.687998 45.72,156.056 C46.2053358,156.424002 46.448,156.959996 46.448,157.664 L46.448,157.76 C46.448,158.144002 46.3706674,158.487998 46.216,158.792 C46.0613326,159.096002 45.8480014,159.354666 45.576,159.568 C45.3039986,159.781334 44.9733353,159.943999 44.584,160.056 C44.1946647,160.168001 43.770669,160.224 43.312,160.224 C42.6933302,160.224 42.1626689,160.141334 41.72,159.976 C41.2773311,159.810666 40.9093348,159.592001 40.616,159.32 C40.3226652,159.047999 40.1013341,158.738668 39.952,158.392 C39.8026659,158.045332 39.7173334,157.696002 39.696,157.344 L40.88,157.056 C40.9333336,157.664003 41.1679979,158.151998 41.584,158.52 C42.0000021,158.888002 42.5546632,159.072 43.248,159.072 C43.8346696,159.072 44.3066649,158.957334 44.664,158.728 C45.0213351,158.498666 45.2,158.176002 45.2,157.76 C45.2,157.311998 45.0240018,156.992001 44.672,156.8 C44.3199982,156.607999 43.7493373,156.485334 42.96,156.432 C42.0426621,156.368 41.3386691,156.154668 40.848,155.792 C40.3573309,155.429332 40.112,154.901337 40.112,154.208 L40.112,154.112 C40.112,153.738665 40.1919992,153.410668 40.352,153.128 C40.5120008,152.845332 40.7279986,152.608001 41,152.416 C41.2720014,152.223999 41.578665,152.08 41.92,151.984 C42.261335,151.888 42.6186648,151.84 42.992,151.84 C43.5146693,151.84 43.9733314,151.911999 44.368,152.056 C44.7626686,152.200001 45.093332,152.386666 45.36,152.616 C45.626668,152.845334 45.8319993,153.109332 45.976,153.408 C46.1200007,153.706668 46.2133331,154.005332 46.256,154.304 L45.072,154.592 C45.0186664,154.079997 44.8133351,153.680001 44.456,153.392 C44.0986649,153.103999 43.6320029,152.96 43.056,152.96 C42.8319989,152.96 42.616001,152.984 42.408,153.032 C42.199999,153.08 42.0160008,153.152 41.856,153.248 C41.6959992,153.344 41.5680005,153.463999 41.472,153.608 C41.3759995,153.752001 41.328,153.919999 41.328,154.112 Z M50.384,156.416 C50.4160002,157.205337 50.661331,157.839998 51.12,158.32 C51.578669,158.800002 52.2186626,159.04 53.04,159.04 C53.4133352,159.04 53.7386653,158.997334 54.016,158.912 C54.2933347,158.826666 54.5306657,158.709334 54.728,158.56 C54.9253343,158.410666 55.0853327,158.237334 55.208,158.04 C55.3306673,157.842666 55.429333,157.632001 55.504,157.408 L56.688,157.728 C56.4639989,158.464004 56.0506697,159.063998 55.448,159.528 C54.8453303,159.992002 54.0320051,160.224 53.008,160.224 C52.4426638,160.224 51.922669,160.125334 51.448,159.928 C50.973331,159.730666 50.565335,159.450668 50.224,159.088 C49.882665,158.725332 49.616001,158.293336 49.424,157.792 C49.231999,157.290664 49.136,156.736003 49.136,156.128 L49.136,155.744 C49.136,155.189331 49.2346657,154.672002 49.432,154.192 C49.6293343,153.711998 49.9039982,153.298668 50.256,152.952 C50.6080018,152.605332 51.021331,152.333334 51.496,152.136 C51.970669,151.938666 52.4853306,151.84 53.04,151.84 C53.6906699,151.84 54.253331,151.959999 54.728,152.2 C55.202669,152.440001 55.5919985,152.735998 55.896,153.088 C56.2000015,153.440002 56.4239993,153.823998 56.568,154.24 C56.7120007,154.656002 56.784,155.039998 56.784,155.392 L56.784,156.416 L50.384,156.416 Z M53.04,153.024 C52.6879982,153.024 52.3600015,153.079999 52.056,153.192 C51.7519985,153.304001 51.4853345,153.461332 51.256,153.664 C51.0266655,153.866668 50.8400007,154.103999 50.696,154.376 C50.5519993,154.648001 50.4586669,154.943998 50.416,155.264 L55.536,155.264 C55.5146666,154.922665 55.4320007,154.613335 55.288,154.336 C55.1439993,154.058665 54.9573345,153.824001 54.728,153.632 C54.4986655,153.439999 54.2373348,153.290667 53.944,153.184 C53.6506652,153.077333 53.3493349,153.024 53.04,153.024 Z M70.016,163.2 L68.768,163.2 L68.768,152.064 L70.016,152.064 L70.016,153.312 L70.208,153.312 C70.4853347,152.831998 70.8693309,152.466668 71.36,152.216 C71.8506691,151.965332 72.3839971,151.84 72.96,151.84 C73.4506691,151.84 73.9146645,151.930666 74.352,152.112 C74.7893355,152.293334 75.1759983,152.554665 75.512,152.896 C75.8480017,153.237335 76.1146657,153.658664 76.312,154.16 C76.5093343,154.661336 76.608,155.231997 76.608,155.872 L76.608,156.192 C76.608,156.84267 76.512001,157.418664 76.32,157.92 C76.127999,158.421336 75.8640017,158.842665 75.528,159.184 C75.1919983,159.525335 74.8000022,159.783999 74.352,159.96 C73.9039978,160.136001 73.4293358,160.224 72.928,160.224 C72.6719987,160.224 72.410668,160.194667 72.144,160.136 C71.877332,160.077333 71.6240012,159.986667 71.384,159.864 C71.1439988,159.741333 70.9226677,159.592001 70.72,159.416 C70.5173323,159.239999 70.3466674,159.029335 70.208,158.784 L70.016,158.784 L70.016,163.2 Z M72.672,159.04 C73.0560019,159.04 73.4079984,158.973334 73.728,158.84 C74.0480016,158.706666 74.3279988,158.517335 74.568,158.272 C74.8080012,158.026665 74.994666,157.728002 75.128,157.376 C75.261334,157.023998 75.328,156.629336 75.328,156.192 L75.328,155.872 C75.328,155.445331 75.261334,155.058668 75.128,154.712 C74.994666,154.365332 74.8080012,154.066668 74.568,153.816 C74.3279988,153.565332 74.045335,153.370667 73.72,153.232 C73.394665,153.093333 73.0453352,153.024 72.672,153.024 C72.2986648,153.024 71.9520016,153.095999 71.632,153.24 C71.3119984,153.384001 71.0320012,153.583999 70.792,153.84 C70.5519988,154.096001 70.3626674,154.402665 70.224,154.76 C70.0853326,155.117335 70.016,155.509331 70.016,155.936 L70.016,156.128 C70.016,156.565336 70.0853326,156.962665 70.224,157.32 C70.3626674,157.677335 70.5519988,157.983999 70.792,158.24 C71.0320012,158.496001 71.3119984,158.693333 71.632,158.832 C71.9520016,158.970667 72.2986648,159.04 72.672,159.04 Z M78.848,158.848 L81.728,158.848 L81.728,149.952 L78.944,149.952 L78.944,148.8 L82.976,148.8 L82.976,158.848 L85.856,158.848 L85.856,160 L78.848,160 L78.848,158.848 Z M94.304,152.064 L95.552,152.064 L95.552,160 L94.304,160 L94.304,158.56 L94.112,158.56 C93.8559987,159.072003 93.5200021,159.477332 93.104,159.776 C92.6879979,160.074668 92.1600032,160.224 91.52,160.224 C91.0826645,160.224 90.6800018,160.152001 90.312,160.008 C89.9439982,159.863999 89.6293346,159.648001 89.368,159.36 C89.1066654,159.071999 88.9040007,158.714669 88.76,158.288 C88.6159993,157.861331 88.544,157.365336 88.544,156.8 L88.544,152.064 L89.792,152.064 L89.792,156.64 C89.792,157.472004 89.962665,158.079998 90.304,158.464 C90.645335,158.848002 91.1679965,159.04 91.872,159.04 C92.6293371,159.04 93.2239978,158.781336 93.656,158.264 C94.0880022,157.746664 94.304,157.056004 94.304,156.192 L94.304,152.064 Z M104.464,158.784 L104.272,158.784 C104.015999,159.264002 103.666669,159.623999 103.224,159.864 C102.781331,160.104001 102.298669,160.224 101.776,160.224 C101.242664,160.224 100.741336,160.133334 100.272,159.952 C99.8026643,159.770666 99.3893351,159.509335 99.032,159.168 C98.6746649,158.826665 98.392001,158.402669 98.184,157.896 C97.975999,157.389331 97.872,156.81067 97.872,156.16 L97.872,155.904 C97.872,155.263997 97.9786656,154.690669 98.192,154.184 C98.4053344,153.677331 98.6879982,153.250668 99.04,152.904 C99.3920018,152.557332 99.8026643,152.293334 100.272,152.112 C100.741336,151.930666 101.231997,151.84 101.744,151.84 C102.320003,151.84 102.823998,151.965332 103.256,152.216 C103.688002,152.466668 104.026665,152.831998 104.272,153.312 L104.464,153.312 L104.464,152.064 L105.712,152.064 L105.712,161.952 C105.712,162.314668 105.597334,162.613332 105.368,162.848 C105.138666,163.082668 104.842668,163.2 104.48,163.2 L99.312,163.2 L99.312,162.048 L104.032,162.048 C104.320001,162.048 104.464,161.888002 104.464,161.568 L104.464,158.784 Z M101.808,159.04 C102.181335,159.04 102.527998,158.970667 102.848,158.832 C103.168002,158.693333 103.447999,158.496001 103.688,158.24 C103.928001,157.983999 104.117333,157.677335 104.256,157.32 C104.394667,156.962665 104.464,156.565336 104.464,156.128 L104.464,155.936 C104.464,155.509331 104.394667,155.117335 104.256,154.76 C104.117333,154.402665 103.928001,154.096001 103.688,153.84 C103.447999,153.583999 103.165335,153.384001 102.84,153.24 C102.514665,153.095999 102.170668,153.024 101.808,153.024 C101.434665,153.024 101.085335,153.093333 100.76,153.232 C100.434665,153.370667 100.152001,153.567999 99.912,153.824 C99.6719988,154.080001 99.485334,154.383998 99.352,154.736 C99.218666,155.088002 99.152,155.477331 99.152,155.904 L99.152,156.16 C99.152,156.608002 99.218666,157.007998 99.352,157.36 C99.485334,157.712002 99.6719988,158.013332 99.912,158.264 C100.152001,158.514668 100.431998,158.706666 100.752,158.84 C101.072002,158.973334 101.423998,159.04 101.808,159.04 Z M120.48,149.696 C120.48,149.386665 120.589332,149.122668 120.808,148.904 C121.026668,148.685332 121.290665,148.576 121.6,148.576 C121.909335,148.576 122.173332,148.685332 122.392,148.904 C122.610668,149.122668 122.72,149.386665 122.72,149.696 C122.72,150.005335 122.610668,150.269332 122.392,150.488 C122.173332,150.706668 121.909335,150.816 121.6,150.816 C121.290665,150.816 121.026668,150.706668 120.808,150.488 C120.589332,150.269332 120.48,150.005335 120.48,149.696 Z M118.208,158.848 L120.992,158.848 L120.992,153.216 L118.496,153.216 L118.496,152.064 L122.24,152.064 L122.24,158.848 L124.832,158.848 L124.832,160 L118.208,160 L118.208,158.848 Z M129.056,160 L127.808,160 L127.808,152.064 L129.056,152.064 L129.056,153.408 L129.248,153.408 C129.738669,152.362661 130.591994,151.84 131.808,151.84 C132.725338,151.84 133.455997,152.12533 134,152.696 C134.544003,153.26667 134.816,154.122661 134.816,155.264 L134.816,160 L133.568,160 L133.568,155.52 C133.568,154.687996 133.381335,154.064002 133.008,153.648 C132.634665,153.231998 132.128003,153.024 131.488,153.024 C130.730663,153.024 130.136002,153.282664 129.704,153.8 C129.271998,154.317336 129.056,155.007996 129.056,155.872 L129.056,160 Z M153.152,158.56 L152.96,158.56 C152.703999,159.072003 152.368002,159.477332 151.952,159.776 C151.535998,160.074668 151.008003,160.224 150.368,160.224 C149.930664,160.224 149.528002,160.152001 149.16,160.008 C148.791998,159.863999 148.477335,159.648001 148.216,159.36 C147.954665,159.071999 147.752001,158.714669 147.608,158.288 C147.463999,157.861331 147.392,157.365336 147.392,156.8 L147.392,152.064 L148.64,152.064 L148.64,156.64 C148.64,157.472004 148.810665,158.079998 149.152,158.464 C149.493335,158.848002 150.015996,159.04 150.72,159.04 C151.477337,159.04 152.071998,158.781336 152.504,158.264 C152.936002,157.746664 153.152,157.056004 153.152,156.192 L153.152,152.064 L154.4,152.064 L154.4,161.952 C154.4,162.314668 154.285334,162.613332 154.056,162.848 C153.826666,163.082668 153.530668,163.2 153.168,163.2 L148.64,163.2 L148.64,162.048 L152.72,162.048 C153.008001,162.048 153.152,161.888002 153.152,161.568 L153.152,158.56 Z M164.672,156.128 C164.672,156.789337 164.562668,157.373331 164.344,157.88 C164.125332,158.386669 163.834668,158.813332 163.472,159.16 C163.109332,159.506668 162.685336,159.770666 162.2,159.952 C161.714664,160.133334 161.210669,160.224 160.688,160.224 C160.154664,160.224 159.648002,160.133334 159.168,159.952 C158.687998,159.770666 158.266668,159.506668 157.904,159.16 C157.541332,158.813332 157.250668,158.386669 157.032,157.88 C156.813332,157.373331 156.704,156.789337 156.704,156.128 L156.704,155.936 C156.704,155.28533 156.813332,154.706669 157.032,154.2 C157.250668,153.693331 157.543998,153.264002 157.912,152.912 C158.280002,152.559998 158.703998,152.293334 159.184,152.112 C159.664002,151.930666 160.165331,151.84 160.688,151.84 C161.210669,151.84 161.711998,151.930666 162.192,152.112 C162.672002,152.293334 163.095998,152.559998 163.464,152.912 C163.832002,153.264002 164.125332,153.693331 164.344,154.2 C164.562668,154.706669 164.672,155.28533 164.672,155.936 L164.672,156.128 Z M160.688,159.04 C161.072002,159.04 161.426665,158.973334 161.752,158.84 C162.077335,158.706666 162.362665,158.512001 162.608,158.256 C162.853335,157.999999 163.045333,157.693335 163.184,157.336 C163.322667,156.978665 163.392,156.576002 163.392,156.128 L163.392,155.936 C163.392,155.509331 163.322667,155.117335 163.184,154.76 C163.045333,154.402665 162.853335,154.096001 162.608,153.84 C162.362665,153.583999 162.074668,153.384001 161.744,153.24 C161.413332,153.095999 161.061335,153.024 160.688,153.024 C160.314665,153.024 159.962668,153.095999 159.632,153.24 C159.301332,153.384001 159.013335,153.583999 158.768,153.84 C158.522665,154.096001 158.330667,154.402665 158.192,154.76 C158.053333,155.117335 157.984,155.509331 157.984,155.936 L157.984,156.128 C157.984,156.576002 158.053333,156.978665 158.192,157.336 C158.330667,157.693335 158.522665,157.999999 158.768,158.256 C159.013335,158.512001 159.298665,158.706666 159.624,158.84 C159.949335,158.973334 160.303998,159.04 160.688,159.04 Z M172.64,152.064 L173.888,152.064 L173.888,160 L172.64,160 L172.64,158.56 L172.448,158.56 C172.191999,159.072003 171.856002,159.477332 171.44,159.776 C171.023998,160.074668 170.496003,160.224 169.856,160.224 C169.418664,160.224 169.016002,160.152001 168.648,160.008 C168.279998,159.863999 167.965335,159.648001 167.704,159.36 C167.442665,159.071999 167.240001,158.714669 167.096,158.288 C166.951999,157.861331 166.88,157.365336 166.88,156.8 L166.88,152.064 L168.128,152.064 L168.128,156.64 C168.128,157.472004 168.298665,158.079998 168.64,158.464 C168.981335,158.848002 169.503996,159.04 170.208,159.04 C170.965337,159.04 171.559998,158.781336 171.992,158.264 C172.424002,157.746664 172.64,157.056004 172.64,156.192 L172.64,152.064 Z M176.32,152.064 L179.2,152.064 L179.2,153.12 L179.392,153.12 C179.594668,152.682664 179.882665,152.360001 180.256,152.152 C180.629335,151.943999 181.055998,151.84 181.536,151.84 C182.336004,151.84 182.981331,152.101331 183.472,152.624 C183.962669,153.146669 184.224,153.909328 184.256,154.912 L182.944,155.104 C182.944,154.367996 182.768002,153.837335 182.416,153.512 C182.063998,153.186665 181.632003,153.024 181.12,153.024 C180.789332,153.024 180.504001,153.087999 180.264,153.216 C180.023999,153.344001 179.824001,153.519999 179.664,153.744 C179.503999,153.968001 179.386667,154.229332 179.312,154.528 C179.237333,154.826668 179.2,155.146665 179.2,155.488 L179.2,158.848 L181.216,158.848 L181.216,160 L176.128,160 L176.128,158.848 L177.952,158.848 L177.952,153.216 L176.32,153.216 L176.32,152.064 Z M197.6,160 L196.352,160 L196.352,148.8 L197.6,148.8 L197.6,153.504 L197.792,153.504 C198.037335,152.991997 198.381331,152.586668 198.824,152.288 C199.266669,151.989332 199.807997,151.84 200.448,151.84 C201.312004,151.84 202.013331,152.12533 202.552,152.696 C203.090669,153.26667 203.36,154.122661 203.36,155.264 L203.36,160 L202.112,160 L202.112,155.52 C202.112,154.687996 201.925335,154.064002 201.552,153.648 C201.178665,153.231998 200.672003,153.024 200.032,153.024 C199.274663,153.024 198.680002,153.282664 198.248,153.8 C197.815998,154.317336 197.6,155.007996 197.6,155.872 L197.6,160 Z M207.056,156.416 C207.088,157.205337 207.333331,157.839998 207.792,158.32 C208.250669,158.800002 208.890663,159.04 209.712,159.04 C210.085335,159.04 210.410665,158.997334 210.688,158.912 C210.965335,158.826666 211.202666,158.709334 211.4,158.56 C211.597334,158.410666 211.757333,158.237334 211.88,158.04 C212.002667,157.842666 212.101333,157.632001 212.176,157.408 L213.36,157.728 C213.135999,158.464004 212.72267,159.063998 212.12,159.528 C211.51733,159.992002 210.704005,160.224 209.68,160.224 C209.114664,160.224 208.594669,160.125334 208.12,159.928 C207.645331,159.730666 207.237335,159.450668 206.896,159.088 C206.554665,158.725332 206.288001,158.293336 206.096,157.792 C205.903999,157.290664 205.808,156.736003 205.808,156.128 L205.808,155.744 C205.808,155.189331 205.906666,154.672002 206.104,154.192 C206.301334,153.711998 206.575998,153.298668 206.928,152.952 C207.280002,152.605332 207.693331,152.333334 208.168,152.136 C208.642669,151.938666 209.157331,151.84 209.712,151.84 C210.36267,151.84 210.925331,151.959999 211.4,152.2 C211.874669,152.440001 212.263998,152.735998 212.568,153.088 C212.872002,153.440002 213.095999,153.823998 213.24,154.24 C213.384001,154.656002 213.456,155.039998 213.456,155.392 L213.456,156.416 L207.056,156.416 Z M209.712,153.024 C209.359998,153.024 209.032002,153.079999 208.728,153.192 C208.423998,153.304001 208.157334,153.461332 207.928,153.664 C207.698666,153.866668 207.512001,154.103999 207.368,154.376 C207.223999,154.648001 207.130667,154.943998 207.088,155.264 L212.208,155.264 C212.186667,154.922665 212.104001,154.613335 211.96,154.336 C211.815999,154.058665 211.629334,153.824001 211.4,153.632 C211.170666,153.439999 210.909335,153.290667 210.616,153.184 C210.322665,153.077333 210.021335,153.024 209.712,153.024 Z M221.696,158.656 L221.504,158.656 C221.247999,159.189336 220.893336,159.583999 220.44,159.84 C219.986664,160.096001 219.509336,160.224 219.008,160.224 C218.485331,160.224 218.000002,160.136001 217.552,159.96 C217.103998,159.783999 216.712002,159.522668 216.376,159.176 C216.039998,158.829332 215.776001,158.405336 215.584,157.904 C215.391999,157.402664 215.296,156.821337 215.296,156.16 L215.296,155.904 C215.296,155.25333 215.391999,154.677336 215.584,154.176 C215.776001,153.674664 216.039998,153.250668 216.376,152.904 C216.712002,152.557332 217.103998,152.293334 217.552,152.112 C218.000002,151.930666 218.474664,151.84 218.976,151.84 C219.520003,151.84 220.013331,151.959999 220.456,152.2 C220.898669,152.440001 221.247999,152.810664 221.504,153.312 L221.696,153.312 L221.696,152.064 L222.944,152.064 L222.944,158.368 C222.944,158.688002 223.087999,158.848 223.376,158.848 L223.776,158.848 L223.776,160 L222.928,160 C222.565332,160 222.269334,159.882668 222.04,159.648 C221.810666,159.413332 221.696,159.114668 221.696,158.752 L221.696,158.656 Z M219.136,159.04 C219.509335,159.04 219.853332,158.970667 220.168,158.832 C220.482668,158.693333 220.751999,158.496001 220.976,158.24 C221.200001,157.983999 221.375999,157.677335 221.504,157.32 C221.632001,156.962665 221.696,156.565336 221.696,156.128 L221.696,155.936 C221.696,155.509331 221.632001,155.117335 221.504,154.76 C221.375999,154.402665 221.197334,154.096001 220.968,153.84 C220.738666,153.583999 220.466668,153.384001 220.152,153.24 C219.837332,153.095999 219.498668,153.024 219.136,153.024 C218.762665,153.024 218.421335,153.093333 218.112,153.232 C217.802665,153.370667 217.533334,153.565332 217.304,153.816 C217.074666,154.066668 216.896001,154.370665 216.768,154.728 C216.639999,155.085335 216.576,155.477331 216.576,155.904 L216.576,156.16 C216.576,157.066671 216.813331,157.773331 217.288,158.28 C217.762669,158.786669 218.378663,159.04 219.136,159.04 Z M231.872,158.784 L231.68,158.784 C231.551999,159.029335 231.389334,159.242666 231.192,159.424 C230.994666,159.605334 230.781334,159.754666 230.552,159.872 C230.322666,159.989334 230.080001,160.077333 229.824,160.136 C229.567999,160.194667 229.322668,160.224 229.088,160.224 C228.554664,160.224 228.058669,160.133334 227.6,159.952 C227.141331,159.770666 226.738668,159.509335 226.392,159.168 C226.045332,158.826665 225.773334,158.402669 225.576,157.896 C225.378666,157.389331 225.28,156.81067 225.28,156.16 L225.28,155.904 C225.28,155.263997 225.381332,154.690669 225.584,154.184 C225.786668,153.677331 226.058665,153.250668 226.4,152.904 C226.741335,152.557332 227.141331,152.293334 227.6,152.112 C228.058669,151.930666 228.543997,151.84 229.056,151.84 C229.600003,151.84 230.109331,151.959999 230.584,152.2 C231.058669,152.440001 231.423999,152.810664 231.68,153.312 L231.872,153.312 L231.872,148.8 L233.12,148.8 L233.12,160 L231.872,160 L231.872,158.784 Z M229.216,159.04 C229.589335,159.04 229.935998,158.970667 230.256,158.832 C230.576002,158.693333 230.855999,158.496001 231.096,158.24 C231.336001,157.983999 231.525333,157.677335 231.664,157.32 C231.802667,156.962665 231.872,156.565336 231.872,156.128 L231.872,155.936 C231.872,155.509331 231.802667,155.117335 231.664,154.76 C231.525333,154.402665 231.336001,154.096001 231.096,153.84 C230.855999,153.583999 230.573335,153.384001 230.248,153.24 C229.922665,153.095999 229.578668,153.024 229.216,153.024 C228.842665,153.024 228.493335,153.093333 228.168,153.232 C227.842665,153.370667 227.560001,153.567999 227.32,153.824 C227.079999,154.080001 226.893334,154.383998 226.76,154.736 C226.626666,155.088002 226.56,155.477331 226.56,155.904 L226.56,156.16 C226.56,156.608002 226.626666,157.007998 226.76,157.36 C226.893334,157.712002 227.079999,158.013332 227.32,158.264 C227.560001,158.514668 227.839998,158.706666 228.16,158.84 C228.480002,158.973334 228.831998,159.04 229.216,159.04 Z M236.48,163.2 L235.232,163.2 L235.232,152.064 L236.48,152.064 L236.48,153.312 L236.672,153.312 C236.949335,152.831998 237.333331,152.466668 237.824,152.216 C238.314669,151.965332 238.847997,151.84 239.424,151.84 C239.914669,151.84 240.378664,151.930666 240.816,152.112 C241.253336,152.293334 241.639998,152.554665 241.976,152.896 C242.312002,153.237335 242.578666,153.658664 242.776,154.16 C242.973334,154.661336 243.072,155.231997 243.072,155.872 L243.072,156.192 C243.072,156.84267 242.976001,157.418664 242.784,157.92 C242.591999,158.421336 242.328002,158.842665 241.992,159.184 C241.655998,159.525335 241.264002,159.783999 240.816,159.96 C240.367998,160.136001 239.893336,160.224 239.392,160.224 C239.135999,160.224 238.874668,160.194667 238.608,160.136 C238.341332,160.077333 238.088001,159.986667 237.848,159.864 C237.607999,159.741333 237.386668,159.592001 237.184,159.416 C236.981332,159.239999 236.810667,159.029335 236.672,158.784 L236.48,158.784 L236.48,163.2 Z M239.136,159.04 C239.520002,159.04 239.871998,158.973334 240.192,158.84 C240.512002,158.706666 240.791999,158.517335 241.032,158.272 C241.272001,158.026665 241.458666,157.728002 241.592,157.376 C241.725334,157.023998 241.792,156.629336 241.792,156.192 L241.792,155.872 C241.792,155.445331 241.725334,155.058668 241.592,154.712 C241.458666,154.365332 241.272001,154.066668 241.032,153.816 C240.791999,153.565332 240.509335,153.370667 240.184,153.232 C239.858665,153.093333 239.509335,153.024 239.136,153.024 C238.762665,153.024 238.416002,153.095999 238.096,153.24 C237.775998,153.384001 237.496001,153.583999 237.256,153.84 C237.015999,154.096001 236.826667,154.402665 236.688,154.76 C236.549333,155.117335 236.48,155.509331 236.48,155.936 L236.48,156.128 C236.48,156.565336 236.549333,156.962665 236.688,157.32 C236.826667,157.677335 237.015999,157.983999 237.256,158.24 C237.496001,158.496001 237.775998,158.693333 238.096,158.832 C238.416002,158.970667 238.762665,159.04 239.136,159.04 Z M246.56,160 L245.312,160 L245.312,148.8 L246.56,148.8 L246.56,153.504 L246.752,153.504 C246.997335,152.991997 247.341331,152.586668 247.784,152.288 C248.226669,151.989332 248.767997,151.84 249.408,151.84 C250.272004,151.84 250.973331,152.12533 251.512,152.696 C252.050669,153.26667 252.32,154.122661 252.32,155.264 L252.32,160 L251.072,160 L251.072,155.52 C251.072,154.687996 250.885335,154.064002 250.512,153.648 C250.138665,153.231998 249.632003,153.024 248.992,153.024 C248.234663,153.024 247.640002,153.282664 247.208,153.8 C246.775998,154.317336 246.56,155.007996 246.56,155.872 L246.56,160 Z M262.592,156.128 C262.592,156.789337 262.482668,157.373331 262.264,157.88 C262.045332,158.386669 261.754668,158.813332 261.392,159.16 C261.029332,159.506668 260.605336,159.770666 260.12,159.952 C259.634664,160.133334 259.130669,160.224 258.608,160.224 C258.074664,160.224 257.568002,160.133334 257.088,159.952 C256.607998,159.770666 256.186668,159.506668 255.824,159.16 C255.461332,158.813332 255.170668,158.386669 254.952,157.88 C254.733332,157.373331 254.624,156.789337 254.624,156.128 L254.624,155.936 C254.624,155.28533 254.733332,154.706669 254.952,154.2 C255.170668,153.693331 255.463998,153.264002 255.832,152.912 C256.200002,152.559998 256.623998,152.293334 257.104,152.112 C257.584002,151.930666 258.085331,151.84 258.608,151.84 C259.130669,151.84 259.631998,151.930666 260.112,152.112 C260.592002,152.293334 261.015998,152.559998 261.384,152.912 C261.752002,153.264002 262.045332,153.693331 262.264,154.2 C262.482668,154.706669 262.592,155.28533 262.592,155.936 L262.592,156.128 Z M258.608,159.04 C258.992002,159.04 259.346665,158.973334 259.672,158.84 C259.997335,158.706666 260.282665,158.512001 260.528,158.256 C260.773335,157.999999 260.965333,157.693335 261.104,157.336 C261.242667,156.978665 261.312,156.576002 261.312,156.128 L261.312,155.936 C261.312,155.509331 261.242667,155.117335 261.104,154.76 C260.965333,154.402665 260.773335,154.096001 260.528,153.84 C260.282665,153.583999 259.994668,153.384001 259.664,153.24 C259.333332,153.095999 258.981335,153.024 258.608,153.024 C258.234665,153.024 257.882668,153.095999 257.552,153.24 C257.221332,153.384001 256.933335,153.583999 256.688,153.84 C256.442665,154.096001 256.250667,154.402665 256.112,154.76 C255.973333,155.117335 255.904,155.509331 255.904,155.936 L255.904,156.128 C255.904,156.576002 255.973333,156.978665 256.112,157.336 C256.250667,157.693335 256.442665,157.999999 256.688,158.256 C256.933335,158.512001 257.218665,158.706666 257.544,158.84 C257.869335,158.973334 258.223998,159.04 258.608,159.04 Z M266.144,160 L264.896,160 L264.896,152.064 L266.144,152.064 L266.144,153.408 L266.336,153.408 C266.826669,152.362661 267.679994,151.84 268.896,151.84 C269.813338,151.84 270.543997,152.12533 271.088,152.696 C271.632003,153.26667 271.904,154.122661 271.904,155.264 L271.904,160 L270.656,160 L270.656,155.52 C270.656,154.687996 270.469335,154.064002 270.096,153.648 C269.722665,153.231998 269.216003,153.024 268.576,153.024 C267.818663,153.024 267.224002,153.282664 266.792,153.8 C266.359998,154.317336 266.144,155.007996 266.144,155.872 L266.144,160 Z M275.6,156.416 C275.632,157.205337 275.877331,157.839998 276.336,158.32 C276.794669,158.800002 277.434663,159.04 278.256,159.04 C278.629335,159.04 278.954665,158.997334 279.232,158.912 C279.509335,158.826666 279.746666,158.709334 279.944,158.56 C280.141334,158.410666 280.301333,158.237334 280.424,158.04 C280.546667,157.842666 280.645333,157.632001 280.72,157.408 L281.904,157.728 C281.679999,158.464004 281.26667,159.063998 280.664,159.528 C280.06133,159.992002 279.248005,160.224 278.224,160.224 C277.658664,160.224 277.138669,160.125334 276.664,159.928 C276.189331,159.730666 275.781335,159.450668 275.44,159.088 C275.098665,158.725332 274.832001,158.293336 274.64,157.792 C274.447999,157.290664 274.352,156.736003 274.352,156.128 L274.352,155.744 C274.352,155.189331 274.450666,154.672002 274.648,154.192 C274.845334,153.711998 275.119998,153.298668 275.472,152.952 C275.824002,152.605332 276.237331,152.333334 276.712,152.136 C277.186669,151.938666 277.701331,151.84 278.256,151.84 C278.90667,151.84 279.469331,151.959999 279.944,152.2 C280.418669,152.440001 280.807998,152.735998 281.112,153.088 C281.416002,153.440002 281.639999,153.823998 281.784,154.24 C281.928001,154.656002 282,155.039998 282,155.392 L282,156.416 L275.6,156.416 Z M278.256,153.024 C277.903998,153.024 277.576002,153.079999 277.272,153.192 C276.967998,153.304001 276.701334,153.461332 276.472,153.664 C276.242666,153.866668 276.056001,154.103999 275.912,154.376 C275.767999,154.648001 275.674667,154.943998 275.632,155.264 L280.752,155.264 C280.730667,154.922665 280.648001,154.613335 280.504,154.336 C280.359999,154.058665 280.173334,153.824001 279.944,153.632 C279.714666,153.439999 279.453335,153.290667 279.16,153.184 C278.866665,153.077333 278.565335,153.024 278.256,153.024 Z M286.128,154.112 C286.128,154.496002 286.290665,154.789332 286.616,154.992 C286.941335,155.194668 287.535996,155.328 288.4,155.392 C289.328005,155.466667 290.034664,155.687998 290.52,156.056 C291.005336,156.424002 291.248,156.959996 291.248,157.664 L291.248,157.76 C291.248,158.144002 291.170667,158.487998 291.016,158.792 C290.861333,159.096002 290.648001,159.354666 290.376,159.568 C290.103999,159.781334 289.773335,159.943999 289.384,160.056 C288.994665,160.168001 288.570669,160.224 288.112,160.224 C287.49333,160.224 286.962669,160.141334 286.52,159.976 C286.077331,159.810666 285.709335,159.592001 285.416,159.32 C285.122665,159.047999 284.901334,158.738668 284.752,158.392 C284.602666,158.045332 284.517333,157.696002 284.496,157.344 L285.68,157.056 C285.733334,157.664003 285.967998,158.151998 286.384,158.52 C286.800002,158.888002 287.354663,159.072 288.048,159.072 C288.63467,159.072 289.106665,158.957334 289.464,158.728 C289.821335,158.498666 290,158.176002 290,157.76 C290,157.311998 289.824002,156.992001 289.472,156.8 C289.119998,156.607999 288.549337,156.485334 287.76,156.432 C286.842662,156.368 286.138669,156.154668 285.648,155.792 C285.157331,155.429332 284.912,154.901337 284.912,154.208 L284.912,154.112 C284.912,153.738665 284.991999,153.410668 285.152,153.128 C285.312001,152.845332 285.527999,152.608001 285.8,152.416 C286.072001,152.223999 286.378665,152.08 286.72,151.984 C287.061335,151.888 287.418665,151.84 287.792,151.84 C288.314669,151.84 288.773331,151.911999 289.168,152.056 C289.562669,152.200001 289.893332,152.386666 290.16,152.616 C290.426668,152.845334 290.631999,153.109332 290.776,153.408 C290.920001,153.706668 291.013333,154.005332 291.056,154.304 L289.872,154.592 C289.818666,154.079997 289.613335,153.680001 289.256,153.392 C288.898665,153.103999 288.432003,152.96 287.856,152.96 C287.631999,152.96 287.416001,152.984 287.208,153.032 C286.999999,153.08 286.816001,153.152 286.656,153.248 C286.495999,153.344 286.368,153.463999 286.272,153.608 C286.176,153.752001 286.128,153.919999 286.128,154.112 Z M30.752,178.656 L30.56,178.656 C30.3039987,179.189336 29.9493356,179.583999 29.496,179.84 C29.0426644,180.096001 28.5653358,180.224 28.064,180.224 C27.5413307,180.224 27.0560022,180.136001 26.608,179.96 C26.1599978,179.783999 25.7680017,179.522668 25.432,179.176 C25.0959983,178.829332 24.832001,178.405336 24.64,177.904 C24.447999,177.402664 24.352,176.821337 24.352,176.16 L24.352,175.904 C24.352,175.25333 24.447999,174.677336 24.64,174.176 C24.832001,173.674664 25.0959983,173.250668 25.432,172.904 C25.7680017,172.557332 26.1599978,172.293334 26.608,172.112 C27.0560022,171.930666 27.5306642,171.84 28.032,171.84 C28.5760027,171.84 29.0693311,171.959999 29.512,172.2 C29.9546689,172.440001 30.3039987,172.810664 30.56,173.312 L30.752,173.312 L30.752,172.064 L32,172.064 L32,178.368 C32,178.688002 32.1439986,178.848 32.432,178.848 L32.832,178.848 L32.832,180 L31.984,180 C31.6213315,180 31.3253345,179.882668 31.096,179.648 C30.8666655,179.413332 30.752,179.114668 30.752,178.752 L30.752,178.656 Z M28.192,179.04 C28.5653352,179.04 28.9093318,178.970667 29.224,178.832 C29.5386682,178.693333 29.8079989,178.496001 30.032,178.24 C30.2560011,177.983999 30.4319994,177.677335 30.56,177.32 C30.6880006,176.962665 30.752,176.565336 30.752,176.128 L30.752,175.936 C30.752,175.509331 30.6880006,175.117335 30.56,174.76 C30.4319994,174.402665 30.2533345,174.096001 30.024,173.84 C29.7946655,173.583999 29.5226682,173.384001 29.208,173.24 C28.8933318,173.095999 28.5546685,173.024 28.192,173.024 C27.8186648,173.024 27.4773349,173.093333 27.168,173.232 C26.8586651,173.370667 26.5893345,173.565332 26.36,173.816 C26.1306655,174.066668 25.9520006,174.370665 25.824,174.728 C25.6959994,175.085335 25.632,175.477331 25.632,175.904 L25.632,176.16 C25.632,177.066671 25.869331,177.773331 26.344,178.28 C26.818669,178.786669 27.4346629,179.04 28.192,179.04 Z M36.032,180 L34.784,180 L34.784,172.064 L36.032,172.064 L36.032,173.408 L36.224,173.408 C36.7146691,172.362661 37.5679939,171.84 38.784,171.84 C39.7013379,171.84 40.4319973,172.12533 40.976,172.696 C41.5200027,173.26667 41.792,174.122661 41.792,175.264 L41.792,180 L40.544,180 L40.544,175.52 C40.544,174.687996 40.3573352,174.064002 39.984,173.648 C39.6106648,173.231998 39.1040032,173.024 38.464,173.024 C37.7066629,173.024 37.1120022,173.282664 36.68,173.8 C36.2479978,174.317336 36.032,175.007996 36.032,175.872 L36.032,180 Z M50.72,178.784 L50.528,178.784 C50.3999994,179.029335 50.2373343,179.242666 50.04,179.424 C49.8426657,179.605334 49.6293345,179.754666 49.4,179.872 C49.1706655,179.989334 48.9280013,180.077333 48.672,180.136 C48.4159987,180.194667 48.1706678,180.224 47.936,180.224 C47.402664,180.224 46.906669,180.133334 46.448,179.952 C45.989331,179.770666 45.5866684,179.509335 45.24,179.168 C44.8933316,178.826665 44.6213343,178.402669 44.424,177.896 C44.2266657,177.389331 44.128,176.81067 44.128,176.16 L44.128,175.904 C44.128,175.263997 44.2293323,174.690669 44.432,174.184 C44.6346677,173.677331 44.906665,173.250668 45.248,172.904 C45.589335,172.557332 45.989331,172.293334 46.448,172.112 C46.906669,171.930666 47.3919974,171.84 47.904,171.84 C48.4480027,171.84 48.957331,171.959999 49.432,172.2 C49.906669,172.440001 50.2719987,172.810664 50.528,173.312 L50.72,173.312 L50.72,168.8 L51.968,168.8 L51.968,180 L50.72,180 L50.72,178.784 Z M48.064,179.04 C48.4373352,179.04 48.7839984,178.970667 49.104,178.832 C49.4240016,178.693333 49.7039988,178.496001 49.944,178.24 C50.1840012,177.983999 50.3733326,177.677335 50.512,177.32 C50.6506674,176.962665 50.72,176.565336 50.72,176.128 L50.72,175.936 C50.72,175.509331 50.6506674,175.117335 50.512,174.76 C50.3733326,174.402665 50.1840012,174.096001 49.944,173.84 C49.7039988,173.583999 49.421335,173.384001 49.096,173.24 C48.770665,173.095999 48.4266685,173.024 48.064,173.024 C47.6906648,173.024 47.341335,173.093333 47.016,173.232 C46.690665,173.370667 46.4080012,173.567999 46.168,173.824 C45.9279988,174.080001 45.741334,174.383998 45.608,174.736 C45.474666,175.088002 45.408,175.477331 45.408,175.904 L45.408,176.16 C45.408,176.608002 45.474666,177.007998 45.608,177.36 C45.741334,177.712002 45.9279988,178.013332 46.168,178.264 C46.4080012,178.514668 46.6879984,178.706666 47.008,178.84 C47.3280016,178.973334 47.6799981,179.04 48.064,179.04 Z M71.584,177.184 C71.4986662,177.621336 71.352001,178.026665 71.144,178.4 C70.935999,178.773335 70.6720016,179.095999 70.352,179.368 C70.0319984,179.640001 69.6586688,179.850666 69.232,180 C68.8053312,180.149334 68.3306693,180.224 67.808,180.224 C67.2533306,180.224 66.7280025,180.133334 66.232,179.952 C65.7359975,179.770666 65.3013352,179.506668 64.928,179.16 C64.5546648,178.813332 64.2586678,178.389336 64.04,177.888 C63.8213322,177.386664 63.712,176.81067 63.712,176.16 L63.712,175.968 C63.712,175.327997 63.8213322,174.752003 64.04,174.24 C64.2586678,173.727997 64.5546648,173.296002 64.928,172.944 C65.3013352,172.591998 65.7359975,172.320001 66.232,172.128 C66.7280025,171.935999 67.2533306,171.84 67.808,171.84 C68.3093358,171.84 68.7733312,171.914666 69.2,172.064 C69.6266688,172.213334 70.002665,172.423999 70.328,172.696 C70.653335,172.968001 70.919999,173.290665 71.128,173.664 C71.336001,174.037335 71.477333,174.442664 71.552,174.88 L70.304,175.168 C70.2719998,174.890665 70.1946673,174.621335 70.072,174.36 C69.9493327,174.098665 69.784001,173.869334 69.576,173.672 C69.367999,173.474666 69.1146682,173.317334 68.816,173.2 C68.5173318,173.082666 68.1706686,173.024 67.776,173.024 C67.3919981,173.024 67.0320017,173.095999 66.696,173.24 C66.3599983,173.384001 66.0640013,173.586665 65.808,173.848 C65.5519987,174.109335 65.3520007,174.421332 65.208,174.784 C65.0639993,175.146668 64.992,175.541331 64.992,175.968 L64.992,176.16 C64.992,176.608002 65.0639993,177.010665 65.208,177.368 C65.3520007,177.725335 65.5519987,178.026665 65.808,178.272 C66.0640013,178.517335 66.362665,178.706666 66.704,178.84 C67.045335,178.973334 67.4133314,179.04 67.808,179.04 C68.2026686,179.04 68.5466652,178.978667 68.84,178.856 C69.1333348,178.733333 69.383999,178.573334 69.592,178.376 C69.800001,178.178666 69.9653327,177.952001 70.088,177.696 C70.2106673,177.439999 70.2933331,177.173335 70.336,176.896 L71.584,177.184 Z M73.952,178.848 L76.832,178.848 L76.832,169.952 L74.048,169.952 L74.048,168.8 L78.08,168.8 L78.08,178.848 L80.96,178.848 L80.96,180 L73.952,180 L73.952,178.848 Z M86.208,169.696 C86.208,169.386665 86.3173322,169.122668 86.536,168.904 C86.7546678,168.685332 87.0186651,168.576 87.328,168.576 C87.6373349,168.576 87.9013322,168.685332 88.12,168.904 C88.3386678,169.122668 88.448,169.386665 88.448,169.696 C88.448,170.005335 88.3386678,170.269332 88.12,170.488 C87.9013322,170.706668 87.6373349,170.816 87.328,170.816 C87.0186651,170.816 86.7546678,170.706668 86.536,170.488 C86.3173322,170.269332 86.208,170.005335 86.208,169.696 Z M83.936,178.848 L86.72,178.848 L86.72,173.216 L84.224,173.216 L84.224,172.064 L87.968,172.064 L87.968,178.848 L90.56,178.848 L90.56,180 L83.936,180 L83.936,178.848 Z M100.96,177.184 C100.874666,177.621336 100.728001,178.026665 100.52,178.4 C100.311999,178.773335 100.048002,179.095999 99.728,179.368 C99.4079984,179.640001 99.0346688,179.850666 98.608,180 C98.1813312,180.149334 97.7066693,180.224 97.184,180.224 C96.6293306,180.224 96.1040025,180.133334 95.608,179.952 C95.1119975,179.770666 94.6773352,179.506668 94.304,179.16 C93.9306648,178.813332 93.6346678,178.389336 93.416,177.888 C93.1973322,177.386664 93.088,176.81067 93.088,176.16 L93.088,175.968 C93.088,175.327997 93.1973322,174.752003 93.416,174.24 C93.6346678,173.727997 93.9306648,173.296002 94.304,172.944 C94.6773352,172.591998 95.1119975,172.320001 95.608,172.128 C96.1040025,171.935999 96.6293306,171.84 97.184,171.84 C97.6853358,171.84 98.1493312,171.914666 98.576,172.064 C99.0026688,172.213334 99.378665,172.423999 99.704,172.696 C100.029335,172.968001 100.295999,173.290665 100.504,173.664 C100.712001,174.037335 100.853333,174.442664 100.928,174.88 L99.68,175.168 C99.6479998,174.890665 99.5706673,174.621335 99.448,174.36 C99.3253327,174.098665 99.160001,173.869334 98.952,173.672 C98.743999,173.474666 98.4906682,173.317334 98.192,173.2 C97.8933318,173.082666 97.5466686,173.024 97.152,173.024 C96.7679981,173.024 96.4080017,173.095999 96.072,173.24 C95.7359983,173.384001 95.4400013,173.586665 95.184,173.848 C94.9279987,174.109335 94.7280007,174.421332 94.584,174.784 C94.4399993,175.146668 94.368,175.541331 94.368,175.968 L94.368,176.16 C94.368,176.608002 94.4399993,177.010665 94.584,177.368 C94.7280007,177.725335 94.9279987,178.026665 95.184,178.272 C95.4400013,178.517335 95.738665,178.706666 96.08,178.84 C96.421335,178.973334 96.7893314,179.04 97.184,179.04 C97.5786686,179.04 97.9226652,178.978667 98.216,178.856 C98.5093348,178.733333 98.759999,178.573334 98.968,178.376 C99.176001,178.178666 99.3413327,177.952001 99.464,177.696 C99.5866673,177.439999 99.6693331,177.173335 99.712,176.896 L100.96,177.184 Z M105.376,175.36 L105.648,175.36 L108.672,172.064 L110.208,172.064 L110.208,172.16 L106.912,175.792 L106.912,176.08 L110.592,179.904 L110.592,180 L109.056,180 L105.68,176.512 L105.376,176.512 L105.376,180 L104.128,180 L104.128,168.8 L105.376,168.8 L105.376,175.36 Z M130.4,176.128 C130.4,176.789337 130.290668,177.373331 130.072,177.88 C129.853332,178.386669 129.562668,178.813332 129.2,179.16 C128.837332,179.506668 128.413336,179.770666 127.928,179.952 C127.442664,180.133334 126.938669,180.224 126.416,180.224 C125.882664,180.224 125.376002,180.133334 124.896,179.952 C124.415998,179.770666 123.994668,179.506668 123.632,179.16 C123.269332,178.813332 122.978668,178.386669 122.76,177.88 C122.541332,177.373331 122.432,176.789337 122.432,176.128 L122.432,175.936 C122.432,175.28533 122.541332,174.706669 122.76,174.2 C122.978668,173.693331 123.271998,173.264002 123.64,172.912 C124.008002,172.559998 124.431998,172.293334 124.912,172.112 C125.392002,171.930666 125.893331,171.84 126.416,171.84 C126.938669,171.84 127.439998,171.930666 127.92,172.112 C128.400002,172.293334 128.823998,172.559998 129.192,172.912 C129.560002,173.264002 129.853332,173.693331 130.072,174.2 C130.290668,174.706669 130.4,175.28533 130.4,175.936 L130.4,176.128 Z M126.416,179.04 C126.800002,179.04 127.154665,178.973334 127.48,178.84 C127.805335,178.706666 128.090665,178.512001 128.336,178.256 C128.581335,177.999999 128.773333,177.693335 128.912,177.336 C129.050667,176.978665 129.12,176.576002 129.12,176.128 L129.12,175.936 C129.12,175.509331 129.050667,175.117335 128.912,174.76 C128.773333,174.402665 128.581335,174.096001 128.336,173.84 C128.090665,173.583999 127.802668,173.384001 127.472,173.24 C127.141332,173.095999 126.789335,173.024 126.416,173.024 C126.042665,173.024 125.690668,173.095999 125.36,173.24 C125.029332,173.384001 124.741335,173.583999 124.496,173.84 C124.250665,174.096001 124.058667,174.402665 123.92,174.76 C123.781333,175.117335 123.712,175.509331 123.712,175.936 L123.712,176.128 C123.712,176.576002 123.781333,176.978665 123.92,177.336 C124.058667,177.693335 124.250665,177.999999 124.496,178.256 C124.741335,178.512001 125.026665,178.706666 125.352,178.84 C125.677335,178.973334 126.031998,179.04 126.416,179.04 Z M132.256,172.064 L135.136,172.064 L135.136,173.12 L135.328,173.12 C135.530668,172.682664 135.818665,172.360001 136.192,172.152 C136.565335,171.943999 136.991998,171.84 137.472,171.84 C138.272004,171.84 138.917331,172.101331 139.408,172.624 C139.898669,173.146669 140.16,173.909328 140.192,174.912 L138.88,175.104 C138.88,174.367996 138.704002,173.837335 138.352,173.512 C137.999998,173.186665 137.568003,173.024 137.056,173.024 C136.725332,173.024 136.440001,173.087999 136.2,173.216 C135.959999,173.344001 135.760001,173.519999 135.6,173.744 C135.439999,173.968001 135.322667,174.229332 135.248,174.528 C135.173333,174.826668 135.136,175.146665 135.136,175.488 L135.136,178.848 L137.152,178.848 L137.152,180 L132.064,180 L132.064,178.848 L133.888,178.848 L133.888,173.216 L132.256,173.216 L132.256,172.064 Z M152.016,172.064 L154.512,172.064 L154.512,168.8 L155.76,168.8 L155.76,172.064 L158.832,172.064 L158.832,173.216 L155.76,173.216 L155.76,178.368 C155.76,178.688002 155.903999,178.848 156.192,178.848 L158.448,178.848 L158.448,180 L155.744,180 C155.381332,180 155.085334,179.882668 154.856,179.648 C154.626666,179.413332 154.512,179.114668 154.512,178.752 L154.512,173.216 L152.016,173.216 L152.016,172.064 Z M167.84,178.656 L167.648,178.656 C167.391999,179.189336 167.037336,179.583999 166.584,179.84 C166.130664,180.096001 165.653336,180.224 165.152,180.224 C164.629331,180.224 164.144002,180.136001 163.696,179.96 C163.247998,179.783999 162.856002,179.522668 162.52,179.176 C162.183998,178.829332 161.920001,178.405336 161.728,177.904 C161.535999,177.402664 161.44,176.821337 161.44,176.16 L161.44,175.904 C161.44,175.25333 161.535999,174.677336 161.728,174.176 C161.920001,173.674664 162.183998,173.250668 162.52,172.904 C162.856002,172.557332 163.247998,172.293334 163.696,172.112 C164.144002,171.930666 164.618664,171.84 165.12,171.84 C165.664003,171.84 166.157331,171.959999 166.6,172.2 C167.042669,172.440001 167.391999,172.810664 167.648,173.312 L167.84,173.312 L167.84,172.064 L169.088,172.064 L169.088,178.368 C169.088,178.688002 169.231999,178.848 169.52,178.848 L169.92,178.848 L169.92,180 L169.072,180 C168.709332,180 168.413334,179.882668 168.184,179.648 C167.954666,179.413332 167.84,179.114668 167.84,178.752 L167.84,178.656 Z M165.28,179.04 C165.653335,179.04 165.997332,178.970667 166.312,178.832 C166.626668,178.693333 166.895999,178.496001 167.12,178.24 C167.344001,177.983999 167.519999,177.677335 167.648,177.32 C167.776001,176.962665 167.84,176.565336 167.84,176.128 L167.84,175.936 C167.84,175.509331 167.776001,175.117335 167.648,174.76 C167.519999,174.402665 167.341334,174.096001 167.112,173.84 C166.882666,173.583999 166.610668,173.384001 166.296,173.24 C165.981332,173.095999 165.642668,173.024 165.28,173.024 C164.906665,173.024 164.565335,173.093333 164.256,173.232 C163.946665,173.370667 163.677334,173.565332 163.448,173.816 C163.218666,174.066668 163.040001,174.370665 162.912,174.728 C162.783999,175.085335 162.72,175.477331 162.72,175.904 L162.72,176.16 C162.72,177.066671 162.957331,177.773331 163.432,178.28 C163.906669,178.786669 164.522663,179.04 165.28,179.04 Z M172.832,183.2 L171.584,183.2 L171.584,172.064 L172.832,172.064 L172.832,173.312 L173.024,173.312 C173.301335,172.831998 173.685331,172.466668 174.176,172.216 C174.666669,171.965332 175.199997,171.84 175.776,171.84 C176.266669,171.84 176.730664,171.930666 177.168,172.112 C177.605336,172.293334 177.991998,172.554665 178.328,172.896 C178.664002,173.237335 178.930666,173.658664 179.128,174.16 C179.325334,174.661336 179.424,175.231997 179.424,175.872 L179.424,176.192 C179.424,176.84267 179.328001,177.418664 179.136,177.92 C178.943999,178.421336 178.680002,178.842665 178.344,179.184 C178.007998,179.525335 177.616002,179.783999 177.168,179.96 C176.719998,180.136001 176.245336,180.224 175.744,180.224 C175.487999,180.224 175.226668,180.194667 174.96,180.136 C174.693332,180.077333 174.440001,179.986667 174.2,179.864 C173.959999,179.741333 173.738668,179.592001 173.536,179.416 C173.333332,179.239999 173.162667,179.029335 173.024,178.784 L172.832,178.784 L172.832,183.2 Z M175.488,179.04 C175.872002,179.04 176.223998,178.973334 176.544,178.84 C176.864002,178.706666 177.143999,178.517335 177.384,178.272 C177.624001,178.026665 177.810666,177.728002 177.944,177.376 C178.077334,177.023998 178.144,176.629336 178.144,176.192 L178.144,175.872 C178.144,175.445331 178.077334,175.058668 177.944,174.712 C177.810666,174.365332 177.624001,174.066668 177.384,173.816 C177.143999,173.565332 176.861335,173.370667 176.536,173.232 C176.210665,173.093333 175.861335,173.024 175.488,173.024 C175.114665,173.024 174.768002,173.095999 174.448,173.24 C174.127998,173.384001 173.848001,173.583999 173.608,173.84 C173.367999,174.096001 173.178667,174.402665 173.04,174.76 C172.901333,175.117335 172.832,175.509331 172.832,175.936 L172.832,176.128 C172.832,176.565336 172.901333,176.962665 173.04,177.32 C173.178667,177.677335 173.367999,177.983999 173.608,178.24 C173.848001,178.496001 174.127998,178.693333 174.448,178.832 C174.768002,178.970667 175.114665,179.04 175.488,179.04 Z M191.184,172.064 L193.68,172.064 L193.68,168.8 L194.928,168.8 L194.928,172.064 L198,172.064 L198,173.216 L194.928,173.216 L194.928,178.368 C194.928,178.688002 195.071999,178.848 195.36,178.848 L197.616,178.848 L197.616,180 L194.912,180 C194.549332,180 194.253334,179.882668 194.024,179.648 C193.794666,179.413332 193.68,179.114668 193.68,178.752 L193.68,173.216 L191.184,173.216 L191.184,172.064 Z M202.496,180 L201.248,180 L201.248,168.8 L202.496,168.8 L202.496,173.504 L202.688,173.504 C202.933335,172.991997 203.277331,172.586668 203.72,172.288 C204.162669,171.989332 204.703997,171.84 205.344,171.84 C206.208004,171.84 206.909331,172.12533 207.448,172.696 C207.986669,173.26667 208.256,174.122661 208.256,175.264 L208.256,180 L207.008,180 L207.008,175.52 C207.008,174.687996 206.821335,174.064002 206.448,173.648 C206.074665,173.231998 205.568003,173.024 204.928,173.024 C204.170663,173.024 203.576002,173.282664 203.144,173.8 C202.711998,174.317336 202.496,175.007996 202.496,175.872 L202.496,180 Z M211.952,176.416 C211.984,177.205337 212.229331,177.839998 212.688,178.32 C213.146669,178.800002 213.786663,179.04 214.608,179.04 C214.981335,179.04 215.306665,178.997334 215.584,178.912 C215.861335,178.826666 216.098666,178.709334 216.296,178.56 C216.493334,178.410666 216.653333,178.237334 216.776,178.04 C216.898667,177.842666 216.997333,177.632001 217.072,177.408 L218.256,177.728 C218.031999,178.464004 217.61867,179.063998 217.016,179.528 C216.41333,179.992002 215.600005,180.224 214.576,180.224 C214.010664,180.224 213.490669,180.125334 213.016,179.928 C212.541331,179.730666 212.133335,179.450668 211.792,179.088 C211.450665,178.725332 211.184001,178.293336 210.992,177.792 C210.799999,177.290664 210.704,176.736003 210.704,176.128 L210.704,175.744 C210.704,175.189331 210.802666,174.672002 211,174.192 C211.197334,173.711998 211.471998,173.298668 211.824,172.952 C212.176002,172.605332 212.589331,172.333334 213.064,172.136 C213.538669,171.938666 214.053331,171.84 214.608,171.84 C215.25867,171.84 215.821331,171.959999 216.296,172.2 C216.770669,172.440001 217.159998,172.735998 217.464,173.088 C217.768002,173.440002 217.991999,173.823998 218.136,174.24 C218.280001,174.656002 218.352,175.039998 218.352,175.392 L218.352,176.416 L211.952,176.416 Z M214.608,173.024 C214.255998,173.024 213.928002,173.079999 213.624,173.192 C213.319998,173.304001 213.053334,173.461332 212.824,173.664 C212.594666,173.866668 212.408001,174.103999 212.264,174.376 C212.119999,174.648001 212.026667,174.943998 211.984,175.264 L217.104,175.264 C217.082667,174.922665 217.000001,174.613335 216.856,174.336 C216.711999,174.058665 216.525334,173.824001 216.296,173.632 C216.066666,173.439999 215.805335,173.290667 215.512,173.184 C215.218665,173.077333 214.917335,173.024 214.608,173.024 Z M233.088,169.696 C233.088,169.386665 233.197332,169.122668 233.416,168.904 C233.634668,168.685332 233.898665,168.576 234.208,168.576 C234.517335,168.576 234.781332,168.685332 235,168.904 C235.218668,169.122668 235.328,169.386665 235.328,169.696 C235.328,170.005335 235.218668,170.269332 235,170.488 C234.781332,170.706668 234.517335,170.816 234.208,170.816 C233.898665,170.816 233.634668,170.706668 233.416,170.488 C233.197332,170.269332 233.088,170.005335 233.088,169.696 Z M230.816,178.848 L233.6,178.848 L233.6,173.216 L231.104,173.216 L231.104,172.064 L234.848,172.064 L234.848,178.848 L237.44,178.848 L237.44,180 L230.816,180 L230.816,178.848 Z M247.84,177.184 C247.754666,177.621336 247.608001,178.026665 247.4,178.4 C247.191999,178.773335 246.928002,179.095999 246.608,179.368 C246.287998,179.640001 245.914669,179.850666 245.488,180 C245.061331,180.149334 244.586669,180.224 244.064,180.224 C243.509331,180.224 242.984002,180.133334 242.488,179.952 C241.991998,179.770666 241.557335,179.506668 241.184,179.16 C240.810665,178.813332 240.514668,178.389336 240.296,177.888 C240.077332,177.386664 239.968,176.81067 239.968,176.16 L239.968,175.968 C239.968,175.327997 240.077332,174.752003 240.296,174.24 C240.514668,173.727997 240.810665,173.296002 241.184,172.944 C241.557335,172.591998 241.991998,172.320001 242.488,172.128 C242.984002,171.935999 243.509331,171.84 244.064,171.84 C244.565336,171.84 245.029331,171.914666 245.456,172.064 C245.882669,172.213334 246.258665,172.423999 246.584,172.696 C246.909335,172.968001 247.175999,173.290665 247.384,173.664 C247.592001,174.037335 247.733333,174.442664 247.808,174.88 L246.56,175.168 C246.528,174.890665 246.450667,174.621335 246.328,174.36 C246.205333,174.098665 246.040001,173.869334 245.832,173.672 C245.623999,173.474666 245.370668,173.317334 245.072,173.2 C244.773332,173.082666 244.426669,173.024 244.032,173.024 C243.647998,173.024 243.288002,173.095999 242.952,173.24 C242.615998,173.384001 242.320001,173.586665 242.064,173.848 C241.807999,174.109335 241.608001,174.421332 241.464,174.784 C241.319999,175.146668 241.248,175.541331 241.248,175.968 L241.248,176.16 C241.248,176.608002 241.319999,177.010665 241.464,177.368 C241.608001,177.725335 241.807999,178.026665 242.064,178.272 C242.320001,178.517335 242.618665,178.706666 242.96,178.84 C243.301335,178.973334 243.669331,179.04 244.064,179.04 C244.458669,179.04 244.802665,178.978667 245.096,178.856 C245.389335,178.733333 245.639999,178.573334 245.848,178.376 C246.056001,178.178666 246.221333,177.952001 246.344,177.696 C246.466667,177.439999 246.549333,177.173335 246.592,176.896 L247.84,177.184 Z M257.696,176.128 C257.696,176.789337 257.586668,177.373331 257.368,177.88 C257.149332,178.386669 256.858668,178.813332 256.496,179.16 C256.133332,179.506668 255.709336,179.770666 255.224,179.952 C254.738664,180.133334 254.234669,180.224 253.712,180.224 C253.178664,180.224 252.672002,180.133334 252.192,179.952 C251.711998,179.770666 251.290668,179.506668 250.928,179.16 C250.565332,178.813332 250.274668,178.386669 250.056,177.88 C249.837332,177.373331 249.728,176.789337 249.728,176.128 L249.728,175.936 C249.728,175.28533 249.837332,174.706669 250.056,174.2 C250.274668,173.693331 250.567998,173.264002 250.936,172.912 C251.304002,172.559998 251.727998,172.293334 252.208,172.112 C252.688002,171.930666 253.189331,171.84 253.712,171.84 C254.234669,171.84 254.735998,171.930666 255.216,172.112 C255.696002,172.293334 256.119998,172.559998 256.488,172.912 C256.856002,173.264002 257.149332,173.693331 257.368,174.2 C257.586668,174.706669 257.696,175.28533 257.696,175.936 L257.696,176.128 Z M253.712,179.04 C254.096002,179.04 254.450665,178.973334 254.776,178.84 C255.101335,178.706666 255.386665,178.512001 255.632,178.256 C255.877335,177.999999 256.069333,177.693335 256.208,177.336 C256.346667,176.978665 256.416,176.576002 256.416,176.128 L256.416,175.936 C256.416,175.509331 256.346667,175.117335 256.208,174.76 C256.069333,174.402665 255.877335,174.096001 255.632,173.84 C255.386665,173.583999 255.098668,173.384001 254.768,173.24 C254.437332,173.095999 254.085335,173.024 253.712,173.024 C253.338665,173.024 252.986668,173.095999 252.656,173.24 C252.325332,173.384001 252.037335,173.583999 251.792,173.84 C251.546665,174.096001 251.354667,174.402665 251.216,174.76 C251.077333,175.117335 251.008,175.509331 251.008,175.936 L251.008,176.128 C251.008,176.576002 251.077333,176.978665 251.216,177.336 C251.354667,177.693335 251.546665,177.999999 251.792,178.256 C252.037335,178.512001 252.322665,178.706666 252.648,178.84 C252.973335,178.973334 253.327998,179.04 253.712,179.04 Z M261.248,180 L260,180 L260,172.064 L261.248,172.064 L261.248,173.408 L261.44,173.408 C261.930669,172.362661 262.783994,171.84 264,171.84 C264.917338,171.84 265.647997,172.12533 266.192,172.696 C266.736003,173.26667 267.008,174.122661 267.008,175.264 L267.008,180 L265.76,180 L265.76,175.52 C265.76,174.687996 265.573335,174.064002 265.2,173.648 C264.826665,173.231998 264.320003,173.024 263.68,173.024 C262.922663,173.024 262.328002,173.282664 261.896,173.8 C261.463998,174.317336 261.248,175.007996 261.248,175.872 L261.248,180 Z" id="For-a-better-experie" fill="#FFFFFF"></path>
                <path d="M132.984453,53.1615897 C132.984453,53.1615897 132.984453,53.1615897 132.984453,53.1615897 C130.687392,53.7456376 129,55.690105 129,57.9988502 C129,60.2904426 130.662412,62.2231498 132.933356,62.8228683 C132.933356,62.8228683 132.933356,62.8228683 132.933356,62.8228683 L132.933356,62.8228683 C133.385757,62.9423397 133.849351,62.6724474 133.968822,62.2200467 C133.987688,62.1486057 133.997128,62.0750035 133.9969,62.0011136 L133.97204,53.9270906 L133.972082,53.9270904 C133.970733,53.4894749 133.614883,53.1358107 133.177267,53.1371594 C133.112237,53.1373598 133.047478,53.1455649 132.984453,53.1615897 Z" id="Oval-2" fill="#FFFFFF"></path>
                <path d="M161.984453,53.1615897 C161.984453,53.1615897 161.984453,53.1615897 161.984453,53.1615897 C159.687392,53.7456376 158,55.690105 158,57.9988502 C158,60.2904426 159.662412,62.2231498 161.933356,62.8228683 C161.933356,62.8228683 161.933356,62.8228683 161.933356,62.8228683 L161.933356,62.8228683 C162.385757,62.9423397 162.849351,62.6724474 162.968822,62.2200467 C162.987688,62.1486057 162.997128,62.0750035 162.9969,62.0011136 L162.97204,53.9270906 L162.972082,53.9270904 C162.970733,53.4894749 162.614883,53.1358107 162.177267,53.1371594 C162.112237,53.1373598 162.047478,53.1455649 161.984453,53.1615897 Z" id="Oval-2-Copy" fill="#FFFFFF" transform="translate(160.500000, 58.000000) scale(-1, 1) translate(-160.500000, -58.000000) "></path>
                <rect id="Rectangle-2" fill="#FFFFFF" x="135" y="50" width="6" height="16" rx="3"></rect>
                <rect id="Rectangle-2-Copy" fill="#FFFFFF" x="151" y="50" width="6" height="16" rx="3"></rect>
                <path d="M133,57 L133,46.88 L133,46.88 C133,39.7665724 138.820298,34 146,34 L146,34 L146,34 L146,34 C153.179702,34 159,39.7665724 159,46.88 L159,57 L159,57" id="Rectangle-3" stroke="#FFFFFF" stroke-width="2"></path>
            </g>
        </g>
    </g>
</svg>