<?xml version="1.0" encoding="UTF-8" standalone="no"?>
<svg width="574px" height="587px" viewBox="0 0 574 587" version="1.1" xmlns="http://www.w3.org/2000/svg" xmlns:xlink="http://www.w3.org/1999/xlink">
    <!-- Generator: Sketch 46.2 (44496) - http://www.bohemiancoding.com/sketch -->
    <title>keynote_speaker_hero_symbols</title>
    <desc>Created with Sketch.</desc>
    <defs></defs>
    <g id="Page-1" stroke="none" stroke-width="1" fill="none" fill-rule="evenodd">
        <g id="Siri---Page" transform="translate(-497.000000, -32.000000)" fill="#FFFFFF">
            <g id="Hero">
                <g id="Info">
                    <g id="keynote_speaker_hero_symbols" transform="translate(483.000000, 32.000000)">
                        <path d="M292.8017,138.102909 L292.8017,137.453125 C298.031161,136.983836 300.461756,134.168103 300.461756,128.897629 L300.461756,120.342134 C300.461756,114.674569 302.339943,112.94181 308.342776,112.94181 L310,112.94181 L310,105 L306.133144,105 C294.90085,105 290.186969,108.970905 290.186969,118.573276 L290.186969,125.251616 C290.186969,130.883082 288.640227,132.760237 284,132.760237 L284,142.759698 C288.640227,142.759698 290.186969,144.636853 290.186969,150.23222 L290.186969,158.101832 C290.186969,167.920797 294.937677,172 306.133144,172 L310,172 L310,164.094289 L308.342776,164.094289 C302.376771,164.094289 300.461756,162.36153 300.461756,156.730065 L300.461756,147.344289 C300.461756,141.821121 297.810198,138.572198 292.8017,138.102909 Z" id="{"></path>
                        <polygon id="+" points="484.086111 395.16186 499 395.16186 499 385.80186 484.086111 385.80186 484.086111 371 474.877778 371 474.877778 385.80186 460 385.80186 460 395.16186 474.877778 395.16186 474.877778 410 484.086111 410"></polygon>
                        <polygon id="-" points="38 214 38 204 14 204 14 214"></polygon>
                        <path d="M149,422 L149,412.52439 L110,412.52439 L110,422 L149,422 Z M149,404.47561 L149,395 L110,395 L110,404.47561 L149,404.47561 Z" id="="></path>
                        <path d="M339.268314,587 L334.202118,587 L334.202118,582.429483 C322.875552,581.771329 316.036187,575.994196 316,567.072548 L326.349515,567.072548 C326.602824,570.692397 329.678729,573.398143 334.202118,573.873476 L334.202118,560.271619 L330.402471,559.357516 C321.717564,557.309925 317.049426,552.264074 317.049426,544.622171 C317.049426,535.627394 323.418358,529.850261 334.202118,528.972722 L334.202118,524 L339.268314,524 L339.268314,528.972722 C349.328332,529.923389 355.842012,535.883343 355.986761,544.329658 L345.890556,544.329658 C345.781995,541.002322 343.067961,538.260012 339.268314,537.71155 L339.268314,550.728381 L343.140335,551.532792 C352.440424,553.543819 357,558.406849 357,566.304701 C357,575.628555 350.594881,581.405688 339.268314,582.356355 L339.268314,587 Z M346.72286,567.547882 C346.72286,564.183981 344.33451,562.13639 339.268314,561.185723 L339.268314,573.910041 C343.972639,573.617528 346.72286,571.240859 346.72286,567.547882 Z M327.543689,543.598375 C327.543689,546.669762 329.823477,548.790482 334.202118,549.668021 L334.202118,537.674985 C330.29391,537.89437 327.543689,540.344167 327.543689,543.598375 Z" id="$"></path>
                        <polygon id="/" points="107.738372 75 123 12 113.043605 12 98 75"></polygon>
                        <polygon id="]" points="588 0 567.465077 0 567.465077 8.07779097 577.982964 8.07779097 577.982964 52.9584323 567 52.9584323 567 61 588 61"></polygon>
                        <path d="M552.726582,484.718534 C556.55443,484.718534 559,482.042877 559,478.340941 C559,474.639004 556.55443,472 552.726582,472 C548.934177,472 546.453165,474.639004 546.453165,478.340941 C546.453165,482.042877 548.934177,484.718534 552.726582,484.718534 Z M553.293671,525 L558.007595,501.72545 L547.8,501.72545 L545,525 L553.293671,525 Z" id=";"></path>
                    </g>
                </g>
            </g>
        </g>
    </g>
</svg>