<?xml version="1.0" encoding="UTF-8" standalone="no"?>
<svg width="1440px" height="187px" viewBox="0 0 1440 187" version="1.1" xmlns="http://www.w3.org/2000/svg" xmlns:xlink="http://www.w3.org/1999/xlink">
    <!-- Generator: Sketch 46.2 (44496) - http://www.bohemiancoding.com/sketch -->
    <title>siri_wave</title>
    <desc>Created with Sketch.</desc>
    <defs></defs>
    <g id="Page-1" stroke="none" stroke-width="1" fill="none" fill-rule="evenodd">
        <g id="Siri---2" transform="translate(0.000000, -520.000000)" fill="#FFFFFF">
            <g id="siri_wave" transform="translate(0.000000, 520.000000)">
                <path d="M1440,91.7946289 C1440,91.7946289 1434.38975,92.9628213 1423.87097,92.8488345 C1413.3515,92.7638625 1397.9235,93.5907852 1378.28798,93.6115101 C1358.65247,93.5617704 1334.80944,93.7026995 1307.45992,93.8422471 C1280.10971,94.1185788 1249.2537,94.3610599 1215.59292,94.9372116 C1181.93213,95.3717432 1151.70642,96.2076467 1113.13641,97.0235162 C1103.49408,97.4967343 1093.72,99.8800955 1083.82528,104.273079 C1073.93125,108.58869 1063.91587,114.960209 1053.79094,121.125861 C1043.6667,127.308784 1027.19167,133.079972 1016.85873,136.375228 C1011.69225,138.050489 1006.50151,139.177232 1001.28719,139.736803 C996.07287,140.315027 990.834976,140.22522 985.575586,139.873588 C975.056808,139.141308 964.449968,136.892659 953.766162,133.097933 C948.424952,131.221641 943.063634,128.999934 937.684981,126.537818 C932.306328,124.043924 926.909646,121.378704 921.497017,118.632658 C916.083695,115.932206 910.654424,113.087371 905.209898,110.558245 C899.766066,107.899242 894.306286,105.526934 888.833332,103.460664 C877.886729,99.327432 866.885349,96.6283618 855.840285,95.8124923 C844.79522,94.9924779 833.706472,95.7807142 822.584441,98.4417888 C811.463104,101.069013 800.308483,105.691352 789.131674,111.646301 C777.955558,117.579143 766.757254,124.843214 755.547162,131.585017 C744.337764,138.327511 733.117964,144.364669 721.897471,148.445398 C710.676978,152.540634 699.456485,154.717437 688.24778,154.972354 C685.445084,155.034528 682.643081,155.044891 679.842465,154.410018 C677.041849,153.824195 674.241926,152.764463 671.442697,151.261909 C665.844931,148.191173 660.251326,143.308391 654.663268,137.102671 C643.486459,124.710574 632.331839,108.64672 621.209808,101.121516 C615.649486,97.1775711 610.096098,95.0546526 604.553804,94.575217 C599.010123,94.06124 593.476843,95.2301232 587.954658,97.9347201 C576.909594,103.339078 565.908213,114.693549 554.961611,117.988805 C552.224787,118.930405 549.492123,119.453363 546.762233,119.639887 C544.033036,119.765618 541.306613,119.752492 538.584351,119.681337 C533.140519,119.526591 527.710554,119.049919 522.297925,118.185691 C500.646021,114.888363 479.256913,105.020557 458.219356,101.110463 C447.699884,99.09255 437.268473,98.2690815 426.935524,98.5910079 C416.602574,98.8832287 406.36878,100.548818 396.244543,102.938397 C386.119611,105.275473 376.104236,108.085076 366.209512,109.90472 C356.315481,111.787921 346.541406,112.592737 336.899077,112.414503 C317.613725,112.590664 298.855352,99.4241481 280.709245,97.9886048 C276.173065,97.4849902 271.675022,97.5533823 267.217195,97.3758391 C262.758675,97.2494174 258.339679,97.1243773 253.962286,97.0007188 C245.208194,96.7527111 236.617049,96.5095391 228.202026,96.271203 C211.371287,95.7420277 195.242262,95.4829667 179.901625,95.1334071 C172.231306,94.9710622 164.758605,94.8135531 157.493922,94.6608798 C150.229239,94.5544921 143.172574,94.4515585 136.335021,94.3520791 C108.985503,93.9002767 85.1424755,93.4077154 65.5062663,93.3241251 C45.8707505,93.2612596 30.5370477,92.7065236 20.0175756,92.790114 C9.49879691,92.9220624 0,91.9998052 0,91.9998052 C0,91.9998052 9.49879691,91.1763367 20.0175756,91.3089759 C30.5370477,91.3925662 45.9179013,90.774274 65.5534171,90.7114085 C85.1889329,90.6278182 109.009078,90.0993337 136.358596,89.6482222 C143.195456,89.5480519 150.241026,89.4451183 157.50571,89.3394214 C164.770393,89.1860573 172.237547,89.0285482 179.907865,88.8668942 C195.247809,88.5166437 211.37406,88.2575827 228.2048,87.7290983 C236.619822,87.4907621 245.209581,87.2468994 253.964366,86.9995825 C258.341759,86.8752332 262.759369,86.7501931 267.217889,86.6237713 C271.675715,86.446919 276.173065,86.5146203 280.709939,86.0116965 C298.855352,84.5754623 317.614418,71.408946 336.899077,71.5851075 C346.5421,71.4068735 356.315481,72.2123805 366.210205,74.0948905 C376.104236,75.9145349 386.119611,78.7241378 396.244543,81.0619043 C406.36878,83.4507922 416.603268,85.1170725 426.935524,85.4086025 C437.268473,85.730529 447.699884,84.9070604 458.219356,82.8891479 C479.256913,78.9790539 500.646021,69.1112476 522.297925,65.8139192 C527.710554,64.9503825 533.140519,64.4737103 538.584351,64.3182737 C541.306613,64.2478091 544.033036,64.2346833 546.762233,64.3597234 C549.492123,64.5469382 552.224787,65.069896 554.961611,66.0114964 C565.908213,69.3060615 576.909594,80.6605325 587.954658,86.0655812 C593.476843,88.7701781 599.010123,89.9390613 604.553804,89.4243935 C610.096098,88.9449579 615.649486,86.8227302 621.209808,82.8787855 C632.331839,75.3535815 643.486459,59.2897269 654.663268,46.8969394 C660.251326,40.6919103 665.844931,35.8084377 671.442697,32.7383921 C674.241926,31.2351475 677.041849,30.1754153 679.842465,29.589592 C682.643081,28.9554107 685.445084,28.9650823 688.24778,29.0279478 C699.456485,29.2828638 710.676978,31.4589762 721.897471,35.5549034 C733.117964,39.6349414 744.337764,45.6727898 755.547162,52.4152842 C766.757254,59.1563969 777.955558,66.4204673 789.131674,72.3533097 C800.308483,78.3082586 811.463104,82.9312885 822.584441,85.5585125 C833.706472,88.2188963 844.79522,89.0071325 855.840285,88.1878089 C866.885349,87.3719395 877.886729,84.6721784 888.833332,80.5396373 C894.306286,78.4733668 899.766066,76.100368 905.209898,73.4420567 C910.654424,70.9122397 916.083695,68.0680953 921.497017,65.3676434 C926.909646,62.6215968 932.306328,59.9563772 937.684981,57.4624833 C943.063634,54.9996767 948.424952,52.7786604 953.766162,50.9023679 C964.449968,47.1069515 975.056808,44.8589929 985.575586,44.126023 C990.834976,43.7743908 996.07287,43.684583 1001.28719,44.263498 C1006.50151,44.8223789 1011.69225,45.9498124 1016.85873,47.6243827 C1027.19167,50.9203295 1043.6667,56.6915178 1053.79094,62.8737495 C1063.91587,69.0394014 1073.93125,75.4109203 1083.82528,79.727222 C1093.72,84.119515 1103.49408,86.503567 1113.13641,86.9760943 C1151.70642,87.7926546 1181.93213,88.6278672 1215.59292,89.0623989 C1249.2537,89.6392414 1280.10971,89.8817225 1307.45992,90.1580542 C1334.80944,90.2969109 1358.65247,90.4378401 1378.28798,90.3881004 C1397.9235,90.4088253 1413.3515,91.2930868 1423.87097,91.2081148 C1434.38975,91.0948188 1440,91.7946289 1440,91.7946289" id="Fill" style="mix-blend-mode: lighten;"></path>
                <path d="M0,93.2073907 C0,93.2073907 5.50000963,92.3154232 16.047299,92.503867 C26.593895,92.6881232 42.1877708,91.7940618 61.874935,91.9497025 C71.7185171,92.0153089 82.6173134,90.9704924 94.4825806,91.0500576 C106.347155,91.0765793 119.179586,91.1058928 132.890438,91.1366022 C146.60129,91.1114763 161.191257,91.0856525 176.572287,91.0577349 C191.953317,91.0319111 208.124718,90.9711903 224.999827,90.8057785 C241.874935,90.6647946 259.453057,90.5182271 277.646837,90.3660762 C295.839923,90.1252868 314.648666,89.8761221 333.984324,89.6199781 C338.818758,89.5564655 343.685084,89.4915571 348.583996,89.4266487 C353.482215,89.3233535 358.412325,89.4845777 363.372942,88.7042805 C368.333558,87.9874959 373.323293,86.6439611 378.342841,84.6394768 C383.362388,82.5889285 388.410361,79.9709547 393.486066,76.7729927 C403.63817,70.4601236 413.899124,61.7972897 424.258527,54.1729909 C434.619316,46.3679256 445.077862,40.1060061 455.625152,36.8228953 C460.89845,35.1897153 466.193934,34.2677362 471.509523,34.0646356 C476.825806,33.733114 482.162195,34.6606766 487.517997,37.2228151 C498.230294,42.0532592 509.018161,54.5673271 519.873279,66.5167614 L523.946461,70.8363133 C525.305344,72.2266102 526.665614,73.5094243 528.025883,74.8529592 C530.747809,77.4737247 533.473202,79.7957718 536.202754,81.7458167 C541.661858,85.6375313 547.135522,88.1612831 552.623052,88.978571 C558.111276,89.8293602 563.612672,89.2444863 569.126548,87.0473705 C574.63973,84.8621197 580.166086,81.0255424 585.702841,76.0799381 C596.777737,66.1468531 607.895619,52.5007262 619.046779,46.0922392 C624.622359,42.7323551 630.206259,40.9686602 635.796399,40.7153079 C641.387232,40.5394269 646.984998,40.7509028 652.587617,41.3315891 C663.794242,42.4615543 675.021666,45.2854203 686.260876,49.4591028 C697.500087,53.6823389 708.749697,59.1046364 720,64.4292222 C731.250303,69.730776 742.499913,74.7747899 753.739124,78.5262185 C759.358382,80.4127509 764.975561,82.0389516 770.587886,83.3196719 C773.394396,83.9457242 776.199519,84.5836416 779.003948,85.04498 C781.807684,85.4881721 784.610727,85.7408264 787.412383,85.7722337 C798.618315,86.0974739 809.802061,81.9328647 820.953221,80.1580027 C832.104381,78.3293994 843.222956,79.3183807 854.297159,82.348837 C865.371363,85.3667305 876.401194,90.1029527 887.376948,91.1931353 C898.352008,92.4124369 909.272297,91.045172 920.126721,86.7814553 C930.981839,82.6440657 941.769706,75.8286796 952.482003,71.9306836 C957.837805,69.9310849 963.174194,68.6685111 968.490477,68.0962001 C973.806066,67.5671614 979.10155,67.69977 984.374848,68.283946 C994.922138,69.40414 1005.38068,73.0494817 1015.74147,77.3941595 C1026.10088,81.7088259 1036.36183,86.0974739 1046.51393,88.1654707 C1051.58964,89.2654245 1056.63761,89.8133075 1061.65716,89.9605729 C1066.67671,90.0198978 1071.66644,90.0785248 1076.62706,90.1371518 C1086.5476,90.2355614 1096.3475,90.333273 1106.01568,90.4295887 C1144.68768,90.8839478 1181.24996,91.033307 1215.00017,91.2112818 C1231.87528,91.2412932 1248.04668,91.2699087 1263.42771,91.2971284 C1278.80874,91.2831696 1293.39871,91.2692108 1307.10956,91.2566479 C1320.82041,91.2022085 1333.65285,91.1512589 1345.51742,91.1044969 C1357.38269,90.9893368 1368.14837,92.154199 1377.99264,92.0585812 C1397.67981,91.8394279 1413.32568,92.6343818 1423.87297,92.4075513 C1434.41957,92.2253889 1440,93.0001025 1440,93.0001025 C1440,93.0001025 1434.37519,94.2466237 1423.82791,94.0651593 C1413.28131,93.8383287 1397.81223,94.8301017 1378.12506,94.6102506 C1368.28148,94.5146328 1357.38269,95.0108682 1345.51742,94.8950102 C1333.65285,94.8482482 1320.82041,94.7972985 1307.10956,94.7428592 C1293.39871,94.7302963 1278.80874,94.7170354 1263.42771,94.7030766 C1248.04668,94.7302963 1231.87528,94.7589118 1215.00017,94.7882253 C1181.24996,94.9662001 1144.68768,95.1155593 1106.01568,95.5706163 C1096.3475,95.666932 1086.5476,95.7646437 1076.62706,95.8630532 C1071.66644,95.9209823 1066.67671,95.9803072 1061.65716,96.0396321 C1056.63761,96.1868975 1051.58964,96.7347805 1046.51393,97.8340364 C1036.36183,99.9020332 1026.10088,104.290681 1015.74147,108.606046 C1005.38068,112.950723 994.922138,116.595367 984.374848,117.715561 C979.10155,118.300435 973.806066,118.433044 968.490477,117.904005 C963.174194,117.331694 957.837805,116.06912 952.482003,114.068824 C941.769706,110.171525 930.981839,103.356139 920.126721,99.2187497 C909.272297,94.955033 898.352008,93.5877682 887.376948,94.8070697 C876.401194,95.8972523 865.371363,100.632777 854.297159,103.651368 C843.222956,106.681824 832.104381,107.670806 820.953221,105.841504 C809.802061,104.06734 798.618315,99.9027311 787.412383,100.227971 C784.610727,100.259379 781.807684,100.511335 779.003948,100.955225 C776.199519,101.416563 773.394396,102.053783 770.587886,102.680533 C764.975561,103.960556 759.358382,105.587454 753.739124,107.473986 C742.499913,111.224717 731.250303,116.269429 720,121.570983 C708.749697,126.894871 697.500087,132.317168 686.260876,136.541102 C675.021666,140.714785 663.794242,143.537953 652.587617,144.668616 C646.984998,145.249302 641.387232,145.46008 635.796399,145.284199 C630.206259,145.031545 624.622359,143.267152 619.046779,139.907966 C607.895619,133.499479 596.777737,119.853352 585.702841,109.919569 C580.166086,104.973965 574.63973,101.137387 569.126548,98.9528345 C563.612672,96.7557188 558.111276,96.1701469 552.623052,97.021634 C547.135522,97.838224 541.661858,100.361976 536.202754,104.254388 C533.473202,106.203735 530.747809,108.52648 528.025883,111.147246 C526.665614,112.490781 525.305344,113.772897 523.946461,115.163892 L519.873279,119.482746 C509.018161,131.43218 498.230294,143.946946 487.517997,148.77739 C482.162195,151.339528 476.825806,152.266393 471.509523,151.935569 C466.193934,151.732469 460.89845,150.81049 455.625152,149.176612 C445.077862,145.893501 434.619316,139.632279 424.258527,131.826516 C413.899124,124.202217 403.63817,115.539384 393.486066,109.226514 C388.410361,106.02925 383.362388,103.410579 378.342841,101.360728 C373.323293,99.356244 368.333558,98.0120111 363.372942,97.2959245 C358.412325,96.5156273 353.482215,96.6761536 348.583996,96.5728584 C343.685084,96.50795 338.818758,96.4437395 333.984324,96.379529 C314.648666,96.1233849 295.839923,95.8742203 277.646837,95.6334309 C259.453057,95.4819779 241.874935,95.3347125 224.999827,95.1944265 C208.124718,95.0290147 191.953317,94.9682939 176.572287,94.9424701 C161.191257,94.9145525 146.60129,94.8880308 132.890438,94.8629049 C119.179586,94.8943122 106.347155,94.9229278 94.4825806,94.9501474 C82.6173134,95.0297126 71.7185171,94.4567037 61.874935,94.523008 C42.1877708,94.6786487 26.7186904,93.8264637 16.1720944,94.0107199 C5.62480501,94.1984658 0,93.2073907 0,93.2073907" id="Fill" style="mix-blend-mode: screen;" opacity="0.400000006"></path>
                <path d="M0,93.40627 C0,93.40627 5.62480501,92.579363 16.1720944,92.7085021 C26.7186904,92.7939005 42.1877708,92.1988885 61.874935,92.1551478 C71.7185171,92.1114072 82.6173134,91.7587046 94.4825806,91.7066324 C106.347848,91.6469229 119.179586,91.5448613 132.890438,91.342821 C160.312836,91.0664911 191.250303,90.4506502 224.999827,89.7750997 C241.874935,89.349496 259.453057,88.9065349 277.646837,88.447605 C282.194935,88.2927769 286.781165,88.3115229 291.405527,87.9900637 C296.029196,87.6297238 300.690303,86.8868267 305.386769,85.6870825 C310.083235,84.5046957 314.816447,82.8606018 319.582244,80.9776699 C324.349427,78.9801791 329.150583,76.9688024 333.984324,74.9435397 C338.818758,72.9606292 343.685084,71.0645057 348.583996,69.6238406 C353.482215,68.2095588 358.412325,67.1729743 363.372942,66.7064071 C373.293481,65.7024545 383.335349,66.6487805 393.486066,69.6467524 C403.63817,72.5551601 413.899124,77.790155 424.258527,81.9878712 C434.619316,86.3556899 445.077862,89.0558087 455.625152,89.1044094 C466.171748,89.2259113 476.806394,86.8264229 487.517997,81.7212613 C498.230294,76.6522032 509.018161,68.9698134 519.873279,62.6322757 C530.727703,56.196148 541.647992,51.8672098 552.623052,50.9792047 C555.367164,50.7591128 558.114742,50.6105333 560.865094,50.8688116 C563.615445,51.1694419 566.369263,51.963717 569.126548,53.2787145 C571.883139,54.6207894 574.643197,56.4287373 577.406028,58.6928379 C578.787097,59.8120437 580.169552,61.0638601 581.552008,62.4059351 L583.627078,64.3916229 L585.702841,66.5599106 C591.240289,72.212872 596.788137,78.6177564 602.345691,83.0494504 C607.903938,87.5491854 613.471199,90.1604342 619.046779,90.3437285 C624.622359,90.5478516 630.206259,88.7447639 635.796399,85.0552727 C637.194107,84.1047809 638.592508,83.0841652 639.99091,81.8510948 C641.389312,80.7332775 642.788406,79.3432961 644.187501,77.9894181 C646.985691,75.1129481 649.786654,71.8566979 652.587617,68.1991444 C658.190929,60.8166906 663.799788,51.7054388 669.412114,43.250297 L677.833722,30.3967875 C679.238363,28.2430801 680.642311,26.4649869 682.046952,24.4799935 C682.749273,23.5274188 683.451594,22.5081917 684.153914,21.6104664 L686.260876,18.9561712 C691.880135,12.1145744 697.50286,6.84625318 703.126278,3.81773223 C705.938334,2.254871 708.75039,1.25300127 711.562446,0.679512436 C714.375195,0.154624347 717.187251,0.044231217 720,0.00187913573 C731.250303,-0.0904622873 742.499913,3.22133161 753.739124,9.74563501 C764.978334,16.1491308 776.205758,25.7970738 787.412383,34.9347089 C798.618315,44.3202078 809.802061,52.8544993 820.953221,58.3151406 C826.528801,61.1450928 832.096062,63.1543866 837.654309,64.5006274 C843.211863,65.8225678 848.759711,66.5606048 854.297159,66.2703889 C859.833914,66.0155822 865.36027,64.8012577 870.873452,62.7010111 C876.387328,60.5709097 881.888724,57.674305 887.376948,54.158388 C898.352008,47.2591645 909.272297,38.7033498 920.126721,33.6433176 C930.981839,28.3513903 941.769706,26.6586956 952.482003,28.1674018 C963.193606,29.3845034 973.828252,32.2019582 984.374848,36.3968971 C1005.46873,44.7659461 1026.21111,59.5489054 1046.51393,70.7853985 C1066.81675,82.0121715 1086.68002,88.8586285 1106.01568,90.1632114 C1115.68385,90.7540577 1125.21961,89.2328542 1134.61323,87.714428 C1144.00616,86.1946131 1153.25697,83.896492 1162.35316,84.2054539 C1180.54694,84.3609763 1198.12506,86.7160297 1215.00017,87.815101 C1223.43773,88.3226316 1231.69918,88.8190536 1239.77414,89.3050611 C1243.81196,89.4897439 1247.80264,89.6723439 1251.74548,89.8521666 C1255.68763,89.9750571 1259.58263,90.0958647 1263.42771,90.2145894 C1278.80874,90.5179969 1293.39871,90.8061299 1307.10956,91.0769055 C1334.53127,91.4726545 1358.43721,92.2044429 1378.12506,92.2634581 C1397.81223,92.3648254 1413.28131,92.6411553 1423.82791,92.6106063 C1434.37519,92.4946588 1440,93.2000639 1440,93.2000639 C1440,93.2000639 1434.37519,94.3755078 1423.82791,94.2595603 C1413.28131,94.2290112 1397.81223,94.7004385 1378.12506,94.8018058 C1358.43721,94.8615153 1334.53127,95.5273455 1307.10956,95.9237888 C1293.39871,96.1938701 1278.80874,96.4820031 1263.42771,96.7854106 C1259.58263,96.9048296 1255.68763,97.0256372 1251.74548,97.1478334 C1247.80264,97.3283504 1243.81196,97.5109504 1239.77414,97.6949389 C1231.69918,98.1809464 1223.43773,98.6773684 1215.00017,99.184899 C1198.12506,100.284665 1180.54694,102.639024 1162.35316,102.794546 C1153.25697,103.103508 1144.00616,100.805387 1134.61323,99.285572 C1125.21961,97.7678401 1115.68385,96.2466366 1106.01568,96.8367886 C1086.68002,98.1420658 1066.81675,104.987828 1046.51393,116.214601 C1026.21111,127.451789 1005.46873,142.234054 984.374848,150.603103 C973.828252,154.798042 963.193606,157.615497 952.482003,158.833293 C941.769706,160.341304 930.981839,158.64861 920.126721,153.356682 C909.272297,148.29665 898.352008,139.740835 887.376948,132.841612 C881.888724,129.325695 876.387328,126.42909 870.873452,124.298989 C865.36027,122.198742 859.833914,120.985112 854.297159,120.729611 C848.759711,120.440089 843.211863,121.177432 837.654309,122.499373 C832.096062,123.845613 826.528801,125.855601 820.953221,128.684859 C809.802061,134.145501 798.618315,142.679792 787.412383,152.065291 C776.205758,161.202926 764.978334,170.851563 753.739124,177.254365 C742.499913,183.778668 731.250303,187.090462 720,186.998121 C717.187251,186.956463 714.375195,186.845376 711.562446,186.320488 C708.75039,185.746999 705.938334,184.745129 703.126278,183.182962 C697.50286,180.154441 691.880135,174.88612 686.260876,168.044523 L684.153914,165.389534 C683.451594,164.491808 682.749273,163.472581 682.046952,162.520701 C680.642311,160.535707 679.238363,158.75692 677.833722,156.603212 L669.412114,143.750397 C663.799788,135.294561 658.190929,126.183309 652.587617,118.80155 C649.786654,115.143996 646.985691,111.887052 644.187501,109.010582 C642.788406,107.656704 641.389312,106.266722 639.99091,105.1496 C638.592508,103.915835 637.194107,102.895219 635.796399,101.944727 C630.206259,98.2552361 624.622359,96.4521484 619.046779,96.6562715 C613.471199,96.84026 607.903938,99.4508146 602.345691,103.95055 C596.788137,108.382244 591.240289,114.787822 585.702841,120.440784 L583.627078,122.608377 L581.552008,124.594065 C580.169552,125.936834 578.787097,127.187956 577.406028,128.307162 C574.643197,130.571263 571.883139,132.379211 569.126548,133.721286 C566.369263,135.036283 563.615445,135.831252 560.865094,136.131883 C558.114742,136.390161 555.367164,136.240887 552.623052,136.02149 C541.647992,135.133484 530.727703,130.804546 519.873279,124.367724 C509.018161,118.030187 498.230294,110.347797 487.517997,105.279433 C476.806394,100.173577 466.171748,97.774783 455.625152,97.8955906 C445.077862,97.9448856 434.619316,100.64431 424.258527,105.012823 C413.899124,109.209845 403.63817,114.445534 393.486066,117.353248 C383.335349,120.35122 373.293481,121.297546 363.372942,120.293593 C358.412325,119.827026 353.482215,118.791135 348.583996,117.376854 C343.685084,115.936189 338.818758,114.040065 333.984324,112.05646 C329.150583,110.031198 324.349427,108.019821 319.582244,106.02233 C314.816447,104.139398 310.083235,102.495304 305.386769,101.313612 C300.690303,100.113173 296.029196,99.3702762 291.405527,99.0106306 C286.781165,98.6884771 282.194935,98.7072231 277.646837,98.5530893 C259.453057,98.0941594 241.874935,97.650504 224.999827,97.2249003 C191.250303,96.5500441 160.312836,95.9342032 132.890438,95.6578733 C119.179586,95.4551387 106.347848,95.3537714 94.4825806,95.2933676 C82.6173134,95.2419897 71.7185171,94.7580651 61.874935,94.7150187 C42.1877708,94.6712781 26.7186904,94.1193124 16.1720944,94.2054052 C5.62480501,94.3345443 0,93.40627 0,93.40627" id="Fill" opacity="0.300000012" style="mix-blend-mode: screen;"></path>
            </g>
        </g>
    </g>
</svg>