<?xml version="1.0" encoding="UTF-8" standalone="no"?>
<svg width="39px" height="35px" viewBox="0 0 39 35" version="1.1" xmlns="http://www.w3.org/2000/svg" xmlns:xlink="http://www.w3.org/1999/xlink">
    <!-- Generator: Sketch 46.2 (44496) - http://www.bohemiancoding.com/sketch -->
    <title>Group 2 Copy 2</title>
    <desc>Created with Sketch.</desc>
    <defs></defs>
    <g id="Symbols" stroke="none" stroke-width="1" fill="none" fill-rule="evenodd">
        <g id="header/header_desktop_RED" transform="translate(-156.000000, -23.000000)" fill="#FFFFFF">
            <g id="header">
                <g id="Group-2-Copy-2" transform="translate(155.000000, 23.000000)">
                    <g id="Group-Copy-2">
                        <path d="M14.005196,6.4441899 L39.3004218,31.7394158 L39.3004218,31.7394158 C39.9147297,32.3537237 39.9147297,33.3497135 39.3004218,33.9640214 L39.3004218,33.9640214 C38.686114,34.5783293 37.6901241,34.5783293 37.0758162,33.9640214 L11.7805904,8.6687955 C11.1662825,8.05448763 11.1662825,7.05849777 11.7805904,6.4441899 C12.3948982,5.82988202 13.3908881,5.82988202 14.005196,6.4441899 Z M7.52994149,6.4193696 L31.2063538,30.0957819 C31.8206616,30.7100897 31.8206616,31.7060796 31.2063538,32.3203875 C30.5920459,32.9346953 29.596056,32.9346953 28.9817482,32.3203875 L5.30533589,8.64397521 C4.69102802,8.02966733 4.69102802,7.03367748 5.30533589,6.4193696 L5.30533589,6.4193696 L5.30533589,6.4193696 C5.91964376,5.80506173 6.91563362,5.80506173 7.52994149,6.4193696 L7.52994149,6.4193696 Z M31.8121457,17.8089789 L36.6023991,22.5992323 L36.6023991,22.5992323 C37.216707,23.2135402 37.216707,24.2095301 36.6023991,24.8238379 C35.9880913,25.4381458 34.9921014,25.4381458 34.3777935,24.8238379 L29.5875401,20.0335845 C28.9732323,19.4192767 28.9732323,18.4232868 29.5875401,17.8089789 C30.201848,17.1946711 31.1978379,17.1946711 31.8121457,17.8089789 Z M30.1933321,9.49152822 L36.6023991,15.9005952 C37.216707,16.5149031 37.216707,17.510893 36.6023991,18.1252008 C35.9880913,18.7395087 34.9921014,18.7395087 34.3777935,18.1252008 L27.9687265,11.7161338 C27.3544186,11.1018259 27.3544186,10.1058361 27.9687265,9.49152822 L27.9687265,9.49152822 L27.9687265,9.49152822 C28.5830344,8.87722034 29.5790243,8.87722034 30.1933321,9.49152822 L30.1933321,9.49152822 Z M28.034914,0.593105802 L34.443981,7.00217282 C35.0582889,7.6164807 35.0582889,8.61247055 34.443981,9.22677842 C33.8296731,9.8410863 32.8336833,9.8410863 32.2193754,9.22677842 L25.8103084,2.81771141 L25.8103084,2.81771141 C25.1960005,2.20340353 25.1960005,1.20741368 25.8103084,0.593105802 L25.8103084,0.593105802 L25.8103084,0.593105802 C26.4246162,-0.0212020724 27.4206061,-0.0212020724 28.034914,0.593105802 L28.034914,0.593105802 Z M21.5596595,27.2635528 L26.3499129,32.0538062 C26.9642208,32.668114 26.9642208,33.6641039 26.3499129,34.2784118 C25.735605,34.8927196 24.7396152,34.8927196 24.1253073,34.2784118 L19.3350539,29.4881584 C18.720746,28.8738505 18.720746,27.8778606 19.3350539,27.2635528 C19.9493618,26.6492449 20.9453516,26.6492449 21.5596595,27.2635528 Z M12.3863823,24.507616 L18.7954494,30.9166831 L18.7954494,30.9166831 C19.4097572,31.5309909 19.4097572,32.5269808 18.7954494,33.1412887 C18.1811415,33.7555965 17.1851516,33.7555965 16.5708438,33.1412887 L10.1617767,26.7322216 C9.54746887,26.1179138 9.54746887,25.1219239 10.1617767,24.507616 C10.7760846,23.8933082 11.7720745,23.8933082 12.3863823,24.507616 Z M3.75270972,22.2830104 L10.1617767,28.6920775 L10.1617767,28.6920775 C10.7760846,29.3063853 10.7760846,30.3023752 10.1617767,30.9166831 L10.1617767,30.9166831 C9.54746887,31.5309909 8.55147901,31.5309909 7.93717114,30.9166831 L1.52810412,24.507616 L1.52810412,24.507616 C0.913796243,23.8933082 0.913796243,22.8973183 1.52810412,22.2830104 L1.52810412,22.2830104 L1.52810412,22.2830104 C2.14241199,21.6687026 3.13840185,21.6687026 3.75270972,22.2830104 Z" id="Combined-Shape"></path>
                    </g>
                </g>
            </g>
        </g>
    </g>
</svg>