<svg xmlns="http://www.w3.org/2000/svg" width="41" height="36" viewBox="0 0 41 36">
  <path fill="#FFFFFF" d="M17.3359875,11.5585397 C17.3359875,10.7087036 18.032381,10.0190549 18.8788447,10.0190549 L27.7861046,10.0190549 C28.6376269,10.0190549 29.3289618,10.7019589 29.3289618,11.5585397 C29.3257142,12.4086042 28.6361749,13.0962595 27.7861046,13.0971814 L18.8788447,13.0971814 C18.0273224,13.0971814 17.3359875,12.4142774 17.3359875,11.5585397 Z M22.3262451,15.4367598 C22.3262451,14.5852376 23.0226386,13.897275 23.8691023,13.897275 L32.7763622,13.897275 C33.6287276,13.897275 34.3192194,14.580179 34.3192194,15.4359167 C34.3164347,16.2863107 33.6267602,16.9744777 32.7763622,16.9754015 L23.8699454,16.9754015 C23.01758,16.9754015 22.3262451,16.2924975 22.3262451,15.4359167 L22.3262451,15.4367598 Z M29.3289618,19.3132938 C29.3289618,18.4634577 30.0261983,17.7746521 30.8718189,17.7746521 L39.7790789,17.7746521 C40.6314442,17.7746521 41.321936,18.4575561 41.321936,19.3132938 C41.3191513,20.1636877 40.6294769,20.8518547 39.7790789,20.8527785 L30.872662,20.8527785 C30.0202967,20.8527785 29.3298048,20.1698746 29.3298048,19.3132938 L29.3289618,19.3132938 Z M25.8680718,23.1915139 C25.8680718,22.3408347 26.5577205,21.6520291 27.401655,21.6520291 L45.4235753,21.6520291 C46.2708821,21.6520291 46.9580016,22.3349331 46.9580016,23.1915139 C46.9580048,24.0396387 46.271697,24.727832 45.4235753,24.7301556 L27.401655,24.7301556 C26.5543482,24.7301556 25.8672287,24.0472516 25.8672287,23.1915139 L25.8680718,23.1915139 Z M10.6949571,27.068891 C10.6949571,26.2190549 11.3820765,25.5294062 12.2352849,25.5294062 L49.7224981,25.5294062 C50.5740203,25.5294062 51.263669,26.2123102 51.263669,27.068891 C51.263894,27.4774715 51.1015124,27.8693454 50.8123651,28.1580182 C50.5232178,28.446691 50.1310777,28.6084287 49.7224981,28.6075326 L12.2352849,28.6075326 C11.3846058,28.6075326 10.6949571,27.9246287 10.6949571,27.068891 Z M7.31416082,30.946268 C7.3128134,30.537852 7.47434417,30.1457507 7.76298115,29.8567972 C8.05161813,29.5678438 8.44354222,29.4058834 8.85195941,29.4067832 L41.5554723,29.4067832 C41.9638895,29.4058834 42.3558136,29.5678438 42.6444506,29.8567972 C42.9330875,30.1457507 43.0946183,30.537852 43.0932709,30.946268 C43.0943927,31.3543917 42.9328782,31.7461474 42.6444483,32.0348937 C42.3560185,32.32364 41.9644401,32.485584 41.5563154,32.4849097 L8.85195941,32.4849097 C8.44368878,32.4858085 8.05189326,32.3239637 7.76328075,32.035193 C7.47466825,31.7464222 7.31303821,31.3545381 7.31416082,30.946268 L7.31416082,30.946268 Z M29.3289618,34.8244881 C29.3289618,33.973809 30.0261983,33.2850034 30.8718189,33.2850034 L39.7790789,33.2850034 C40.6314442,33.2850034 41.321936,33.9679073 41.321936,34.8236451 C41.3191513,35.674039 40.6294769,36.362206 39.7790789,36.3631298 L30.872662,36.3631298 C30.0202967,36.3631298 29.3298048,35.6802258 29.3298048,34.8236451 L29.3289618,34.8244881 Z M26.7136924,38.7010221 C26.7136924,37.851186 27.410929,37.1623804 28.2565496,37.1623804 L37.1638095,37.1623804 C38.0161749,37.1623804 38.7075098,37.8452844 38.7075098,38.7010221 C38.7047251,39.5514161 38.0150506,40.2395831 37.1646526,40.2405069 L28.2565496,40.2405069 C27.4041842,40.2405069 26.7136924,39.5576029 26.7136924,38.7010221 L26.7136924,38.7010221 Z M22.3270882,42.5792422 C22.3270882,41.7285631 23.0234817,41.0397575 23.8699454,41.0397575 L32.7772053,41.0397575 C33.6295707,41.0397575 34.3200625,41.7226614 34.3200625,42.5792422 C34.3168149,43.4293068 33.6272756,44.1169621 32.7772053,44.1178839 L23.8699454,44.1178839 C23.01758,44.1178839 22.3262451,43.4349799 22.3262451,42.5792422 L22.3270882,42.5792422 Z M16.2905543,46.4566193 C16.2905543,45.6067832 16.9869477,44.9171345 17.8334114,44.9171345 L26.7389852,44.9171345 C27.5913505,44.9171345 28.2826854,45.6000385 28.2826854,46.4566193 C28.2794378,47.3066838 27.5898985,47.9943392 26.7398283,47.995261 L17.8317252,47.995261 C16.9793599,47.995261 16.2888681,47.312357 16.2888681,46.4566193 L16.2905543,46.4566193 Z" transform="rotate(42 34.907 16.39)"/>
</svg>
