<svg xmlns="http://www.w3.org/2000/svg" width="742" height="689" viewBox="0 0 742 689">
  <g fill="#FFFFFF" fill-rule="evenodd">
    <path d="M292.8017,138.102909 L292.8017,137.453125 C298.031161,136.983836 300.461756,134.168103 300.461756,128.897629 L300.461756,120.342134 C300.461756,114.674569 302.339943,112.94181 308.342776,112.94181 L310,112.94181 L310,105 L306.133144,105 C294.90085,105 290.186969,108.970905 290.186969,118.573276 L290.186969,125.251616 C290.186969,130.883082 288.640227,132.760237 284,132.760237 L284,142.759698 C288.640227,142.759698 290.186969,144.636853 290.186969,150.23222 L290.186969,158.101832 C290.186969,167.920797 294.937677,172 306.133144,172 L310,172 L310,164.094289 L308.342776,164.094289 C302.376771,164.094289 300.461756,162.36153 300.461756,156.730065 L300.461756,147.344289 C300.461756,141.821121 297.810198,138.572198 292.8017,138.102909 Z"/>
    <polygon points="484.086 395.162 499 395.162 499 385.802 484.086 385.802 484.086 371 474.878 371 474.878 385.802 460 385.802 460 395.162 474.878 395.162 474.878 410 484.086 410"/>
    <polygon points="38 214 38 204 14 204 14 214"/>
    <path d="M149 422L149 412.52439 110 412.52439 110 422 149 422zM149 404.47561L149 395 110 395 110 404.47561 149 404.47561zM339.268314 587L334.202118 587 334.202118 582.429483C322.875552 581.771329 316.036187 575.994196 316 567.072548L326.349515 567.072548C326.602824 570.692397 329.678729 573.398143 334.202118 573.873476L334.202118 560.271619 330.402471 559.357516C321.717564 557.309925 317.049426 552.264074 317.049426 544.622171 317.049426 535.627394 323.418358 529.850261 334.202118 528.972722L334.202118 524 339.268314 524 339.268314 528.972722C349.328332 529.923389 355.842012 535.883343 355.986761 544.329658L345.890556 544.329658C345.781995 541.002322 343.067961 538.260012 339.268314 537.71155L339.268314 550.728381 343.140335 551.532792C352.440424 553.543819 357 558.406849 357 566.304701 357 575.628555 350.594881 581.405688 339.268314 582.356355L339.268314 587zM346.72286 567.547882C346.72286 564.183981 344.33451 562.13639 339.268314 561.185723L339.268314 573.910041C343.972639 573.617528 346.72286 571.240859 346.72286 567.547882zM327.543689 543.598375C327.543689 546.669762 329.823477 548.790482 334.202118 549.668021L334.202118 537.674985C330.29391 537.89437 327.543689 540.344167 327.543689 543.598375z"/>
    <polygon points="23.589 652.251 27 646.231 17.746 642.626 27 638.805 23.589 632.713 15.714 638.985 16.911 629 10.089 629 11.286 638.985 3.411 632.713 0 638.805 9.29 642.626 0 646.231 3.411 652.251 11.25 646.411 10.089 656 16.911 656 15.75 646.411"/>
    <polygon points="721 628 721 689 742 689 742 680.958 731.053 680.958 731.053 636.078 741.571 636.078 741.571 628"/>
    <polygon points="107.738 75 123 12 113.044 12 98 75"/>
    <polygon points="588 0 567.465 0 567.465 8.078 577.983 8.078 577.983 52.958 567 52.958 567 61 588 61"/>
    <path d="M552.726582,484.718534 C556.55443,484.718534 559,482.042877 559,478.340941 C559,474.639004 556.55443,472 552.726582,472 C548.934177,472 546.453165,474.639004 546.453165,478.340941 C546.453165,482.042877 548.934177,484.718534 552.726582,484.718534 Z M553.293671,525 L558.007595,501.72545 L547.8,501.72545 L545,525 L553.293671,525 Z"/>
  </g>
</svg>
