<svg width="300" height="99" viewBox="0 0 300 99" version="1.1" xmlns="http://www.w3.org/2000/svg"><title>Group 18</title><g id="Page-1" stroke="none" stroke-width="1" fill="none" fill-rule="evenodd"><g id="landing-copy" transform="translate(-570 -416)" fill="#FFF"><g id="Group-2" transform="translate(430 416)"><g id="Group-18" transform="translate(140)"><g id="Group-17-Copy" transform="translate(0 6.202)"><g id="Group-14"><g id="Group-3-Copy-3"><g id="Group" transform="translate(0 .076)"><path d="M46.258 84.613c21.187 0 38.364-17.175 38.364-38.36 0-21.184-17.177-38.36-38.364-38.36-21.186 0-38.363 17.176-38.363 38.36 0 21.185 17.176 38.36 38.363 38.36zm0-84.613c25.548 0 46.258 20.71 46.258 46.253 0 25.545-20.712 46.254-46.258 46.254C20.711 92.507 0 71.797 0 46.253 0 20.708 20.712 0 46.258 0z" id="Rectangle"/></g></g><g id="Group-2-Copy-2" transform="translate(114.474 11.67)"><path d="M0 68.93h17.733v-4.02H4.21v-8.233h11.543v-3.77H4.21v-8.002h13.524v-4.02H0V68.93zm23.338-6.81l-2.762 3.194c2.96 2.564 6.495 3.847 10.61 3.847 6.362-.077 9.612-2.796 9.752-8.156 0-1.988-.616-3.732-1.848-5.232-1.244-1.526-3.168-2.469-5.77-2.828a80.969 80.969 0 0 1-3.125-.442c-1.371-.257-2.368-.718-2.99-1.385-.622-.654-.933-1.385-.933-2.193.025-1.347.488-2.36 1.39-3.04.863-.653 1.943-.98 3.238-.98 2.502.051 4.794.77 6.876 2.154l2.343-3.5c-2.552-1.86-5.555-2.828-9.01-2.905-2.87.025-5.085.782-6.647 2.27-1.613 1.5-2.419 3.475-2.419 5.924 0 2.039.641 3.77 1.924 5.194 1.244 1.385 3.06 2.276 5.447 2.673 1.334.193 2.56.366 3.677.52 2.438.423 3.644 1.68 3.619 3.77-.051 2.552-1.88 3.853-5.486 3.905-3.048-.026-5.676-.956-7.886-2.79zm27.548-17.215h6.076c1.143-.026 2.146.237 3.01.788a3.516 3.516 0 0 1 1.333 1.366c.305.641.457 1.43.457 2.366 0 1.129-.375 2.154-1.124 3.078-.787.949-1.962 1.436-3.524 1.462h-6.228v-9.06zm-4.21 24.025h4.21V57.985h6.4c2.857-.051 5.028-.975 6.514-2.77 1.448-1.706 2.172-3.597 2.172-5.674 0-1.54-.286-2.873-.858-4.001-.546-1.167-1.257-2.065-2.133-2.693-1.041-.834-2.07-1.385-3.086-1.655a15.935 15.935 0 0 0-3.162-.308H46.676V68.93zM75.31 44.674h6.59c1.346 0 2.375.288 3.086.866.902.654 1.365 1.711 1.39 3.173 0 1.219-.387 2.245-1.161 3.078-.788.898-1.969 1.36-3.543 1.385H75.31v-8.502zM71.1 68.93h4.21V56.946h5.371l5.734 11.984h5.009l-6.438-12.445c3.53-1.373 5.32-3.963 5.371-7.772-.076-2.59-.996-4.584-2.762-5.982-1.46-1.231-3.346-1.847-5.657-1.847H71.1V68.93zm25.09 0h17.734v-4.02H100.4v-8.233h11.543v-3.77H100.4v-8.002h13.524v-4.02H96.191V68.93zm23.34-6.81l-2.763 3.194c2.959 2.564 6.495 3.847 10.61 3.847 6.362-.077 9.612-2.796 9.752-8.156 0-1.988-.616-3.732-1.848-5.232-1.244-1.526-3.168-2.469-5.771-2.828a80.969 80.969 0 0 1-3.124-.442c-1.371-.257-2.368-.718-2.99-1.385-.622-.654-.934-1.385-.934-2.193.026-1.347.49-2.36 1.39-3.04.864-.653 1.944-.98 3.239-.98 2.502.051 4.794.77 6.876 2.154l2.343-3.5c-2.552-1.86-5.556-2.828-9.01-2.905-2.87.025-5.085.782-6.647 2.27-1.613 1.5-2.42 3.475-2.42 5.924 0 2.039.642 3.77 1.925 5.194 1.244 1.385 3.06 2.276 5.447 2.673 1.334.193 2.559.366 3.676.52 2.439.423 3.645 1.68 3.62 3.77-.051 2.552-1.88 3.853-5.486 3.905-3.048-.026-5.676-.956-7.886-2.79zm23.68 0l-2.762 3.194c2.96 2.564 6.496 3.847 10.61 3.847 6.362-.077 9.612-2.796 9.752-8.156 0-1.988-.616-3.732-1.848-5.232-1.244-1.526-3.168-2.469-5.77-2.828a80.969 80.969 0 0 1-3.125-.442c-1.371-.257-2.368-.718-2.99-1.385-.622-.654-.933-1.385-.933-2.193.025-1.347.488-2.36 1.39-3.04.863-.653 1.943-.98 3.238-.98 2.502.051 4.794.77 6.876 2.154l2.343-3.5c-2.552-1.86-5.555-2.828-9.01-2.905-2.87.025-5.085.782-6.647 2.27-1.613 1.5-2.419 3.475-2.419 5.924 0 2.039.641 3.77 1.924 5.194 1.244 1.385 3.06 2.276 5.447 2.673 1.334.193 2.56.366 3.677.52 2.438.423 3.644 1.68 3.619 3.77-.051 2.552-1.88 3.853-5.486 3.905-3.048-.026-5.676-.956-7.886-2.79zm22.386-7.213c0 3.206.095 5.373.286 6.502.101.603.228 1.103.38 1.5.166.385.35.789.553 1.212.673 1.295 1.752 2.437 3.238 3.424 1.46 1.026 3.283 1.565 5.467 1.616 2.21-.051 4.05-.59 5.524-1.616 1.46-.987 2.514-2.129 3.161-3.424.47-.68.794-1.584.972-2.712.165-1.129.247-3.296.247-6.502 0-3.257-.082-5.437-.247-6.54-.178-1.103-.502-1.994-.972-2.674-.647-1.295-1.701-2.449-3.161-3.462-1.473-1.026-3.315-1.552-5.524-1.577-2.184.025-4.007.551-5.467 1.577-1.486 1.013-2.565 2.167-3.238 3.462-.419.68-.73 1.571-.933 2.674-.19 1.103-.286 3.283-.286 6.54zm4.229 0c0-2.757.101-4.636.304-5.636.178-.949.54-1.725 1.086-2.327.445-.577 1.029-1.058 1.752-1.443.712-.372 1.562-.57 2.553-.596 1.003.025 1.873.224 2.61.596.698.385 1.256.866 1.675 1.443.547.602.921 1.378 1.124 2.327.19 1 .286 2.88.286 5.636 0 2.757-.095 4.623-.286 5.598-.203.974-.577 1.763-1.124 2.366-.419.577-.977 1.045-1.676 1.404-.736.423-1.606.635-2.61.635-.99 0-1.84-.212-2.552-.635-.723-.36-1.307-.827-1.752-1.404-.546-.603-.908-1.392-1.086-2.366-.203-.975-.304-2.84-.304-5.598z" id="ESPRESSO"/><g id="Group-5"><path d="M.012 28.101H9.44c2.083 0 3.841-.461 5.276-1.385 1.448-.859 2.578-1.949 3.39-3.27.305-.5.566-.98.782-1.442a7.097 7.097 0 0 0 .457-1.616c.216-1.193.324-3.296.324-6.31 0-2.833-.07-4.827-.21-5.982-.178-1.154-.603-2.257-1.276-3.308-1.88-3.13-4.698-4.706-8.457-4.732H.012V28.1zm4.21-24.025H9.25c2.133-.051 3.784.738 4.952 2.366.571.654.933 1.507 1.086 2.558.114 1.052.171 2.796.171 5.233 0 2.5-.057 4.206-.171 5.116-.127.924-.426 1.687-.896 2.29-1.066 1.628-2.78 2.442-5.142 2.442H4.22V4.076zM24.55 10.22c0 2.103.171 3.706.514 4.809a7.702 7.702 0 0 0 1.638 2.866c.546.628 1.308 1.193 2.286 1.693.965.551 2.203.84 3.714.865 1.562-.025 2.826-.314 3.79-.865.521-.231.947-.507 1.277-.827.368-.283.68-.571.933-.866a6.863 6.863 0 0 0 1.676-2.866c.318-1.103.476-2.706.476-4.809s-.158-3.719-.476-4.847c-.33-1.103-.889-2.033-1.676-2.79-.52-.666-1.257-1.263-2.21-1.788-.964-.5-2.228-.763-3.79-.79-1.51.027-2.749.29-3.714.79-.978.525-1.74 1.122-2.286 1.788-.736.757-1.282 1.687-1.638 2.79-.343 1.128-.514 2.744-.514 4.847zm12.324.038c0 1.36-.064 2.36-.19 3.001a3.981 3.981 0 0 1-.782 1.731c-.292.385-.724.725-1.295 1.02-.546.282-1.181.423-1.905.423a4.158 4.158 0 0 1-1.866-.423c-.547-.295-.991-.635-1.334-1.02a5.06 5.06 0 0 1-.743-1.73c-.152-.642-.228-1.655-.228-3.04 0-1.398.076-2.424.228-3.078.153-.628.4-1.18.743-1.654a3.537 3.537 0 0 1 1.334-1.058 4.323 4.323 0 0 1 1.866-.404c.724 0 1.359.135 1.905.404.571.257 1.003.61 1.295 1.058.394.475.654 1.026.781 1.654.127.654.19 1.693.19 3.116zm9.322 8.291c.025 2.95.99 5.29 2.895 7.021 1.867 1.783 4.19 2.687 6.971 2.712 2.832-.025 5.175-.93 7.029-2.712 1.841-1.731 2.787-4.071 2.838-7.021V.006h-4.21v18.081c-.025 1.911-.558 3.367-1.6 4.367-1.066 1.051-2.418 1.577-4.057 1.577-1.638 0-2.977-.526-4.019-1.577-1.066-1-1.612-2.456-1.638-4.367V.006h-4.21v18.543zm26.364 9.552h11.695c2.184 0 4.006-.737 5.466-2.212 1.473-1.41 2.223-3.327 2.248-5.751a7.93 7.93 0 0 0-1.086-4.059c-.774-1.205-1.917-2.007-3.428-2.404v-.077c.8-.385 1.473-.815 2.019-1.289.546-.449.965-.923 1.257-1.423a6.524 6.524 0 0 0 .819-3.309c0-2.257-.692-4.071-2.076-5.444C88.102.774 86.052.082 83.32.056H72.56V28.1zm10.685-12.445c1.562.026 2.705.442 3.429 1.25.724.821 1.085 1.808 1.085 2.963 0 1.128-.361 2.103-1.085 2.923-.724.834-1.867 1.264-3.429 1.29H76.77v-8.426h6.476zm-.4-11.81c1.537.025 2.667.403 3.39 1.134.737.782 1.105 1.738 1.105 2.866 0 1.129-.368 2.065-1.104 2.809-.724.808-1.854 1.212-3.39 1.212h-6.077V3.845h6.076zM97.65 28.1h17.733v-4.02H101.86V.056h-4.21V28.1zm22.996 0h17.733v-4.02h-13.524v-8.233h11.543v-3.77h-11.543V4.076h13.524V.056h-17.733V28.1z" id="DoUBLE"/><ellipse id="Oval-2" cx="38.538" cy="26.024" rx="2.104" ry="2.104"/></g></g></g></g><ellipse id="Oval" cx="46.179" cy="52.492" rx="25.249" ry="25.249"/><ellipse id="Oval-3" cx="90.941" cy="7.961" rx="7.918" ry="7.918"/></g></g></g></g></svg>