<svg width="291" height="43" viewBox="0 0 291 43" version="1.1" xmlns="http://www.w3.org/2000/svg"><title>Group 2</title><defs><linearGradient x1="50%" y1="-7.686%" x2="50%" y2="100%" id="linearGradient-1"><stop stop-color="#E6AA4B" offset="0%"/><stop stop-color="#D04436" offset="100%"/></linearGradient></defs><g id="Page-2" stroke="none" stroke-width="1" fill="none" fill-rule="evenodd"><g id="Desktop-HD" transform="translate(-533 -476)"><g id="Group-2" transform="translate(523.75 467.943)"><g id="Group-3" fill="url(#linearGradient-1)"><g id="Group" transform="rotate(42 15.665 40.91)"><path d="M11.887 1.956c0-1.008.826-1.826 1.83-1.826h10.565c1.01 0 1.83.81 1.83 1.826a1.832 1.832 0 0 1-1.83 1.825H13.717c-1.01 0-1.83-.81-1.83-1.825zm5.919 4.6c0-1.01.826-1.826 1.83-1.826h10.565c1.011 0 1.83.81 1.83 1.825a1.832 1.832 0 0 1-1.83 1.826H19.637c-1.011 0-1.831-.81-1.831-1.826zm8.306 4.598c0-1.008.827-1.825 1.83-1.825h10.565c1.011 0 1.83.81 1.83 1.825a1.832 1.832 0 0 1-1.83 1.826H27.943c-1.011 0-1.83-.81-1.83-1.826zm-4.105 4.6c0-1.009.818-1.826 1.819-1.826h21.376c1.005 0 1.82.81 1.82 1.826a1.825 1.825 0 0 1-1.82 1.825H23.826c-1.005 0-1.82-.81-1.82-1.825zM4.01 20.353c0-1.008.815-1.826 1.827-1.826h44.464c1.01 0 1.828.81 1.828 1.826a1.824 1.824 0 0 1-1.828 1.825H5.837c-1.009 0-1.827-.81-1.827-1.825zM0 24.952a1.82 1.82 0 0 1 1.824-1.826h38.79a1.82 1.82 0 0 1 1.824 1.826 1.82 1.82 0 0 1-1.823 1.825H1.824A1.82 1.82 0 0 1 0 24.952zm26.112 4.6c0-1.009.827-1.826 1.83-1.826h10.565c1.011 0 1.83.81 1.83 1.825a1.832 1.832 0 0 1-1.83 1.826H27.943c-1.011 0-1.83-.81-1.83-1.826zM23.01 34.15c0-1.008.827-1.825 1.83-1.825h10.565c1.011 0 1.831.81 1.831 1.825a1.832 1.832 0 0 1-1.83 1.826H24.84c-1.011 0-1.83-.81-1.83-1.826zm-5.203 4.6c0-1.009.826-1.826 1.83-1.826h10.565c1.011 0 1.83.81 1.83 1.826a1.832 1.832 0 0 1-1.83 1.825H19.637c-1.011 0-1.831-.81-1.831-1.825zm-7.16 4.599c0-1.008.826-1.826 1.83-1.826H23.04c1.011 0 1.831.81 1.831 1.826a1.832 1.832 0 0 1-1.83 1.825H12.475c-1.011 0-1.83-.81-1.83-1.825z" id="Combined-Shape"/></g></g><path d="M71.921 37.358c.093 4.15 3.167 7.85 9.984 7.85 6.575 0 10.188-3.346 10.188-8.149 0-4.485-2.831-6.429-6.873-7.27l-3.855-.84c-2.217-.45-3.465-1.346-3.465-2.804 0-1.776 1.565-3.102 4.228-3.102 2.794 0 4.396 1.495 4.545 3.345h5.029c-.037-4.093-3.427-7.681-9.555-7.681-5.681 0-9.63 3.046-9.63 7.85 0 4.055 2.57 6.279 6.557 7.157l3.818.841c2.589.58 3.874 1.383 3.874 3.065 0 1.869-1.565 3.196-4.6 3.196-3.037 0-4.9-1.533-5.067-3.458h-5.178zm38.086 7.364l4.601-16.989h.205l4.582 16.989h4.973l6.65-25.51h-5.775l-3.613 17.866h-.26l-4.396-17.867h-4.545l-4.377 17.867h-.261l-3.632-17.867h-5.793l6.668 25.51h4.973zm33.915 0v-25.51h-5.402v25.51h5.402zm15.437 0v-9.868h10.076v-4.467H159.36V23.81h11.045V19.21h-16.447v25.51h5.402zm29.89 0V23.884h7.116V19.21h-19.632v4.673h7.115v20.838h5.402zm20.206 0v-9.868h10.077v-4.467h-10.077V23.81H220.5V19.21h-16.447v25.51h5.402zm36.037-4.542h-11.25v-6.223h10.58v-4.205h-10.58v-6h11.25v-4.54h-16.595v25.51h16.595V40.18zm7.764-2.822c.093 4.15 3.166 7.85 9.983 7.85 6.575 0 10.189-3.346 10.189-8.149 0-4.485-2.832-6.429-6.873-7.27l-3.856-.84c-2.216-.45-3.464-1.346-3.464-2.804 0-1.776 1.564-3.102 4.228-3.102 2.794 0 4.395 1.495 4.544 3.345h5.03c-.038-4.093-3.428-7.681-9.556-7.681-5.68 0-9.63 3.046-9.63 7.85 0 4.055 2.571 6.279 6.557 7.157l3.818.841c2.59.58 3.875 1.383 3.875 3.065 0 1.869-1.565 3.196-4.601 3.196s-4.899-1.533-5.066-3.458h-5.178zm39.148 7.364V23.884h7.115V19.21h-19.632v4.673h7.115v20.838h5.402z" id="swiftfest" fill="#383838"/></g></g></g></svg>