<svg xmlns="http://www.w3.org/2000/svg" width="742" height="689" viewBox="0 0 742 689"><g fill="#FFF" fill-rule="evenodd"><path d="M292.802 138.103v-.65c5.23-.47 7.66-3.285 7.66-8.555v-8.556c0-5.667 1.878-7.4 7.88-7.4H310V105h-3.867c-11.232 0-15.946 3.97-15.946 13.573v6.679c0 5.631-1.547 7.508-6.187 7.508v10c4.64 0 6.187 1.877 6.187 7.472v7.87c0 9.819 4.75 13.898 15.946 13.898H310v-7.906h-1.657c-5.966 0-7.881-1.732-7.881-7.364v-9.386c0-5.523-2.652-8.772-7.66-9.241zM484.086 395.162H499v-9.36h-14.914V371h-9.208v14.802H460v9.36h14.878V410h9.208zM38 214v-10H14v10zM149 422v-9.476h-39V422h39zm0-17.524V395h-39v9.476h39zM339.268 587h-5.066v-4.57c-11.326-.659-18.166-6.436-18.202-15.357h10.35c.253 3.62 3.329 6.325 7.852 6.8v-13.601l-3.8-.914c-8.684-2.048-13.353-7.094-13.353-14.736 0-8.995 6.37-14.772 17.153-15.65V524h5.066v4.973c10.06.95 16.574 6.91 16.719 15.357H345.89c-.109-3.328-2.823-6.07-6.623-6.618v13.016l3.872.805c9.3 2.01 13.86 6.874 13.86 14.772 0 9.324-6.405 15.1-17.732 16.051V587zm7.455-19.452c0-3.364-2.388-5.412-7.455-6.362v12.724c4.705-.292 7.455-2.67 7.455-6.362zm-19.18-23.95c0 3.072 2.28 5.192 6.66 6.07v-11.993c-3.91.22-6.66 2.67-6.66 5.923zM23.589 652.251l3.411-6.02-9.254-3.605L27 638.805l-3.411-6.092-7.875 6.272L16.911 629h-6.822l1.197 9.985-7.875-6.272L0 638.805l9.29 3.821L0 646.231l3.411 6.02 7.839-5.84L10.089 656h6.822l-1.161-9.589zM721 628v61h21v-8.042h-10.947v-44.88h10.518V628zM107.738 75L123 12h-9.956L98 75zM588 0h-20.535v8.078h10.518v44.88H567V61h21zM552.727 484.719c3.827 0 6.273-2.676 6.273-6.378S556.554 472 552.727 472c-3.793 0-6.274 2.639-6.274 6.34 0 3.703 2.481 6.379 6.274 6.379zm.567 40.281l4.714-23.275H547.8L545 525h8.294z"/></g></svg>