<svg width="34" height="33" viewBox="0 0 34 33" version="1.1" xmlns="http://www.w3.org/2000/svg"><title>Group</title><g id="UI" stroke="none" stroke-width="1" fill="none" fill-rule="evenodd"><g id="Siri---1" transform="translate(-703 -353)"><g id="Group" transform="translate(703 354)"><path d="M3.984 19.162C1.687 19.746 0 21.69 0 23.999c0 2.291 1.662 4.224 3.933 4.824A.847.847 0 0 0 4.997 28l-.025-8.074a.792.792 0 0 0-.988-.765z" id="Oval-2" fill="#FFF"/><path d="M32.984 19.162C30.687 19.746 29 21.69 29 23.999c0 2.291 1.662 4.224 3.933 4.824A.847.847 0 0 0 33.997 28l-.025-8.074a.792.792 0 0 0-.988-.765z" id="Oval-2-Copy" fill="#FFF" transform="matrix(-1 0 0 1 63 0)"/><rect id="Rectangle-2" fill="#FFF" x="6" y="16" width="6" height="16" rx="3"/><rect id="Rectangle-2-Copy" fill="#FFF" x="22" y="16" width="6" height="16" rx="3"/><path d="M4 23V12.88C4 5.767 9.82 0 17 0s13 5.767 13 12.88V23" id="Rectangle-3" stroke="#FFF" stroke-width="2"/></g></g></g></svg>