<svg width="292" height="184" viewBox="0 0 292 184" version="1.1" xmlns="http://www.w3.org/2000/svg"><title>headphone_hint</title><g id="UI" stroke="none" stroke-width="1" fill="none" fill-rule="evenodd"><g id="Siri---1-Copy" transform="translate(-574 -320)"><g id="headphone_hint" transform="translate(574 320)"><circle id="Oval" stroke="#FFF" stroke-width="2" cx="146" cy="50" r="49"/><path d="M30.016 128.8h6.88v1.248H31.36v3.712h5.44v1.248h-5.44V140h-1.344v-11.2zm17.152 7.328c0 .661-.11 1.245-.328 1.752-.219.507-.51.933-.872 1.28-.363.347-.787.61-1.272.792-.485.181-.99.272-1.512.272-.533 0-1.04-.09-1.52-.272a3.702 3.702 0 0 1-1.264-.792 3.861 3.861 0 0 1-.872-1.28c-.219-.507-.328-1.09-.328-1.752v-.192c0-.65.11-1.23.328-1.736a3.89 3.89 0 0 1 .88-1.288 3.726 3.726 0 0 1 1.272-.8 4.22 4.22 0 0 1 1.504-.272c.523 0 1.024.09 1.504.272.48.181.904.448 1.272.8.368.352.661.781.88 1.288.219.507.328 1.085.328 1.736v.192zm-3.984 2.912c.384 0 .739-.067 1.064-.2.325-.133.61-.328.856-.584a2.75 2.75 0 0 0 .576-.92c.139-.357.208-.76.208-1.208v-.192c0-.427-.07-.819-.208-1.176a2.648 2.648 0 0 0-2.496-1.736 2.648 2.648 0 0 0-2.496 1.736c-.139.357-.208.75-.208 1.176v.192c0 .448.07.85.208 1.208.139.357.33.664.576.92.245.256.53.45.856.584.325.133.68.2 1.064.2zm5.84-6.976h2.88v1.056h.192c.203-.437.49-.76.864-.968.373-.208.8-.312 1.28-.312.8 0 1.445.261 1.936.784.49.523.752 1.285.784 2.288l-1.312.192c0-.736-.176-1.267-.528-1.592-.352-.325-.784-.488-1.296-.488-.33 0-.616.064-.856.192s-.44.304-.6.528c-.16.224-.277.485-.352.784a3.948 3.948 0 0 0-.112.96v3.36h2.016V140h-5.088v-1.152h1.824v-5.632h-1.632v-1.152zm25.792 6.592h-.192c-.256.533-.61.928-1.064 1.184a2.87 2.87 0 0 1-1.432.384 3.947 3.947 0 0 1-1.456-.264 3.3 3.3 0 0 1-1.176-.784c-.336-.347-.6-.77-.792-1.272-.192-.501-.288-1.083-.288-1.744v-.256c0-.65.096-1.227.288-1.728.192-.501.456-.925.792-1.272s.728-.61 1.176-.792a3.76 3.76 0 0 1 1.424-.272c.544 0 1.037.12 1.48.36.443.24.792.61 1.048 1.112h.192v-1.248h1.248v6.304c0 .32.144.48.432.48h.4V140h-.848c-.363 0-.659-.117-.888-.352-.23-.235-.344-.533-.344-.896v-.096zm-2.56.384c.373 0 .717-.07 1.032-.208.315-.139.584-.336.808-.592.224-.256.4-.563.528-.92.128-.357.192-.755.192-1.192v-.192c0-.427-.064-.819-.192-1.176a2.751 2.751 0 0 0-.536-.92 2.455 2.455 0 0 0-.816-.6 2.412 2.412 0 0 0-1.016-.216c-.373 0-.715.07-1.024.208-.31.139-.579.333-.808.584-.23.25-.408.555-.536.912-.128.357-.192.75-.192 1.176v.256c0 .907.237 1.613.712 2.12.475.507 1.09.76 1.848.76zM89.6 140h-1.248v-11.2H89.6v4.512h.192a2.75 2.75 0 0 1 1.152-1.096 3.466 3.466 0 0 1 1.6-.376c.49 0 .955.09 1.392.272.437.181.824.443 1.16.784.336.341.603.763.8 1.264.197.501.296 1.072.296 1.712v.32c0 .65-.096 1.227-.288 1.728a3.619 3.619 0 0 1-.792 1.264c-.336.341-.728.6-1.176.776a3.86 3.86 0 0 1-1.424.264c-.256 0-.517-.03-.784-.088a3.15 3.15 0 0 1-.76-.272 3.298 3.298 0 0 1-.664-.448 2.379 2.379 0 0 1-.512-.632H89.6V140zm2.656-.96a2.72 2.72 0 0 0 1.056-.2c.32-.133.6-.323.84-.568.24-.245.427-.544.56-.896.133-.352.2-.747.2-1.184v-.32c0-.427-.067-.813-.2-1.16a2.659 2.659 0 0 0-.56-.896 2.539 2.539 0 0 0-.848-.584 2.645 2.645 0 0 0-1.048-.208c-.373 0-.72.072-1.04.216-.32.144-.6.344-.84.6s-.43.563-.568.92c-.139.357-.208.75-.208 1.176v.192c0 .437.07.835.208 1.192.139.357.328.664.568.92.24.256.52.453.84.592.32.139.667.208 1.04.208zm7.088-2.624c.032.79.277 1.424.736 1.904.459.48 1.099.72 1.92.72.373 0 .699-.043.976-.128s.515-.203.712-.352c.197-.15.357-.323.48-.52s.221-.408.296-.632l1.184.32a3.504 3.504 0 0 1-1.24 1.8c-.603.464-1.416.696-2.44.696a4.024 4.024 0 0 1-1.56-.296 3.508 3.508 0 0 1-1.224-.84 3.904 3.904 0 0 1-.8-1.296 4.618 4.618 0 0 1-.288-1.664v-.384c0-.555.099-1.072.296-1.552.197-.48.472-.893.824-1.24a3.858 3.858 0 0 1 1.24-.816c.475-.197.99-.296 1.544-.296.65 0 1.213.12 1.688.36.475.24.864.536 1.168.888.304.352.528.736.672 1.152.144.416.216.8.216 1.152v1.024h-6.4zm2.656-3.392c-.352 0-.68.056-.984.168a2.5 2.5 0 0 0-1.36 1.184 2.622 2.622 0 0 0-.28.888h5.12a2.272 2.272 0 0 0-.808-1.632 2.587 2.587 0 0 0-.784-.448 2.626 2.626 0 0 0-.904-.16zm5.952-.96h2.496V128.8h1.248v3.264h3.072v1.152h-3.072v5.152c0 .32.144.48.432.48h2.256V140h-2.704c-.363 0-.659-.117-.888-.352-.23-.235-.344-.533-.344-.896v-5.536h-2.496v-1.152zm9.792 0h2.496V128.8h1.248v3.264h3.072v1.152h-3.072v5.152c0 .32.144.48.432.48h2.256V140h-2.704c-.363 0-.659-.117-.888-.352-.23-.235-.344-.533-.344-.896v-5.536h-2.496v-1.152zm10.976 4.352c.032.79.277 1.424.736 1.904.459.48 1.099.72 1.92.72.373 0 .699-.043.976-.128s.515-.203.712-.352c.197-.15.357-.323.48-.52s.221-.408.296-.632l1.184.32a3.504 3.504 0 0 1-1.24 1.8c-.603.464-1.416.696-2.44.696a4.024 4.024 0 0 1-1.56-.296 3.508 3.508 0 0 1-1.224-.84 3.904 3.904 0 0 1-.8-1.296 4.618 4.618 0 0 1-.288-1.664v-.384c0-.555.099-1.072.296-1.552.197-.48.472-.893.824-1.24a3.858 3.858 0 0 1 1.24-.816c.475-.197.99-.296 1.544-.296.65 0 1.213.12 1.688.36.475.24.864.536 1.168.888.304.352.528.736.672 1.152.144.416.216.8.216 1.152v1.024h-6.4zm2.656-3.392c-.352 0-.68.056-.984.168a2.5 2.5 0 0 0-1.36 1.184 2.622 2.622 0 0 0-.28.888h5.12a2.272 2.272 0 0 0-.808-1.632 2.587 2.587 0 0 0-.784-.448 2.626 2.626 0 0 0-.904-.16zm5.776-.96h2.88v1.056h.192c.203-.437.49-.76.864-.968.373-.208.8-.312 1.28-.312.8 0 1.445.261 1.936.784.49.523.752 1.285.784 2.288l-1.312.192c0-.736-.176-1.267-.528-1.592-.352-.325-.784-.488-1.296-.488-.33 0-.616.064-.856.192s-.44.304-.6.528c-.16.224-.277.485-.352.784a3.948 3.948 0 0 0-.112.96v3.36h2.016V140h-5.088v-1.152h1.824v-5.632h-1.632v-1.152zm20.944 4.352c.032.79.277 1.424.736 1.904.459.48 1.099.72 1.92.72.373 0 .699-.043.976-.128s.515-.203.712-.352c.197-.15.357-.323.48-.52s.221-.408.296-.632l1.184.32a3.504 3.504 0 0 1-1.24 1.8c-.603.464-1.416.696-2.44.696a4.024 4.024 0 0 1-1.56-.296 3.508 3.508 0 0 1-1.224-.84 3.904 3.904 0 0 1-.8-1.296 4.618 4.618 0 0 1-.288-1.664v-.384c0-.555.099-1.072.296-1.552.197-.48.472-.893.824-1.24a3.858 3.858 0 0 1 1.24-.816c.475-.197.99-.296 1.544-.296.65 0 1.213.12 1.688.36.475.24.864.536 1.168.888.304.352.528.736.672 1.152.144.416.216.8.216 1.152v1.024h-6.4zm2.656-3.392c-.352 0-.68.056-.984.168a2.5 2.5 0 0 0-1.36 1.184 2.622 2.622 0 0 0-.28.888h5.12a2.272 2.272 0 0 0-.808-1.632 2.587 2.587 0 0 0-.784-.448 2.626 2.626 0 0 0-.904-.16zm11.872-.96h1.424l-2.336 3.776v.192L174.24 140h-1.456l-2.16-3.488h-.288l-2.16 3.488h-1.456l2.528-3.968v-.192l-2.336-3.776h1.424l2 3.296h.288l2-3.296zm5.104 11.136h-1.248v-11.136h1.248v1.248h.192a2.75 2.75 0 0 1 1.152-1.096 3.466 3.466 0 0 1 1.6-.376c.49 0 .955.09 1.392.272.437.181.824.443 1.16.784.336.341.603.763.8 1.264.197.501.296 1.072.296 1.712v.32c0 .65-.096 1.227-.288 1.728a3.619 3.619 0 0 1-.792 1.264c-.336.341-.728.6-1.176.776a3.86 3.86 0 0 1-1.424.264c-.256 0-.517-.03-.784-.088a3.15 3.15 0 0 1-.76-.272 3.298 3.298 0 0 1-.664-.448 2.379 2.379 0 0 1-.512-.632h-.192v4.416zm2.656-4.16a2.72 2.72 0 0 0 1.056-.2c.32-.133.6-.323.84-.568.24-.245.427-.544.56-.896.133-.352.2-.747.2-1.184v-.32c0-.427-.067-.813-.2-1.16a2.659 2.659 0 0 0-.56-.896 2.539 2.539 0 0 0-.848-.584 2.645 2.645 0 0 0-1.048-.208c-.373 0-.72.072-1.04.216-.32.144-.6.344-.84.6s-.43.563-.568.92c-.139.357-.208.75-.208 1.176v.192c0 .437.07.835.208 1.192.139.357.328.664.568.92.24.256.52.453.84.592.32.139.667.208 1.04.208zm7.088-2.624c.032.79.277 1.424.736 1.904.459.48 1.099.72 1.92.72.373 0 .699-.043.976-.128s.515-.203.712-.352c.197-.15.357-.323.48-.52s.221-.408.296-.632l1.184.32a3.504 3.504 0 0 1-1.24 1.8c-.603.464-1.416.696-2.44.696a4.024 4.024 0 0 1-1.56-.296 3.508 3.508 0 0 1-1.224-.84 3.904 3.904 0 0 1-.8-1.296 4.618 4.618 0 0 1-.288-1.664v-.384c0-.555.099-1.072.296-1.552.197-.48.472-.893.824-1.24a3.858 3.858 0 0 1 1.24-.816c.475-.197.99-.296 1.544-.296.65 0 1.213.12 1.688.36.475.24.864.536 1.168.888.304.352.528.736.672 1.152.144.416.216.8.216 1.152v1.024h-6.4zm2.656-3.392c-.352 0-.68.056-.984.168a2.5 2.5 0 0 0-1.36 1.184 2.622 2.622 0 0 0-.28.888h5.12a2.272 2.272 0 0 0-.808-1.632 2.587 2.587 0 0 0-.784-.448 2.626 2.626 0 0 0-.904-.16zm5.776-.96h2.88v1.056h.192c.203-.437.49-.76.864-.968.373-.208.8-.312 1.28-.312.8 0 1.445.261 1.936.784.49.523.752 1.285.784 2.288l-1.312.192c0-.736-.176-1.267-.528-1.592-.352-.325-.784-.488-1.296-.488-.33 0-.616.064-.856.192s-.44.304-.6.528c-.16.224-.277.485-.352.784a3.948 3.948 0 0 0-.112.96v3.36h2.016V140h-5.088v-1.152h1.824v-5.632h-1.632v-1.152zm12.704-2.368c0-.31.11-.573.328-.792a1.08 1.08 0 0 1 .792-.328c.31 0 .573.11.792.328.219.219.328.483.328.792 0 .31-.11.573-.328.792a1.08 1.08 0 0 1-.792.328c-.31 0-.573-.11-.792-.328a1.08 1.08 0 0 1-.328-.792zm-2.272 9.152h2.784v-5.632h-2.496v-1.152h3.744v6.784h2.592V140h-6.624v-1.152zm10.512-2.432c.032.79.277 1.424.736 1.904.459.48 1.099.72 1.92.72.373 0 .699-.043.976-.128s.515-.203.712-.352c.197-.15.357-.323.48-.52s.221-.408.296-.632l1.184.32a3.504 3.504 0 0 1-1.24 1.8c-.603.464-1.416.696-2.44.696a4.024 4.024 0 0 1-1.56-.296 3.508 3.508 0 0 1-1.224-.84 3.904 3.904 0 0 1-.8-1.296 4.618 4.618 0 0 1-.288-1.664v-.384c0-.555.099-1.072.296-1.552.197-.48.472-.893.824-1.24a3.858 3.858 0 0 1 1.24-.816c.475-.197.99-.296 1.544-.296.65 0 1.213.12 1.688.36.475.24.864.536 1.168.888.304.352.528.736.672 1.152.144.416.216.8.216 1.152v1.024h-6.4zm2.656-3.392c-.352 0-.68.056-.984.168a2.5 2.5 0 0 0-1.36 1.184 2.622 2.622 0 0 0-.28.888H222a2.272 2.272 0 0 0-.808-1.632 2.587 2.587 0 0 0-.784-.448 2.626 2.626 0 0 0-.904-.16zm7.472 6.976h-1.248v-7.936h1.248v1.344h.192c.49-1.045 1.344-1.568 2.56-1.568.917 0 1.648.285 2.192.856.544.57.816 1.427.816 2.568V140h-1.248v-4.48c0-.832-.187-1.456-.56-1.872-.373-.416-.88-.624-1.52-.624-.757 0-1.352.259-1.784.776-.432.517-.648 1.208-.648 2.072V140zm15.968-2.816a4.09 4.09 0 0 1-.44 1.216 3.485 3.485 0 0 1-.792.968 3.49 3.49 0 0 1-1.12.632c-.427.15-.901.224-1.424.224-.555 0-1.08-.09-1.576-.272a3.823 3.823 0 0 1-1.304-.792 3.764 3.764 0 0 1-.888-1.272c-.219-.501-.328-1.077-.328-1.728v-.192c0-.64.11-1.216.328-1.728.219-.512.515-.944.888-1.296a3.967 3.967 0 0 1 1.304-.816 4.327 4.327 0 0 1 1.576-.288c.501 0 .965.075 1.392.224.427.15.803.36 1.128.632.325.272.592.595.8.968.208.373.35.779.424 1.216l-1.248.288a2.59 2.59 0 0 0-.232-.808 2.268 2.268 0 0 0-.496-.688 2.324 2.324 0 0 0-.76-.472 2.833 2.833 0 0 0-1.04-.176 2.712 2.712 0 0 0-1.968.824 2.793 2.793 0 0 0-.6.936 3.18 3.18 0 0 0-.216 1.184v.192c0 .448.072.85.216 1.208.144.357.344.659.6.904a2.7 2.7 0 0 0 .896.568c.341.133.71.2 1.104.2.395 0 .739-.061 1.032-.184.293-.123.544-.283.752-.48a2.3 2.3 0 0 0 .496-.68c.123-.256.205-.523.248-.8l1.248.288zm3.28-.768c.032.79.277 1.424.736 1.904.459.48 1.099.72 1.92.72.373 0 .699-.043.976-.128s.515-.203.712-.352c.197-.15.357-.323.48-.52s.221-.408.296-.632l1.184.32a3.504 3.504 0 0 1-1.24 1.8c-.603.464-1.416.696-2.44.696a4.024 4.024 0 0 1-1.56-.296 3.508 3.508 0 0 1-1.224-.84 3.904 3.904 0 0 1-.8-1.296 4.618 4.618 0 0 1-.288-1.664v-.384c0-.555.099-1.072.296-1.552.197-.48.472-.893.824-1.24a3.858 3.858 0 0 1 1.24-.816c.475-.197.99-.296 1.544-.296.65 0 1.213.12 1.688.36.475.24.864.536 1.168.888.304.352.528.736.672 1.152.144.416.216.8.216 1.152v1.024h-6.4zm2.656-3.392c-.352 0-.68.056-.984.168a2.5 2.5 0 0 0-1.36 1.184 2.622 2.622 0 0 0-.28.888h5.12a2.272 2.272 0 0 0-.808-1.632 2.587 2.587 0 0 0-.784-.448 2.626 2.626 0 0 0-.904-.16zm8.608 6.08c0-.31.11-.573.328-.792a1.08 1.08 0 0 1 .792-.328c.31 0 .573.11.792.328.219.219.328.483.328.792v1.568c0 .363-.115.661-.344.896-.23.235-.525.352-.888.352h-.816v-.864h.752c.288 0 .432-.16.432-.48v-.4a.768.768 0 0 1-.272.048 1.06 1.06 0 0 1-.776-.328 1.08 1.08 0 0 1-.328-.792zM1.472 163.2H.224v-11.136h1.248v1.248h.192a2.75 2.75 0 0 1 1.152-1.096 3.466 3.466 0 0 1 1.6-.376c.49 0 .955.09 1.392.272.437.181.824.443 1.16.784.336.341.603.763.8 1.264.197.501.296 1.072.296 1.712v.32c0 .65-.096 1.227-.288 1.728a3.619 3.619 0 0 1-.792 1.264c-.336.341-.728.6-1.176.776a3.86 3.86 0 0 1-1.424.264c-.256 0-.517-.03-.784-.088a3.15 3.15 0 0 1-.76-.272 3.298 3.298 0 0 1-.664-.448 2.379 2.379 0 0 1-.512-.632h-.192v4.416zm2.656-4.16a2.72 2.72 0 0 0 1.056-.2c.32-.133.6-.323.84-.568.24-.245.427-.544.56-.896.133-.352.2-.747.2-1.184v-.32c0-.427-.067-.813-.2-1.16a2.659 2.659 0 0 0-.56-.896 2.539 2.539 0 0 0-.848-.584 2.645 2.645 0 0 0-1.048-.208c-.373 0-.72.072-1.04.216-.32.144-.6.344-.84.6s-.43.563-.568.92c-.139.357-.208.75-.208 1.176v.192c0 .437.07.835.208 1.192.139.357.328.664.568.92.24.256.52.453.84.592.32.139.667.208 1.04.208zm6.176-.192h2.88v-8.896H10.4V148.8h4.032v10.048h2.88V160h-7.008v-1.152zm10.704-2.432c.032.79.277 1.424.736 1.904.459.48 1.099.72 1.92.72.373 0 .699-.043.976-.128s.515-.203.712-.352c.197-.15.357-.323.48-.52s.221-.408.296-.632l1.184.32a3.504 3.504 0 0 1-1.24 1.8c-.603.464-1.416.696-2.44.696a4.024 4.024 0 0 1-1.56-.296 3.508 3.508 0 0 1-1.224-.84 3.904 3.904 0 0 1-.8-1.296 4.618 4.618 0 0 1-.288-1.664v-.384c0-.555.099-1.072.296-1.552.197-.48.472-.893.824-1.24a3.858 3.858 0 0 1 1.24-.816c.475-.197.99-.296 1.544-.296.65 0 1.213.12 1.688.36.475.24.864.536 1.168.888.304.352.528.736.672 1.152.144.416.216.8.216 1.152v1.024h-6.4zm2.656-3.392c-.352 0-.68.056-.984.168a2.5 2.5 0 0 0-1.36 1.184 2.622 2.622 0 0 0-.28.888h5.12a2.272 2.272 0 0 0-.808-1.632 2.587 2.587 0 0 0-.784-.448 2.626 2.626 0 0 0-.904-.16zm11.984 5.632h-.192c-.256.533-.61.928-1.064 1.184a2.87 2.87 0 0 1-1.432.384 3.947 3.947 0 0 1-1.456-.264 3.3 3.3 0 0 1-1.176-.784c-.336-.347-.6-.77-.792-1.272-.192-.501-.288-1.083-.288-1.744v-.256c0-.65.096-1.227.288-1.728.192-.501.456-.925.792-1.272s.728-.61 1.176-.792a3.76 3.76 0 0 1 1.424-.272c.544 0 1.037.12 1.48.36.443.24.792.61 1.048 1.112h.192v-1.248h1.248v6.304c0 .32.144.48.432.48h.4V160h-.848c-.363 0-.659-.117-.888-.352-.23-.235-.344-.533-.344-.896v-.096zm-2.56.384c.373 0 .717-.07 1.032-.208.315-.139.584-.336.808-.592.224-.256.4-.563.528-.92.128-.357.192-.755.192-1.192v-.192c0-.427-.064-.819-.192-1.176a2.751 2.751 0 0 0-.536-.92 2.455 2.455 0 0 0-.816-.6 2.412 2.412 0 0 0-1.016-.216c-.373 0-.715.07-1.024.208-.31.139-.579.333-.808.584-.23.25-.408.555-.536.912-.128.357-.192.75-.192 1.176v.256c0 .907.237 1.613.712 2.12.475.507 1.09.76 1.848.76zm8.24-4.928c0 .384.163.677.488.88.325.203.92.336 1.784.4.928.075 1.635.296 2.12.664.485.368.728.904.728 1.608v.096c0 .384-.077.728-.232 1.032a2.303 2.303 0 0 1-.64.776 2.877 2.877 0 0 1-.992.488c-.39.112-.813.168-1.272.168-.619 0-1.15-.083-1.592-.248a3.298 3.298 0 0 1-1.104-.656 2.733 2.733 0 0 1-.664-.928 3.111 3.111 0 0 1-.256-1.048l1.184-.288c.053.608.288 1.096.704 1.464.416.368.97.552 1.664.552.587 0 1.059-.115 1.416-.344.357-.23.536-.552.536-.968 0-.448-.176-.768-.528-.96-.352-.192-.923-.315-1.712-.368-.917-.064-1.621-.277-2.112-.64-.49-.363-.736-.89-.736-1.584v-.096c0-.373.08-.701.24-.984.16-.283.376-.52.648-.712a2.98 2.98 0 0 1 .92-.432 3.941 3.941 0 0 1 1.072-.144c.523 0 .981.072 1.376.216.395.144.725.33.992.56.267.23.472.493.616.792.144.299.237.597.28.896l-1.184.288c-.053-.512-.259-.912-.616-1.2-.357-.288-.824-.432-1.4-.432-.224 0-.44.024-.648.072-.208.048-.392.12-.552.216-.16.096-.288.216-.384.36a.887.887 0 0 0-.144.504zm9.056 2.304c.032.79.277 1.424.736 1.904.459.48 1.099.72 1.92.72.373 0 .699-.043.976-.128s.515-.203.712-.352c.197-.15.357-.323.48-.52s.221-.408.296-.632l1.184.32a3.504 3.504 0 0 1-1.24 1.8c-.603.464-1.416.696-2.44.696a4.024 4.024 0 0 1-1.56-.296 3.508 3.508 0 0 1-1.224-.84 3.904 3.904 0 0 1-.8-1.296 4.618 4.618 0 0 1-.288-1.664v-.384c0-.555.099-1.072.296-1.552.197-.48.472-.893.824-1.24a3.858 3.858 0 0 1 1.24-.816c.475-.197.99-.296 1.544-.296.65 0 1.213.12 1.688.36.475.24.864.536 1.168.888.304.352.528.736.672 1.152.144.416.216.8.216 1.152v1.024h-6.4zm2.656-3.392c-.352 0-.68.056-.984.168a2.5 2.5 0 0 0-1.36 1.184 2.622 2.622 0 0 0-.28.888h5.12a2.272 2.272 0 0 0-.808-1.632 2.587 2.587 0 0 0-.784-.448 2.626 2.626 0 0 0-.904-.16zM70.016 163.2h-1.248v-11.136h1.248v1.248h.192a2.75 2.75 0 0 1 1.152-1.096 3.466 3.466 0 0 1 1.6-.376c.49 0 .955.09 1.392.272.437.181.824.443 1.16.784.336.341.603.763.8 1.264.197.501.296 1.072.296 1.712v.32c0 .65-.096 1.227-.288 1.728a3.619 3.619 0 0 1-.792 1.264c-.336.341-.728.6-1.176.776a3.86 3.86 0 0 1-1.424.264c-.256 0-.517-.03-.784-.088a3.15 3.15 0 0 1-.76-.272 3.298 3.298 0 0 1-.664-.448 2.379 2.379 0 0 1-.512-.632h-.192v4.416zm2.656-4.16a2.72 2.72 0 0 0 1.056-.2c.32-.133.6-.323.84-.568.24-.245.427-.544.56-.896.133-.352.2-.747.2-1.184v-.32c0-.427-.067-.813-.2-1.16a2.659 2.659 0 0 0-.56-.896 2.539 2.539 0 0 0-.848-.584 2.645 2.645 0 0 0-1.048-.208c-.373 0-.72.072-1.04.216-.32.144-.6.344-.84.6s-.43.563-.568.92c-.139.357-.208.75-.208 1.176v.192c0 .437.07.835.208 1.192.139.357.328.664.568.92.24.256.52.453.84.592.32.139.667.208 1.04.208zm6.176-.192h2.88v-8.896h-2.784V148.8h4.032v10.048h2.88V160h-7.008v-1.152zm15.456-6.784h1.248V160h-1.248v-1.44h-.192a3.253 3.253 0 0 1-1.008 1.216c-.416.299-.944.448-1.584.448-.437 0-.84-.072-1.208-.216a2.474 2.474 0 0 1-.944-.648 2.998 2.998 0 0 1-.608-1.072c-.144-.427-.216-.923-.216-1.488v-4.736h1.248v4.576c0 .832.17 1.44.512 1.824.341.384.864.576 1.568.576.757 0 1.352-.259 1.784-.776.432-.517.648-1.208.648-2.072v-4.128zm10.16 6.72h-.192c-.256.48-.605.84-1.048 1.08a2.99 2.99 0 0 1-1.448.36c-.533 0-1.035-.09-1.504-.272a3.714 3.714 0 0 1-1.24-.784 3.645 3.645 0 0 1-.848-1.272c-.208-.507-.312-1.085-.312-1.736v-.256c0-.64.107-1.213.32-1.72.213-.507.496-.933.848-1.28s.763-.61 1.232-.792c.47-.181.96-.272 1.472-.272.576 0 1.08.125 1.512.376.432.25.77.616 1.016 1.096h.192v-1.248h1.248v9.888c0 .363-.115.661-.344.896-.23.235-.525.352-.888.352h-5.168v-1.152h4.72c.288 0 .432-.16.432-.48v-2.784zm-2.656.256c.373 0 .72-.07 1.04-.208.32-.139.6-.336.84-.592.24-.256.43-.563.568-.92a3.27 3.27 0 0 0 .208-1.192v-.192c0-.427-.07-.819-.208-1.176a2.819 2.819 0 0 0-.568-.92 2.583 2.583 0 0 0-1.88-.816c-.373 0-.723.07-1.048.208a2.485 2.485 0 0 0-.848.592 2.73 2.73 0 0 0-.56.912c-.133.352-.2.741-.2 1.168v.256c0 .448.067.848.2 1.2s.32.653.56.904c.24.25.52.443.84.576.32.133.672.2 1.056.2zm18.672-9.344c0-.31.11-.573.328-.792a1.08 1.08 0 0 1 .792-.328c.31 0 .573.11.792.328.219.219.328.483.328.792 0 .31-.11.573-.328.792a1.08 1.08 0 0 1-.792.328c-.31 0-.573-.11-.792-.328a1.08 1.08 0 0 1-.328-.792zm-2.272 9.152h2.784v-5.632h-2.496v-1.152h3.744v6.784h2.592V160h-6.624v-1.152zM129.056 160h-1.248v-7.936h1.248v1.344h.192c.49-1.045 1.344-1.568 2.56-1.568.917 0 1.648.285 2.192.856.544.57.816 1.427.816 2.568V160h-1.248v-4.48c0-.832-.187-1.456-.56-1.872-.373-.416-.88-.624-1.52-.624-.757 0-1.352.259-1.784.776-.432.517-.648 1.208-.648 2.072V160zm24.096-1.44h-.192a3.253 3.253 0 0 1-1.008 1.216c-.416.299-.944.448-1.584.448-.437 0-.84-.072-1.208-.216a2.474 2.474 0 0 1-.944-.648 2.998 2.998 0 0 1-.608-1.072c-.144-.427-.216-.923-.216-1.488v-4.736h1.248v4.576c0 .832.17 1.44.512 1.824.341.384.864.576 1.568.576.757 0 1.352-.259 1.784-.776.432-.517.648-1.208.648-2.072v-4.128h1.248v9.888c0 .363-.115.661-.344.896-.23.235-.525.352-.888.352h-4.528v-1.152h4.08c.288 0 .432-.16.432-.48v-3.008zm11.52-2.432c0 .661-.11 1.245-.328 1.752-.219.507-.51.933-.872 1.28-.363.347-.787.61-1.272.792-.485.181-.99.272-1.512.272-.533 0-1.04-.09-1.52-.272a3.702 3.702 0 0 1-1.264-.792 3.861 3.861 0 0 1-.872-1.28c-.219-.507-.328-1.09-.328-1.752v-.192c0-.65.11-1.23.328-1.736a3.89 3.89 0 0 1 .88-1.288 3.726 3.726 0 0 1 1.272-.8 4.22 4.22 0 0 1 1.504-.272c.523 0 1.024.09 1.504.272.48.181.904.448 1.272.8.368.352.661.781.88 1.288.219.507.328 1.085.328 1.736v.192zm-3.984 2.912c.384 0 .739-.067 1.064-.2.325-.133.61-.328.856-.584a2.75 2.75 0 0 0 .576-.92c.139-.357.208-.76.208-1.208v-.192c0-.427-.07-.819-.208-1.176a2.648 2.648 0 0 0-2.496-1.736 2.648 2.648 0 0 0-2.496 1.736c-.139.357-.208.75-.208 1.176v.192c0 .448.07.85.208 1.208.139.357.33.664.576.92.245.256.53.45.856.584.325.133.68.2 1.064.2zm11.952-6.976h1.248V160h-1.248v-1.44h-.192a3.253 3.253 0 0 1-1.008 1.216c-.416.299-.944.448-1.584.448-.437 0-.84-.072-1.208-.216a2.474 2.474 0 0 1-.944-.648 2.998 2.998 0 0 1-.608-1.072c-.144-.427-.216-.923-.216-1.488v-4.736h1.248v4.576c0 .832.17 1.44.512 1.824.341.384.864.576 1.568.576.757 0 1.352-.259 1.784-.776.432-.517.648-1.208.648-2.072v-4.128zm3.68 0h2.88v1.056h.192c.203-.437.49-.76.864-.968.373-.208.8-.312 1.28-.312.8 0 1.445.261 1.936.784.49.523.752 1.285.784 2.288l-1.312.192c0-.736-.176-1.267-.528-1.592-.352-.325-.784-.488-1.296-.488-.33 0-.616.064-.856.192s-.44.304-.6.528c-.16.224-.277.485-.352.784a3.948 3.948 0 0 0-.112.96v3.36h2.016V160h-5.088v-1.152h1.824v-5.632h-1.632v-1.152zM197.6 160h-1.248v-11.2h1.248v4.704h.192c.245-.512.59-.917 1.032-1.216.443-.299.984-.448 1.624-.448.864 0 1.565.285 2.104.856.539.57.808 1.427.808 2.568V160h-1.248v-4.48c0-.832-.187-1.456-.56-1.872-.373-.416-.88-.624-1.52-.624-.757 0-1.352.259-1.784.776-.432.517-.648 1.208-.648 2.072V160zm9.456-3.584c.032.79.277 1.424.736 1.904.459.48 1.099.72 1.92.72.373 0 .699-.043.976-.128s.515-.203.712-.352c.197-.15.357-.323.48-.52s.221-.408.296-.632l1.184.32a3.504 3.504 0 0 1-1.24 1.8c-.603.464-1.416.696-2.44.696a4.024 4.024 0 0 1-1.56-.296 3.508 3.508 0 0 1-1.224-.84 3.904 3.904 0 0 1-.8-1.296 4.618 4.618 0 0 1-.288-1.664v-.384c0-.555.099-1.072.296-1.552.197-.48.472-.893.824-1.24a3.858 3.858 0 0 1 1.24-.816c.475-.197.99-.296 1.544-.296.65 0 1.213.12 1.688.36.475.24.864.536 1.168.888.304.352.528.736.672 1.152.144.416.216.8.216 1.152v1.024h-6.4zm2.656-3.392c-.352 0-.68.056-.984.168a2.5 2.5 0 0 0-1.36 1.184 2.622 2.622 0 0 0-.28.888h5.12a2.272 2.272 0 0 0-.808-1.632 2.587 2.587 0 0 0-.784-.448 2.626 2.626 0 0 0-.904-.16zm11.984 5.632h-.192c-.256.533-.61.928-1.064 1.184a2.87 2.87 0 0 1-1.432.384 3.947 3.947 0 0 1-1.456-.264 3.3 3.3 0 0 1-1.176-.784c-.336-.347-.6-.77-.792-1.272-.192-.501-.288-1.083-.288-1.744v-.256c0-.65.096-1.227.288-1.728.192-.501.456-.925.792-1.272s.728-.61 1.176-.792a3.76 3.76 0 0 1 1.424-.272c.544 0 1.037.12 1.48.36.443.24.792.61 1.048 1.112h.192v-1.248h1.248v6.304c0 .32.144.48.432.48h.4V160h-.848c-.363 0-.659-.117-.888-.352-.23-.235-.344-.533-.344-.896v-.096zm-2.56.384c.373 0 .717-.07 1.032-.208.315-.139.584-.336.808-.592.224-.256.4-.563.528-.92.128-.357.192-.755.192-1.192v-.192c0-.427-.064-.819-.192-1.176a2.751 2.751 0 0 0-.536-.92 2.455 2.455 0 0 0-.816-.6 2.412 2.412 0 0 0-1.016-.216c-.373 0-.715.07-1.024.208-.31.139-.579.333-.808.584-.23.25-.408.555-.536.912-.128.357-.192.75-.192 1.176v.256c0 .907.237 1.613.712 2.12.475.507 1.09.76 1.848.76zm12.736-.256h-.192c-.128.245-.29.459-.488.64-.197.181-.41.33-.64.448a3.295 3.295 0 0 1-1.464.352 4.01 4.01 0 0 1-1.488-.272 3.578 3.578 0 0 1-1.208-.784 3.579 3.579 0 0 1-.816-1.272c-.197-.507-.296-1.085-.296-1.736v-.256c0-.64.101-1.213.304-1.72a3.82 3.82 0 0 1 .816-1.28c.341-.347.741-.61 1.2-.792a3.924 3.924 0 0 1 1.456-.272c.544 0 1.053.12 1.528.36.475.24.84.61 1.096 1.112h.192V148.8h1.248V160h-1.248v-1.216zm-2.656.256c.373 0 .72-.07 1.04-.208.32-.139.6-.336.84-.592.24-.256.43-.563.568-.92a3.27 3.27 0 0 0 .208-1.192v-.192c0-.427-.07-.819-.208-1.176a2.819 2.819 0 0 0-.568-.92 2.583 2.583 0 0 0-1.88-.816c-.373 0-.723.07-1.048.208a2.485 2.485 0 0 0-.848.592 2.73 2.73 0 0 0-.56.912c-.133.352-.2.741-.2 1.168v.256c0 .448.067.848.2 1.2s.32.653.56.904c.24.25.52.443.84.576.32.133.672.2 1.056.2zm7.264 4.16h-1.248v-11.136h1.248v1.248h.192a2.75 2.75 0 0 1 1.152-1.096 3.466 3.466 0 0 1 1.6-.376c.49 0 .955.09 1.392.272.437.181.824.443 1.16.784.336.341.603.763.8 1.264.197.501.296 1.072.296 1.712v.32c0 .65-.096 1.227-.288 1.728a3.619 3.619 0 0 1-.792 1.264c-.336.341-.728.6-1.176.776a3.86 3.86 0 0 1-1.424.264c-.256 0-.517-.03-.784-.088a3.15 3.15 0 0 1-.76-.272 3.298 3.298 0 0 1-.664-.448 2.379 2.379 0 0 1-.512-.632h-.192v4.416zm2.656-4.16a2.72 2.72 0 0 0 1.056-.2c.32-.133.6-.323.84-.568.24-.245.427-.544.56-.896.133-.352.2-.747.2-1.184v-.32c0-.427-.067-.813-.2-1.16a2.659 2.659 0 0 0-.56-.896 2.539 2.539 0 0 0-.848-.584 2.645 2.645 0 0 0-1.048-.208c-.373 0-.72.072-1.04.216-.32.144-.6.344-.84.6s-.43.563-.568.92c-.139.357-.208.75-.208 1.176v.192c0 .437.07.835.208 1.192.139.357.328.664.568.92.24.256.52.453.84.592.32.139.667.208 1.04.208zm7.424.96h-1.248v-11.2h1.248v4.704h.192c.245-.512.59-.917 1.032-1.216.443-.299.984-.448 1.624-.448.864 0 1.565.285 2.104.856.539.57.808 1.427.808 2.568V160h-1.248v-4.48c0-.832-.187-1.456-.56-1.872-.373-.416-.88-.624-1.52-.624-.757 0-1.352.259-1.784.776-.432.517-.648 1.208-.648 2.072V160zm16.032-3.872c0 .661-.11 1.245-.328 1.752-.219.507-.51.933-.872 1.28-.363.347-.787.61-1.272.792-.485.181-.99.272-1.512.272-.533 0-1.04-.09-1.52-.272a3.702 3.702 0 0 1-1.264-.792 3.861 3.861 0 0 1-.872-1.28c-.219-.507-.328-1.09-.328-1.752v-.192c0-.65.11-1.23.328-1.736a3.89 3.89 0 0 1 .88-1.288 3.726 3.726 0 0 1 1.272-.8 4.22 4.22 0 0 1 1.504-.272c.523 0 1.024.09 1.504.272.48.181.904.448 1.272.8.368.352.661.781.88 1.288.219.507.328 1.085.328 1.736v.192zm-3.984 2.912c.384 0 .739-.067 1.064-.2.325-.133.61-.328.856-.584a2.75 2.75 0 0 0 .576-.92c.139-.357.208-.76.208-1.208v-.192c0-.427-.07-.819-.208-1.176a2.648 2.648 0 0 0-2.496-1.736 2.648 2.648 0 0 0-2.496 1.736c-.139.357-.208.75-.208 1.176v.192c0 .448.07.85.208 1.208.139.357.33.664.576.92.245.256.53.45.856.584.325.133.68.2 1.064.2zm7.536.96h-1.248v-7.936h1.248v1.344h.192c.49-1.045 1.344-1.568 2.56-1.568.917 0 1.648.285 2.192.856.544.57.816 1.427.816 2.568V160h-1.248v-4.48c0-.832-.187-1.456-.56-1.872-.373-.416-.88-.624-1.52-.624-.757 0-1.352.259-1.784.776-.432.517-.648 1.208-.648 2.072V160zm9.456-3.584c.032.79.277 1.424.736 1.904.459.48 1.099.72 1.92.72.373 0 .699-.043.976-.128s.515-.203.712-.352c.197-.15.357-.323.48-.52s.221-.408.296-.632l1.184.32a3.504 3.504 0 0 1-1.24 1.8c-.603.464-1.416.696-2.44.696a4.024 4.024 0 0 1-1.56-.296 3.508 3.508 0 0 1-1.224-.84 3.904 3.904 0 0 1-.8-1.296 4.618 4.618 0 0 1-.288-1.664v-.384c0-.555.099-1.072.296-1.552.197-.48.472-.893.824-1.24a3.858 3.858 0 0 1 1.24-.816c.475-.197.99-.296 1.544-.296.65 0 1.213.12 1.688.36.475.24.864.536 1.168.888.304.352.528.736.672 1.152.144.416.216.8.216 1.152v1.024h-6.4zm2.656-3.392c-.352 0-.68.056-.984.168a2.5 2.5 0 0 0-1.36 1.184 2.622 2.622 0 0 0-.28.888h5.12a2.272 2.272 0 0 0-.808-1.632 2.587 2.587 0 0 0-.784-.448 2.626 2.626 0 0 0-.904-.16zm7.872 1.088c0 .384.163.677.488.88.325.203.92.336 1.784.4.928.075 1.635.296 2.12.664.485.368.728.904.728 1.608v.096c0 .384-.077.728-.232 1.032a2.303 2.303 0 0 1-.64.776 2.877 2.877 0 0 1-.992.488c-.39.112-.813.168-1.272.168-.619 0-1.15-.083-1.592-.248a3.298 3.298 0 0 1-1.104-.656 2.733 2.733 0 0 1-.664-.928 3.111 3.111 0 0 1-.256-1.048l1.184-.288c.053.608.288 1.096.704 1.464.416.368.97.552 1.664.552.587 0 1.059-.115 1.416-.344.357-.23.536-.552.536-.968 0-.448-.176-.768-.528-.96-.352-.192-.923-.315-1.712-.368-.917-.064-1.621-.277-2.112-.64-.49-.363-.736-.89-.736-1.584v-.096c0-.373.08-.701.24-.984.16-.283.376-.52.648-.712a2.98 2.98 0 0 1 .92-.432 3.941 3.941 0 0 1 1.072-.144c.523 0 .981.072 1.376.216.395.144.725.33.992.56.267.23.472.493.616.792.144.299.237.597.28.896l-1.184.288c-.053-.512-.259-.912-.616-1.2-.357-.288-.824-.432-1.4-.432-.224 0-.44.024-.648.072-.208.048-.392.12-.552.216-.16.096-.288.216-.384.36a.887.887 0 0 0-.144.504zM30.752 178.656h-.192c-.256.533-.61.928-1.064 1.184a2.87 2.87 0 0 1-1.432.384 3.947 3.947 0 0 1-1.456-.264 3.3 3.3 0 0 1-1.176-.784c-.336-.347-.6-.77-.792-1.272-.192-.501-.288-1.083-.288-1.744v-.256c0-.65.096-1.227.288-1.728.192-.501.456-.925.792-1.272s.728-.61 1.176-.792a3.76 3.76 0 0 1 1.424-.272c.544 0 1.037.12 1.48.36.443.24.792.61 1.048 1.112h.192v-1.248H32v6.304c0 .32.144.48.432.48h.4V180h-.848c-.363 0-.659-.117-.888-.352-.23-.235-.344-.533-.344-.896v-.096zm-2.56.384c.373 0 .717-.07 1.032-.208.315-.139.584-.336.808-.592.224-.256.4-.563.528-.92.128-.357.192-.755.192-1.192v-.192c0-.427-.064-.819-.192-1.176a2.751 2.751 0 0 0-.536-.92 2.455 2.455 0 0 0-.816-.6 2.412 2.412 0 0 0-1.016-.216c-.373 0-.715.07-1.024.208-.31.139-.579.333-.808.584-.23.25-.408.555-.536.912-.128.357-.192.75-.192 1.176v.256c0 .907.237 1.613.712 2.12.475.507 1.09.76 1.848.76zm7.84.96h-1.248v-7.936h1.248v1.344h.192c.49-1.045 1.344-1.568 2.56-1.568.917 0 1.648.285 2.192.856.544.57.816 1.427.816 2.568V180h-1.248v-4.48c0-.832-.187-1.456-.56-1.872-.373-.416-.88-.624-1.52-.624-.757 0-1.352.259-1.784.776-.432.517-.648 1.208-.648 2.072V180zm14.688-1.216h-.192c-.128.245-.29.459-.488.64-.197.181-.41.33-.64.448a3.295 3.295 0 0 1-1.464.352 4.01 4.01 0 0 1-1.488-.272 3.578 3.578 0 0 1-1.208-.784 3.579 3.579 0 0 1-.816-1.272c-.197-.507-.296-1.085-.296-1.736v-.256c0-.64.101-1.213.304-1.72a3.82 3.82 0 0 1 .816-1.28c.341-.347.741-.61 1.2-.792a3.924 3.924 0 0 1 1.456-.272c.544 0 1.053.12 1.528.36.475.24.84.61 1.096 1.112h.192V168.8h1.248V180H50.72v-1.216zm-2.656.256c.373 0 .72-.07 1.04-.208.32-.139.6-.336.84-.592.24-.256.43-.563.568-.92a3.27 3.27 0 0 0 .208-1.192v-.192c0-.427-.07-.819-.208-1.176a2.819 2.819 0 0 0-.568-.92 2.583 2.583 0 0 0-1.88-.816c-.373 0-.723.07-1.048.208a2.485 2.485 0 0 0-.848.592 2.73 2.73 0 0 0-.56.912c-.133.352-.2.741-.2 1.168v.256c0 .448.067.848.2 1.2s.32.653.56.904c.24.25.52.443.84.576.32.133.672.2 1.056.2zm23.52-1.856a4.09 4.09 0 0 1-.44 1.216 3.485 3.485 0 0 1-.792.968 3.49 3.49 0 0 1-1.12.632c-.427.15-.901.224-1.424.224-.555 0-1.08-.09-1.576-.272a3.823 3.823 0 0 1-1.304-.792 3.764 3.764 0 0 1-.888-1.272c-.219-.501-.328-1.077-.328-1.728v-.192c0-.64.11-1.216.328-1.728.219-.512.515-.944.888-1.296a3.967 3.967 0 0 1 1.304-.816 4.327 4.327 0 0 1 1.576-.288c.501 0 .965.075 1.392.224.427.15.803.36 1.128.632.325.272.592.595.8.968.208.373.35.779.424 1.216l-1.248.288a2.59 2.59 0 0 0-.232-.808 2.268 2.268 0 0 0-.496-.688 2.324 2.324 0 0 0-.76-.472 2.833 2.833 0 0 0-1.04-.176 2.712 2.712 0 0 0-1.968.824 2.793 2.793 0 0 0-.6.936 3.18 3.18 0 0 0-.216 1.184v.192c0 .448.072.85.216 1.208.144.357.344.659.6.904a2.7 2.7 0 0 0 .896.568c.341.133.71.2 1.104.2.395 0 .739-.061 1.032-.184.293-.123.544-.283.752-.48a2.3 2.3 0 0 0 .496-.68c.123-.256.205-.523.248-.8l1.248.288zm2.368 1.664h2.88v-8.896h-2.784V168.8h4.032v10.048h2.88V180h-7.008v-1.152zm12.256-9.152c0-.31.11-.573.328-.792a1.08 1.08 0 0 1 .792-.328c.31 0 .573.11.792.328.219.219.328.483.328.792 0 .31-.11.573-.328.792a1.08 1.08 0 0 1-.792.328c-.31 0-.573-.11-.792-.328a1.08 1.08 0 0 1-.328-.792zm-2.272 9.152h2.784v-5.632h-2.496v-1.152h3.744v6.784h2.592V180h-6.624v-1.152zm17.024-1.664a4.09 4.09 0 0 1-.44 1.216 3.485 3.485 0 0 1-.792.968 3.49 3.49 0 0 1-1.12.632c-.427.15-.901.224-1.424.224-.555 0-1.08-.09-1.576-.272a3.823 3.823 0 0 1-1.304-.792 3.764 3.764 0 0 1-.888-1.272c-.219-.501-.328-1.077-.328-1.728v-.192c0-.64.11-1.216.328-1.728.219-.512.515-.944.888-1.296a3.967 3.967 0 0 1 1.304-.816 4.327 4.327 0 0 1 1.576-.288c.501 0 .965.075 1.392.224.427.15.803.36 1.128.632.325.272.592.595.8.968.208.373.35.779.424 1.216l-1.248.288a2.59 2.59 0 0 0-.232-.808 2.268 2.268 0 0 0-.496-.688 2.324 2.324 0 0 0-.76-.472 2.833 2.833 0 0 0-1.04-.176 2.712 2.712 0 0 0-1.968.824 2.793 2.793 0 0 0-.6.936 3.18 3.18 0 0 0-.216 1.184v.192c0 .448.072.85.216 1.208.144.357.344.659.6.904a2.7 2.7 0 0 0 .896.568c.341.133.71.2 1.104.2.395 0 .739-.061 1.032-.184.293-.123.544-.283.752-.48a2.3 2.3 0 0 0 .496-.68c.123-.256.205-.523.248-.8l1.248.288zm4.416-1.824h.272l3.024-3.296h1.536v.096l-3.296 3.632v.288l3.68 3.824V180h-1.536l-3.376-3.488h-.304V180h-1.248v-11.2h1.248v6.56zm25.024.768c0 .661-.11 1.245-.328 1.752-.219.507-.51.933-.872 1.28-.363.347-.787.61-1.272.792-.485.181-.99.272-1.512.272-.533 0-1.04-.09-1.52-.272a3.702 3.702 0 0 1-1.264-.792 3.861 3.861 0 0 1-.872-1.28c-.219-.507-.328-1.09-.328-1.752v-.192c0-.65.11-1.23.328-1.736a3.89 3.89 0 0 1 .88-1.288 3.726 3.726 0 0 1 1.272-.8 4.22 4.22 0 0 1 1.504-.272c.523 0 1.024.09 1.504.272.48.181.904.448 1.272.8.368.352.661.781.88 1.288.219.507.328 1.085.328 1.736v.192zm-3.984 2.912c.384 0 .739-.067 1.064-.2.325-.133.61-.328.856-.584a2.75 2.75 0 0 0 .576-.92c.139-.357.208-.76.208-1.208v-.192c0-.427-.07-.819-.208-1.176a2.648 2.648 0 0 0-2.496-1.736 2.648 2.648 0 0 0-2.496 1.736c-.139.357-.208.75-.208 1.176v.192c0 .448.07.85.208 1.208.139.357.33.664.576.92.245.256.53.45.856.584.325.133.68.2 1.064.2zm5.84-6.976h2.88v1.056h.192c.203-.437.49-.76.864-.968.373-.208.8-.312 1.28-.312.8 0 1.445.261 1.936.784.49.523.752 1.285.784 2.288l-1.312.192c0-.736-.176-1.267-.528-1.592-.352-.325-.784-.488-1.296-.488-.33 0-.616.064-.856.192s-.44.304-.6.528c-.16.224-.277.485-.352.784a3.948 3.948 0 0 0-.112.96v3.36h2.016V180h-5.088v-1.152h1.824v-5.632h-1.632v-1.152zm19.76 0h2.496V168.8h1.248v3.264h3.072v1.152h-3.072v5.152c0 .32.144.48.432.48h2.256V180h-2.704c-.363 0-.659-.117-.888-.352-.23-.235-.344-.533-.344-.896v-5.536h-2.496v-1.152zm15.824 6.592h-.192c-.256.533-.61.928-1.064 1.184a2.87 2.87 0 0 1-1.432.384 3.947 3.947 0 0 1-1.456-.264 3.3 3.3 0 0 1-1.176-.784c-.336-.347-.6-.77-.792-1.272-.192-.501-.288-1.083-.288-1.744v-.256c0-.65.096-1.227.288-1.728.192-.501.456-.925.792-1.272s.728-.61 1.176-.792a3.76 3.76 0 0 1 1.424-.272c.544 0 1.037.12 1.48.36.443.24.792.61 1.048 1.112h.192v-1.248h1.248v6.304c0 .32.144.48.432.48h.4V180h-.848c-.363 0-.659-.117-.888-.352-.23-.235-.344-.533-.344-.896v-.096zm-2.56.384c.373 0 .717-.07 1.032-.208.315-.139.584-.336.808-.592.224-.256.4-.563.528-.92.128-.357.192-.755.192-1.192v-.192c0-.427-.064-.819-.192-1.176a2.751 2.751 0 0 0-.536-.92 2.455 2.455 0 0 0-.816-.6 2.412 2.412 0 0 0-1.016-.216c-.373 0-.715.07-1.024.208-.31.139-.579.333-.808.584-.23.25-.408.555-.536.912-.128.357-.192.75-.192 1.176v.256c0 .907.237 1.613.712 2.12.475.507 1.09.76 1.848.76zm7.552 4.16h-1.248v-11.136h1.248v1.248h.192a2.75 2.75 0 0 1 1.152-1.096 3.466 3.466 0 0 1 1.6-.376c.49 0 .955.09 1.392.272.437.181.824.443 1.16.784.336.341.603.763.8 1.264.197.501.296 1.072.296 1.712v.32c0 .65-.096 1.227-.288 1.728a3.619 3.619 0 0 1-.792 1.264c-.336.341-.728.6-1.176.776a3.86 3.86 0 0 1-1.424.264c-.256 0-.517-.03-.784-.088a3.15 3.15 0 0 1-.76-.272 3.298 3.298 0 0 1-.664-.448 2.379 2.379 0 0 1-.512-.632h-.192v4.416zm2.656-4.16a2.72 2.72 0 0 0 1.056-.2c.32-.133.6-.323.84-.568.24-.245.427-.544.56-.896.133-.352.2-.747.2-1.184v-.32c0-.427-.067-.813-.2-1.16a2.659 2.659 0 0 0-.56-.896 2.539 2.539 0 0 0-.848-.584 2.645 2.645 0 0 0-1.048-.208c-.373 0-.72.072-1.04.216-.32.144-.6.344-.84.6s-.43.563-.568.92c-.139.357-.208.75-.208 1.176v.192c0 .437.07.835.208 1.192.139.357.328.664.568.92.24.256.52.453.84.592.32.139.667.208 1.04.208zm15.696-6.976h2.496V168.8h1.248v3.264H198v1.152h-3.072v5.152c0 .32.144.48.432.48h2.256V180h-2.704c-.363 0-.659-.117-.888-.352-.23-.235-.344-.533-.344-.896v-5.536h-2.496v-1.152zM202.496 180h-1.248v-11.2h1.248v4.704h.192c.245-.512.59-.917 1.032-1.216.443-.299.984-.448 1.624-.448.864 0 1.565.285 2.104.856.539.57.808 1.427.808 2.568V180h-1.248v-4.48c0-.832-.187-1.456-.56-1.872-.373-.416-.88-.624-1.52-.624-.757 0-1.352.259-1.784.776-.432.517-.648 1.208-.648 2.072V180zm9.456-3.584c.032.79.277 1.424.736 1.904.459.48 1.099.72 1.92.72.373 0 .699-.043.976-.128s.515-.203.712-.352c.197-.15.357-.323.48-.52s.221-.408.296-.632l1.184.32a3.504 3.504 0 0 1-1.24 1.8c-.603.464-1.416.696-2.44.696a4.024 4.024 0 0 1-1.56-.296 3.508 3.508 0 0 1-1.224-.84 3.904 3.904 0 0 1-.8-1.296 4.618 4.618 0 0 1-.288-1.664v-.384c0-.555.099-1.072.296-1.552.197-.48.472-.893.824-1.24a3.858 3.858 0 0 1 1.24-.816c.475-.197.99-.296 1.544-.296.65 0 1.213.12 1.688.36.475.24.864.536 1.168.888.304.352.528.736.672 1.152.144.416.216.8.216 1.152v1.024h-6.4zm2.656-3.392c-.352 0-.68.056-.984.168a2.5 2.5 0 0 0-1.36 1.184 2.622 2.622 0 0 0-.28.888h5.12a2.272 2.272 0 0 0-.808-1.632 2.587 2.587 0 0 0-.784-.448 2.626 2.626 0 0 0-.904-.16zm18.48-3.328c0-.31.11-.573.328-.792a1.08 1.08 0 0 1 .792-.328c.31 0 .573.11.792.328.219.219.328.483.328.792 0 .31-.11.573-.328.792a1.08 1.08 0 0 1-.792.328c-.31 0-.573-.11-.792-.328a1.08 1.08 0 0 1-.328-.792zm-2.272 9.152h2.784v-5.632h-2.496v-1.152h3.744v6.784h2.592V180h-6.624v-1.152zm17.024-1.664a4.09 4.09 0 0 1-.44 1.216 3.485 3.485 0 0 1-.792.968 3.49 3.49 0 0 1-1.12.632c-.427.15-.901.224-1.424.224-.555 0-1.08-.09-1.576-.272a3.823 3.823 0 0 1-1.304-.792 3.764 3.764 0 0 1-.888-1.272c-.219-.501-.328-1.077-.328-1.728v-.192c0-.64.11-1.216.328-1.728.219-.512.515-.944.888-1.296a3.967 3.967 0 0 1 1.304-.816 4.327 4.327 0 0 1 1.576-.288c.501 0 .965.075 1.392.224.427.15.803.36 1.128.632.325.272.592.595.8.968.208.373.35.779.424 1.216l-1.248.288a2.59 2.59 0 0 0-.232-.808 2.268 2.268 0 0 0-.496-.688 2.324 2.324 0 0 0-.76-.472 2.833 2.833 0 0 0-1.04-.176 2.712 2.712 0 0 0-1.968.824 2.793 2.793 0 0 0-.6.936 3.18 3.18 0 0 0-.216 1.184v.192c0 .448.072.85.216 1.208.144.357.344.659.6.904a2.7 2.7 0 0 0 .896.568c.341.133.71.2 1.104.2.395 0 .739-.061 1.032-.184.293-.123.544-.283.752-.48a2.3 2.3 0 0 0 .496-.68c.123-.256.205-.523.248-.8l1.248.288zm9.856-1.056c0 .661-.11 1.245-.328 1.752-.219.507-.51.933-.872 1.28-.363.347-.787.61-1.272.792-.485.181-.99.272-1.512.272-.533 0-1.04-.09-1.52-.272a3.702 3.702 0 0 1-1.264-.792 3.861 3.861 0 0 1-.872-1.28c-.219-.507-.328-1.09-.328-1.752v-.192c0-.65.11-1.23.328-1.736a3.89 3.89 0 0 1 .88-1.288 3.726 3.726 0 0 1 1.272-.8 4.22 4.22 0 0 1 1.504-.272c.523 0 1.024.09 1.504.272.48.181.904.448 1.272.8.368.352.661.781.88 1.288.219.507.328 1.085.328 1.736v.192zm-3.984 2.912c.384 0 .739-.067 1.064-.2.325-.133.61-.328.856-.584a2.75 2.75 0 0 0 .576-.92c.139-.357.208-.76.208-1.208v-.192c0-.427-.07-.819-.208-1.176a2.648 2.648 0 0 0-2.496-1.736 2.648 2.648 0 0 0-2.496 1.736c-.139.357-.208.75-.208 1.176v.192c0 .448.07.85.208 1.208.139.357.33.664.576.92.245.256.53.45.856.584.325.133.68.2 1.064.2zm7.536.96H260v-7.936h1.248v1.344h.192c.49-1.045 1.344-1.568 2.56-1.568.917 0 1.648.285 2.192.856.544.57.816 1.427.816 2.568V180h-1.248v-4.48c0-.832-.187-1.456-.56-1.872-.373-.416-.88-.624-1.52-.624-.757 0-1.352.259-1.784.776-.432.517-.648 1.208-.648 2.072V180z" id="For-a-better-experie" fill="#FFF"/><path d="M132.984 53.162c-2.297.584-3.984 2.528-3.984 4.837 0 2.291 1.662 4.224 3.933 4.824a.847.847 0 0 0 1.064-.822l-.025-8.074a.792.792 0 0 0-.988-.765z" id="Oval-2" fill="#FFF"/><path d="M161.984 53.162c-2.297.584-3.984 2.528-3.984 4.837 0 2.291 1.662 4.224 3.933 4.824a.847.847 0 0 0 1.064-.822l-.025-8.074a.792.792 0 0 0-.988-.765z" id="Oval-2-Copy" fill="#FFF" transform="matrix(-1 0 0 1 321 0)"/><rect id="Rectangle-2" fill="#FFF" x="135" y="50" width="6" height="16" rx="3"/><rect id="Rectangle-2-Copy" fill="#FFF" x="151" y="50" width="6" height="16" rx="3"/><path d="M133 57V46.88c0-7.113 5.82-12.88 13-12.88s13 5.767 13 12.88V57" id="Rectangle-3" stroke="#FFF" stroke-width="2"/></g></g></g></svg>