<svg width="1440" height="187" viewBox="0 0 1440 187" version="1.1" xmlns="http://www.w3.org/2000/svg"><title>siri_wave</title><g id="Page-1" stroke="none" stroke-width="1" fill="none" fill-rule="evenodd"><g id="Siri---2" transform="translate(0 -520)" fill="#FFF"><g id="siri_wave" transform="translate(0 520)"><path d="M1440 91.795s-5.61 1.168-16.129 1.054c-10.52-.085-25.947.742-45.583.763-19.636-.05-43.479.09-70.828.23-27.35.277-58.206.52-91.867 1.095-33.66.435-63.887 1.27-102.457 2.087-9.642.473-19.416 2.856-29.31 7.25-9.895 4.315-19.91 10.686-30.035 16.852-10.124 6.183-26.6 11.954-36.932 15.25-5.167 1.674-10.357 2.801-15.572 3.36-5.214.579-10.452.49-15.711.138-10.52-.733-21.126-2.981-31.81-6.776-5.341-1.876-10.702-4.098-16.081-6.56-5.379-2.494-10.775-5.16-16.188-7.905-5.413-2.7-10.843-5.546-16.287-8.075a191.272 191.272 0 0 0-16.377-7.097c-10.946-4.134-21.948-6.833-32.993-7.649-11.045-.82-22.134-.031-33.256 2.63-11.12 2.627-22.276 7.25-33.452 13.204-11.176 5.933-22.375 13.197-33.585 19.939-11.21 6.743-22.429 12.78-33.65 16.86-11.22 4.096-22.44 6.272-33.65 6.527-2.802.063-5.604.073-8.405-.562-2.8-.586-5.6-1.646-8.4-3.148-5.597-3.07-11.19-7.954-16.779-14.16-11.177-12.391-22.331-28.455-33.453-35.98-5.56-3.944-11.114-6.067-16.656-6.547-5.544-.514-11.077.655-16.6 3.36-11.044 5.404-22.046 16.759-32.992 20.054a31.693 31.693 0 0 1-8.2 1.65c-2.729.127-5.455.113-8.178.042-5.443-.154-10.873-.631-16.286-1.495-21.652-3.298-43.041-13.165-64.079-17.076-10.52-2.017-20.95-2.84-31.283-2.519-10.333.292-20.567 1.958-30.691 4.347-10.125 2.337-20.14 5.147-30.035 6.967a142.295 142.295 0 0 1-29.31 2.51c-19.286.176-38.045-12.99-56.19-14.426-4.537-.504-9.035-.436-13.493-.613L253.962 97l-25.76-.73c-16.83-.529-32.96-.788-48.3-1.138-7.67-.162-15.143-.32-22.408-.472l-21.159-.309c-27.35-.452-51.193-.944-70.829-1.028-19.635-.063-34.969-.617-45.488-.534C9.498 92.922 0 92 0 92s9.499-.824 20.018-.691c10.519.084 25.9-.535 45.535-.598 19.636-.083 43.456-.612 70.806-1.063l21.147-.309 22.402-.472c15.34-.35 31.466-.61 48.297-1.138l25.76-.73 13.253-.375c4.458-.177 8.955-.11 13.492-.612 18.145-1.437 36.904-14.603 56.19-14.427a142.35 142.35 0 0 1 29.31 2.51c9.894 1.82 19.91 4.63 30.035 6.967 10.124 2.389 20.358 4.055 30.69 4.347 10.333.322 20.765-.502 31.284-2.52 21.038-3.91 42.427-13.778 64.079-17.075 5.413-.864 10.843-1.34 16.286-1.496 2.723-.07 5.449-.083 8.178.042 2.73.187 5.463.71 8.2 1.651 10.946 3.295 21.948 14.65 32.993 20.055 5.522 2.704 11.055 3.873 16.599 3.358 5.542-.479 11.095-2.601 16.656-6.545 11.122-7.525 22.276-23.59 33.453-35.982 5.588-6.205 11.182-11.089 16.78-14.159 2.799-1.503 5.599-2.563 8.4-3.148 2.8-.635 5.602-.625 8.405-.562 11.208.255 22.429 2.431 33.65 6.527 11.22 4.08 22.44 10.118 33.65 16.86 11.21 6.741 22.408 14.005 33.584 19.938 11.176 5.955 22.331 10.578 33.452 13.206 11.122 2.66 22.211 3.448 33.256 2.629 11.045-.816 22.047-3.516 32.993-7.648a191.49 191.49 0 0 0 16.377-7.098c5.444-2.53 10.874-5.374 16.287-8.074 5.413-2.746 10.81-5.412 16.188-7.906 5.379-2.462 10.74-4.683 16.081-6.56 10.684-3.795 21.29-6.043 31.81-6.776 5.259-.352 10.497-.441 15.711.137 5.215.56 10.405 1.687 15.572 3.361 10.333 3.296 26.808 9.068 36.932 15.25 10.125 6.165 20.14 12.537 30.034 16.853 9.895 4.393 19.67 6.777 29.311 7.25 38.57.816 68.796 1.65 102.457 2.085 33.66.577 64.517.82 91.867 1.096 27.35.139 51.192.28 70.828.23 19.636.02 35.063.905 45.583.82 10.519-.113 16.129.587 16.129.587" id="Fill" style="mix-blend-mode:lighten"/><path d="M0 93.207s5.5-.892 16.047-.703c10.547.184 26.14-.71 45.828-.554 9.844.065 20.742-.98 32.608-.9l38.407.087 43.682-.08c15.381-.025 31.553-.086 48.428-.251l52.647-.44 56.337-.746 14.6-.193c4.898-.104 9.828.058 14.789-.723 4.96-.717 9.95-2.06 14.97-4.065 5.02-2.05 10.067-4.668 15.143-7.866 10.152-6.313 20.413-14.976 30.773-22.6 10.36-7.805 20.819-14.067 31.366-17.35 5.273-1.633 10.569-2.555 15.885-2.758 5.316-.332 10.652.596 16.008 3.158 10.712 4.83 21.5 17.344 32.355 29.294l4.073 4.32c1.36 1.39 2.72 2.672 4.08 4.016 2.722 2.62 5.447 4.943 8.177 6.893 5.459 3.892 10.933 6.415 16.42 7.233 5.488.85 10.99.265 16.504-1.932 5.513-2.185 11.04-6.021 16.576-10.967 11.075-9.933 22.193-23.58 33.344-29.988 5.575-3.36 11.16-5.123 16.75-5.377 5.59-.176 11.188.036 16.79.617 11.207 1.13 22.435 3.953 33.674 8.127C697.5 53.682 708.75 59.105 720 64.43c11.25 5.302 22.5 10.346 33.74 14.097 5.618 1.887 11.236 3.513 16.848 4.794 2.806.626 5.612 1.264 8.416 1.725 2.804.443 5.607.696 8.408.727 11.206.325 22.39-3.84 33.541-5.614 11.151-1.829 22.27-.84 33.344 2.19 11.074 3.019 22.104 7.755 33.08 8.845 10.975 1.22 21.895-.148 32.75-4.412 10.855-4.137 21.643-10.952 32.355-14.85 5.356-2 10.692-3.262 16.008-3.835 5.316-.529 10.612-.396 15.885.188 10.547 1.12 21.006 4.765 31.366 9.11 10.36 4.315 20.62 8.703 30.773 10.771 5.076 1.1 10.124 1.648 15.143 1.796l14.97.176 29.389.293c38.672.454 75.234.603 108.984.781l48.428.086 43.682-.04 38.407-.153c11.866-.115 22.631 1.05 32.476.955 19.687-.22 35.333.575 45.88.349C1434.42 92.225 1440 93 1440 93s-5.625 1.247-16.172 1.065c-10.547-.227-26.016.765-45.703.545-9.844-.095-20.742.4-32.608.285l-38.407-.152-43.682-.04-48.428.085c-33.75.178-70.312.328-108.984.783l-29.389.292-14.97.177c-5.02.147-10.067.695-15.143 1.794-10.152 2.068-20.413 6.457-30.773 10.772-10.36 4.345-20.819 7.99-31.366 9.11-5.273.584-10.569.717-15.885.188-5.316-.572-10.652-1.835-16.008-3.835-10.712-3.897-21.5-10.713-32.355-14.85-10.855-4.264-21.775-5.631-32.75-4.412-10.976 1.09-22.006 5.826-33.08 8.844-11.074 3.03-22.193 4.02-33.344 2.19-11.15-1.774-22.335-5.938-33.54-5.613a57.88 57.88 0 0 0-8.41.727c-2.803.462-5.609 1.099-8.415 1.726-5.612 1.28-11.23 2.906-16.849 4.793-11.24 3.75-22.489 8.795-33.739 14.097-11.25 5.324-22.5 10.746-33.74 14.97-11.238 4.174-22.466 6.997-33.672 8.128-5.603.58-11.2.791-16.792.615-5.59-.252-11.174-2.017-16.75-5.376-11.15-6.409-22.268-20.055-33.343-29.988-5.537-4.946-11.063-8.783-16.576-10.967-5.514-2.197-11.016-2.783-16.504-1.931-5.487.816-10.961 3.34-16.42 7.232-2.73 1.95-5.455 4.272-8.177 6.893-1.36 1.344-2.72 2.626-4.08 4.017l-4.073 4.319c-10.855 11.95-21.643 24.464-32.355 29.294-5.356 2.563-10.692 3.49-16.008 3.159-5.316-.204-10.612-1.126-15.885-2.76-10.547-3.282-21.006-9.544-31.366-17.35-10.36-7.624-20.62-16.287-30.773-22.6-5.076-3.197-10.124-5.815-15.143-7.865-5.02-2.005-10.01-3.349-14.97-4.065-4.96-.78-9.89-.62-14.789-.723l-14.6-.193-56.337-.747L225 95.194a5927.703 5927.703 0 0 0-48.428-.252c-15.38-.027-29.97-.054-43.682-.08l-38.407.088c-11.866.08-22.764-.493-32.608-.427-19.687.156-35.156-.697-45.703-.512C5.625 94.198 0 93.207 0 93.207" id="Fill" style="mix-blend-mode:screen" opacity=".4"/><path d="M0 93.406s5.625-.827 16.172-.697c10.547.085 26.016-.51 45.703-.554 9.844-.044 20.742-.396 32.608-.448 11.865-.06 24.697-.162 38.407-.364 27.423-.277 58.36-.892 92.11-1.568l52.647-1.327c4.548-.155 9.134-.136 13.759-.458a82.12 82.12 0 0 0 13.98-2.303c4.697-1.182 9.43-2.826 14.196-4.71l14.402-6.033c4.835-1.983 9.701-3.88 14.6-5.32 4.898-1.414 9.828-2.451 14.789-2.918 9.92-1.004 19.962-.057 30.113 2.94 10.152 2.91 20.413 8.144 30.773 12.342 10.36 4.368 20.819 7.068 31.366 7.116 10.547.122 21.181-2.278 31.893-7.383 10.712-5.069 21.5-12.751 32.355-19.089 10.855-6.436 21.775-10.765 32.75-11.653 2.744-.22 5.492-.368 8.242-.11 2.75.3 5.504 1.095 8.262 2.41 2.756 1.342 5.516 3.15 8.279 5.414a62.548 62.548 0 0 1 4.146 3.713l2.075 1.986 2.076 2.168c5.537 5.653 11.085 12.058 16.643 16.49 5.558 4.5 11.125 7.11 16.7 7.294 5.576.204 11.16-1.6 16.75-5.289 1.398-.95 2.797-1.97 4.195-3.204 1.398-1.118 2.797-2.508 4.197-3.862 2.798-2.876 5.599-6.132 8.4-9.79 5.603-7.382 11.212-16.494 16.824-24.949l8.422-12.853c1.404-2.154 2.808-3.932 4.213-5.917.702-.953 1.405-1.972 2.107-2.87l2.107-2.654c5.62-6.841 11.242-12.11 16.865-15.138A29.273 29.273 0 0 1 711.562.68c2.813-.525 5.625-.636 8.438-.678 11.25-.092 22.5 3.22 33.74 9.744 11.238 6.403 22.466 16.051 33.672 25.189 11.206 9.385 22.39 17.92 33.541 23.38a76.542 76.542 0 0 0 16.701 6.186c5.558 1.322 11.106 2.06 16.643 1.77 5.537-.255 11.063-1.47 16.576-3.57 5.514-2.13 11.016-5.027 16.504-8.543 10.975-6.899 21.895-15.455 32.75-20.515 10.855-5.292 21.643-6.984 32.355-5.476 10.712 1.218 21.346 4.035 31.893 8.23 21.094 8.369 41.836 23.152 62.139 34.388 20.303 11.227 40.166 18.074 59.502 19.378 9.668.591 19.204-.93 28.597-2.449 9.393-1.52 18.644-3.818 27.74-3.509 18.194.156 35.772 2.511 52.647 3.61l24.774 1.49 11.971.547 11.683.363 43.682.862c27.421.396 51.327 1.127 71.015 1.186 19.687.102 35.156.378 45.703.348 10.547-.116 16.172.59 16.172.59s-5.625 1.175-16.172 1.059c-10.547-.031-26.016.44-45.703.542-19.688.06-43.594.725-71.015 1.122l-43.682.861-11.683.363-11.97.547-24.775 1.49c-16.875 1.1-34.453 3.454-52.647 3.61-9.096.309-18.347-1.99-27.74-3.51-9.393-1.517-18.93-3.038-28.597-2.448-19.336 1.305-39.2 8.15-59.502 19.378-20.303 11.237-41.045 26.02-62.14 34.388-10.546 4.195-21.18 7.012-31.892 8.23-10.712 1.508-21.5-.184-32.355-5.476-10.855-5.06-21.775-13.616-32.75-20.515-5.488-3.516-10.99-6.413-16.504-8.543-5.513-2.1-11.04-3.314-16.576-3.57-5.537-.289-11.085.448-16.643 1.77a76.578 76.578 0 0 0-16.7 6.186c-11.152 5.46-22.336 13.995-33.542 23.38-11.206 9.138-22.434 18.787-33.673 25.19-11.24 6.524-22.489 9.835-33.739 9.743-2.813-.042-5.625-.153-8.438-.678a29.291 29.291 0 0 1-8.436-3.137c-5.623-3.029-11.246-8.297-16.865-15.138l-2.107-2.655c-.702-.898-1.405-1.917-2.107-2.87-1.405-1.984-2.809-3.763-4.213-5.917l-8.422-12.853c-5.612-8.455-11.221-17.567-16.824-24.948-2.801-3.658-5.602-6.915-8.4-9.791-1.4-1.354-2.799-2.744-4.197-3.861-1.398-1.234-2.797-2.255-4.195-3.205-5.59-3.69-11.174-5.493-16.75-5.289-5.575.184-11.142 2.795-16.7 7.295-5.558 4.431-11.106 10.837-16.643 16.49l-2.076 2.167-2.075 1.986a62.352 62.352 0 0 1-4.146 3.713c-2.763 2.264-5.523 4.072-8.28 5.414-2.757 1.315-5.51 2.11-8.26 2.41-2.751.26-5.499.11-8.243-.11-10.975-.888-21.895-5.216-32.75-11.653-10.855-6.338-21.643-14.02-32.355-19.089-10.712-5.105-21.346-7.504-31.893-7.383-10.547.049-21.006 2.748-31.366 7.117-10.36 4.197-20.62 9.433-30.773 12.34-10.15 2.998-20.193 3.945-30.113 2.94-4.96-.466-9.89-1.502-14.789-2.916-4.899-1.44-9.765-3.337-14.6-5.32l-14.402-6.035c-4.766-1.883-9.499-3.527-14.195-4.708a81.982 81.982 0 0 0-13.981-2.303c-4.625-.323-9.211-.304-13.76-.458L225 97.225c-33.75-.675-64.687-1.29-92.11-1.567-13.71-.203-26.542-.304-38.407-.365-11.866-.051-22.764-.535-32.608-.578-19.687-.044-35.156-.596-45.703-.51C5.625 94.335 0 93.406 0 93.406" id="Fill" opacity=".3" style="mix-blend-mode:screen"/></g></g></g></svg>