<svg width="39" height="35" viewBox="0 0 39 35" version="1.1" xmlns="http://www.w3.org/2000/svg"><title>Group 2 Copy 2</title><g id="Symbols" stroke="none" stroke-width="1" fill="none" fill-rule="evenodd"><g id="header/header_desktop_RED" transform="translate(-156 -23)" fill="#FFF"><g id="header"><g id="Group-2-Copy-2" transform="translate(155 23)"><g id="Group-Copy-2"><path d="M14.005 6.444L39.3 31.74a1.573 1.573 0 1 1-2.225 2.225L11.782 8.669a1.573 1.573 0 1 1 2.224-2.225zM7.53 6.42l23.676 23.677a1.573 1.573 0 0 1-2.224 2.224L5.305 8.644A1.573 1.573 0 0 1 7.53 6.419zm24.282 11.39l4.79 4.79a1.573 1.573 0 1 1-2.224 2.225l-4.79-4.79a1.573 1.573 0 0 1 2.224-2.225zm-1.619-8.317l6.41 6.409a1.573 1.573 0 1 1-2.225 2.224l-6.41-6.409a1.573 1.573 0 1 1 2.225-2.225zM28.035.593l6.409 6.41a1.573 1.573 0 1 1-2.225 2.224l-6.409-6.41A1.573 1.573 0 1 1 28.035.593v.001zm-6.475 26.67l4.79 4.79a1.573 1.573 0 1 1-2.225 2.225l-4.79-4.79a1.573 1.573 0 1 1 2.225-2.224zm-9.174-2.755l6.41 6.409a1.573 1.573 0 0 1-2.225 2.224l-6.41-6.409a1.573 1.573 0 0 1 2.225-2.224zm-8.633-2.225l6.409 6.41a1.573 1.573 0 0 1-2.225 2.225l-6.409-6.41a1.573 1.573 0 0 1 2.225-2.225z" id="Combined-Shape"/></g></g></g></g></g></svg>