<svg xmlns="http://www.w3.org/2000/svg" width="41" height="36" viewBox="0 0 41 36"><path fill="#FFF" d="M25.082 1.042A1.545 1.545 0 0 1 27.26.931l6.62 5.96c.632.57.689 1.54.116 2.176-.572.63-1.544.68-2.177.111L25.2 3.218a1.537 1.537 0 0 1-.117-2.176zm1.114 6.221a1.544 1.544 0 0 1 2.176-.111l6.62 5.96c.633.57.69 1.54.117 2.176-.571.63-1.544.68-2.177.111l-6.619-5.96a1.538 1.538 0 0 1-.117-2.176zm2.61 7.567a1.545 1.545 0 0 1 2.176-.111l6.62 5.96c.633.57.689 1.54.116 2.176-.57.63-1.544.68-2.177.112l-6.618-5.96a1.537 1.537 0 0 1-.117-2.176v-.001zm-5.167.566a1.538 1.538 0 0 1 2.17-.118L39.2 27.338c.63.566.684 1.534.11 2.17a1.539 1.539 0 0 1-2.17.117L23.75 17.565a1.533 1.533 0 0 1-.111-2.17v.001zM9.769 8.125a1.539 1.539 0 0 1 2.174-.113l27.859 25.083c.632.57.688 1.54.115 2.176a1.538 1.538 0 0 1-2.175.112L9.884 10.299a1.536 1.536 0 0 1-.116-2.174zm-5.108.62a1.534 1.534 0 0 1 2.173-.116l24.304 21.883a1.534 1.534 0 0 1 .113 2.173 1.534 1.534 0 0 1-2.172.115L4.775 10.917a1.534 1.534 0 0 1-.114-2.173zm13.766 17.612a1.545 1.545 0 0 1 2.176-.112l6.62 5.96c.633.57.69 1.54.117 2.176-.571.63-1.544.68-2.177.112l-6.619-5.96a1.537 1.537 0 0 1-.116-2.176h-.001zm-4.538 1.13a1.545 1.545 0 0 1 2.176-.11l6.62 5.96c.633.57.69 1.54.117 2.176-.57.63-1.544.68-2.176.112l-6.62-5.96a1.537 1.537 0 0 1-.117-2.177zm-5.855-.052a1.545 1.545 0 0 1 2.177-.112l6.62 5.96c.633.57.689 1.54.116 2.177-.571.63-1.544.679-2.176.11l-6.62-5.96a1.537 1.537 0 0 1-.117-2.176zm-7.08-1.158a1.545 1.545 0 0 1 2.176-.112l6.619 5.96c.633.57.69 1.54.117 2.176-.572.63-1.544.68-2.176.111l-6.62-5.96a1.537 1.537 0 0 1-.117-2.176v.001z"/></svg>