<?xml version="1.0" encoding="UTF-8" standalone="no"?>
<svg width="300px" height="99px" viewBox="0 0 300 99" version="1.1" xmlns="http://www.w3.org/2000/svg" xmlns:xlink="http://www.w3.org/1999/xlink">
    <!-- Generator: Sketch 39.1 (31720) - http://www.bohemiancoding.com/sketch -->
    <title>Group 18</title>
    <desc>Created with Sketch.</desc>
    <defs></defs>
    <g id="Page-1" stroke="none" stroke-width="1" fill="none" fill-rule="evenodd">
        <g id="landing-copy" transform="translate(-570.000000, -416.000000)" fill="#FFFFFF">
            <g id="Group-2" transform="translate(430.000000, 416.000000)">
                <g id="Group-18" transform="translate(140.000000, 0.000000)">
                    <g id="Group-17-Copy" transform="translate(0.000000, 6.201550)">
                        <g id="Group-14">
                            <g id="Group-3-Copy-3">
                                <g id="Group" transform="translate(0.000000, 0.076313)">
                                    <path d="M46.2582237,84.6129 C67.4447997,84.6129 84.6217105,67.4381828 84.6217105,46.2534074 C84.6217105,25.0690373 67.445205,7.89391487 46.2582237,7.89391487 C25.0716477,7.89391487 7.89473684,25.0686321 7.89473684,46.2534074 C7.89473684,67.4377776 25.0712424,84.6129 46.2582237,84.6129 Z M46.2582237,5.68434189e-14 C71.8059352,5.68434189e-14 92.5164474,20.7099359 92.5164474,46.2534074 C92.5164474,71.798459 71.804355,92.5068149 46.2582237,92.5068149 C20.7105122,92.5068149 0,71.796879 0,46.2534074 C0,20.7083559 20.7120924,5.68434189e-14 46.2582237,5.68434189e-14 Z" id="Rectangle"></path>
                                </g>
                            </g>
                            <g id="Group-2-Copy-2" transform="translate(114.473684, 11.670500)">
                                <path d="M0,68.9300139 L17.7331849,68.9300139 L17.7331849,64.9097706 L4.20948857,64.9097706 L4.20948857,56.6769279 L15.7522491,56.6769279 L15.7522491,52.9067476 L4.20948857,52.9067476 L4.20948857,44.9047322 L17.7331849,44.9047322 L17.7331849,40.8844889 L0,40.8844889 L0,68.9300139 Z M23.3382173,62.1206066 L20.5763357,65.3137185 C23.5350559,67.8784799 27.0714989,69.1608413 31.1857707,69.1608413 C37.547654,69.0838985 40.798388,66.3652922 40.93807,61.004941 C40.93807,59.017251 40.3222083,57.2732394 39.0904664,55.7728541 C37.8460262,54.2468211 35.922252,53.3042854 33.3190862,52.9452188 C31.9984557,52.7785093 30.957205,52.6310378 30.1953028,52.5027997 C28.8238789,52.2463236 27.8270718,51.7846735 27.2048516,51.1178355 C26.5826315,50.4638214 26.2715261,49.7328754 26.2715261,48.9249755 C26.2969229,47.5784758 26.7604064,46.5654103 27.6619907,45.8857485 C28.5254798,45.2317344 29.6048251,44.9047322 30.9000588,44.9047322 C33.4016377,44.9560275 35.6936591,45.6741499 37.7761917,47.059121 L40.1190293,43.5582393 C37.5666569,41.6987873 34.5635375,40.7306044 31.1095809,40.6536616 C28.2397493,40.6793092 26.023917,41.4359024 24.4620175,42.923464 C22.8493245,44.4238494 22.0429901,46.398686 22.0429901,48.8480331 C22.0429901,50.8870183 22.6842482,52.6182063 23.9667835,54.0416488 C25.2112238,55.4266199 27.0270634,56.3178611 29.414357,56.7153991 C30.7476858,56.9077562 31.9730601,57.080875 33.0905167,57.2347607 C35.5286037,57.6579463 36.7349307,58.9146605 36.709534,61.004941 C36.6587405,63.5568786 34.8302027,64.8584754 31.2238656,64.9097706 C28.1762569,64.884123 25.5477337,63.954411 23.3382173,62.1206066 L23.3382173,62.1206066 Z M50.8859233,44.9047322 L56.9620629,44.9047322 C58.1049162,44.8790846 59.1080723,45.1419687 59.9715615,45.6933924 C60.5429881,46.0268114 60.9874244,46.4820497 61.3048837,47.059121 C61.6096446,47.7003113 61.7620227,48.4889636 61.7620227,49.4251015 C61.7620227,50.5535965 61.3874264,51.5794856 60.6382226,52.5027997 C59.8509237,53.4517614 58.6763421,53.9390587 57.1144426,53.9647064 L50.8859233,53.9647064 L50.8859233,44.9047322 Z M46.6764347,68.9300139 L50.8859233,68.9300139 L50.8859233,57.9849497 L57.2858697,57.9849497 C60.1430029,57.9336544 62.3143916,57.0103542 63.8001009,55.2150213 C65.2477151,53.509455 65.9715113,51.6179719 65.9715113,49.5405152 C65.9715113,48.0016584 65.6858022,46.6680025 65.1143756,45.5395075 C64.5683457,44.3725411 63.8572476,43.4748881 62.9810601,42.8465216 C61.9397938,42.0129741 60.9112413,41.4615587 59.8953717,41.1922588 C58.8795021,40.9870779 57.8255532,40.8844889 56.7334934,40.8844889 L46.6764347,40.8844889 L46.6764347,68.9300139 Z M75.3098458,44.6739049 L81.9002668,44.6739049 C83.246294,44.6739049 84.2748466,44.9624362 84.9859553,45.5395075 C85.8875396,46.1935216 86.3510231,47.2514698 86.3764198,48.7133838 C86.3764198,49.9316454 85.9891254,50.9575346 85.2145248,51.791082 C84.4272259,52.6887485 83.2462952,53.1503986 81.6716973,53.1760462 L75.3098458,53.1760462 L75.3098458,44.6739049 Z M71.1003572,68.9300139 L75.3098458,68.9300139 L75.3098458,56.9462265 L80.6812294,56.9462265 L86.4145148,68.9300139 L91.4239966,68.9300139 L84.9859553,56.4845718 C88.5161021,55.1124245 90.3065454,52.5220544 90.3573389,48.7133838 C90.2811487,46.1229748 89.3605307,44.1289028 87.5954573,42.7311079 C86.1351447,41.5000224 84.2494651,40.8844889 81.9383618,40.8844889 L71.1003572,40.8844889 L71.1003572,68.9300139 Z M96.1909409,68.9300139 L113.924126,68.9300139 L113.924126,64.9097706 L100.400429,64.9097706 L100.400429,56.6769279 L111.94319,56.6769279 L111.94319,52.9067476 L100.400429,52.9067476 L100.400429,44.9047322 L113.924126,44.9047322 L113.924126,40.8844889 L96.1909409,40.8844889 L96.1909409,68.9300139 Z M119.529158,62.1206066 L116.767277,65.3137185 C119.725997,67.8784799 123.26244,69.1608413 127.376712,69.1608413 C133.738595,69.0838985 136.989329,66.3652922 137.129011,61.004941 C137.129011,59.017251 136.513149,57.2732394 135.281407,55.7728541 C134.036967,54.2468211 132.113193,53.3042854 129.510027,52.9452188 C128.189397,52.7785093 127.148146,52.6310378 126.386244,52.5027997 C125.01482,52.2463236 124.018013,51.7846735 123.395793,51.1178355 C122.773572,50.4638214 122.462467,49.7328754 122.462467,48.9249755 C122.487864,47.5784758 122.951347,46.5654103 123.852932,45.8857485 C124.716421,45.2317344 125.795766,44.9047322 127.091,44.9047322 C129.592579,44.9560275 131.8846,45.6741499 133.967133,47.059121 L136.30997,43.5582393 C133.757598,41.6987873 130.754478,40.7306044 127.300522,40.6536616 C124.43069,40.6793092 122.214858,41.4359024 120.652958,42.923464 C119.040265,44.4238494 118.233931,46.398686 118.233931,48.8480331 C118.233931,50.8870183 118.875189,52.6182063 120.157724,54.0416488 C121.402165,55.4266199 123.218004,56.3178611 125.605298,56.7153991 C126.938627,56.9077562 128.164001,57.080875 129.281458,57.2347607 C131.719545,57.6579463 132.925872,58.9146605 132.900475,61.004941 C132.849681,63.5568786 131.021144,64.8584754 127.414806,64.9097706 C124.367198,64.884123 121.738675,63.954411 119.529158,62.1206066 L119.529158,62.1206066 Z M143.21023,62.1206066 L140.448348,65.3137185 C143.407068,67.8784799 146.943511,69.1608413 151.057783,69.1608413 C157.419667,69.0838985 160.6704,66.3652922 160.810083,61.004941 C160.810083,59.017251 160.194221,57.2732394 158.962479,55.7728541 C157.718039,54.2468211 155.794265,53.3042854 153.191099,52.9452188 C151.870468,52.7785093 150.829217,52.6310378 150.067315,52.5027997 C148.695891,52.2463236 147.699084,51.7846735 147.076864,51.1178355 C146.454644,50.4638214 146.143539,49.7328754 146.143539,48.9249755 C146.168935,47.5784758 146.632419,46.5654103 147.534003,45.8857485 C148.397492,45.2317344 149.476838,44.9047322 150.772071,44.9047322 C153.27365,44.9560275 155.565672,45.6741499 157.648204,47.059121 L159.991042,43.5582393 C157.438669,41.6987873 154.43555,40.7306044 150.981593,40.6536616 C148.111762,40.6793092 145.895929,41.4359024 144.33403,42.923464 C142.721337,44.4238494 141.915003,46.398686 141.915003,48.8480331 C141.915003,50.8870183 142.556261,52.6182063 143.838796,54.0416488 C145.083236,55.4266199 146.899076,56.3178611 149.286369,56.7153991 C150.619698,56.9077562 151.845073,57.080875 152.962529,57.2347607 C155.400616,57.6579463 156.606943,58.9146605 156.581546,61.004941 C156.530753,63.5568786 154.702215,64.8584754 151.095878,64.9097706 C148.048269,64.884123 145.419746,63.954411 143.21023,62.1206066 L143.21023,62.1206066 Z M165.596074,54.9072514 C165.596074,58.1132031 165.691311,60.2803939 165.881786,61.4088889 C165.983373,62.0116078 166.110355,62.5117288 166.262735,62.9092668 C166.427814,63.293981 166.611938,63.6979248 166.815112,64.1211105 C167.488125,65.4163149 168.56747,66.5576166 170.05318,67.5450497 C171.513492,68.5709543 173.335681,69.1095461 175.519801,69.1608413 C177.729317,69.1095461 179.570553,68.5709543 181.043564,67.5450497 C182.503876,66.5576166 183.557825,65.4163149 184.205442,64.1211105 C184.675282,63.4414487 184.999086,62.5373839 185.176863,61.4088889 C185.341941,60.2803939 185.42448,58.1132031 185.42448,54.9072514 C185.42448,51.6500045 185.341941,49.4699901 185.176863,48.3671427 C184.999086,47.2642954 184.675282,46.3730542 184.205442,45.6933924 C183.557825,44.3981879 182.503876,43.2440626 181.043564,42.2309819 C179.570553,41.2050774 177.729317,40.6793092 175.519801,40.6536616 C173.335681,40.6793092 171.513492,41.2050774 170.05318,42.2309819 C168.56747,43.2440626 167.488125,44.3981879 166.815112,45.6933924 C166.396065,46.3730542 166.08496,47.2642954 165.881786,48.3671427 C165.691311,49.4699901 165.596074,51.6500045 165.596074,54.9072514 L165.596074,54.9072514 Z M169.82461,54.9072514 C169.82461,52.150133 169.926196,50.2714735 170.12937,49.2712166 C170.307147,48.3222549 170.669045,47.5464262 171.215075,46.9437073 C171.659518,46.366636 172.243634,45.8857505 172.967441,45.5010363 C173.67855,45.1291459 174.529328,44.9303799 175.519801,44.9047322 C176.522972,44.9303799 177.392797,45.1291459 178.129303,45.5010363 C178.827713,45.8857505 179.386433,46.366636 179.805479,46.9437073 C180.351509,47.5464262 180.726105,48.3222549 180.929279,49.2712166 C181.119755,50.2714735 181.214991,52.150133 181.214991,54.9072514 C181.214991,57.6643699 181.119755,59.5302058 180.929279,60.5048151 C180.726105,61.4794244 180.351509,62.2680767 179.805479,62.8707956 C179.386433,63.4478669 178.827713,63.9159288 178.129303,64.2749954 C177.392797,64.698181 176.522972,64.9097706 175.519801,64.9097706 C174.529328,64.9097706 173.67855,64.698181 172.967441,64.2749954 C172.243634,63.9159288 171.659518,63.4478669 171.215075,62.8707956 C170.669045,62.2680767 170.307147,61.4794244 170.12937,60.5048151 C169.926196,59.5302058 169.82461,57.6643699 169.82461,54.9072514 L169.82461,54.9072514 Z" id="ESPRESSO"></path>
                                <g id="Group-5">
                                    <path d="M0.0116446331,28.1014365 L9.44013714,28.1014365 C11.5226698,28.1014365 13.2813677,27.6397864 14.7162835,26.7164723 C16.1638976,25.8572772 17.2940356,24.76727 18.1067313,23.4464179 C18.4114921,22.9462895 18.6718048,22.4654039 18.8876771,22.0037469 C19.090851,21.5292661 19.2432292,20.9906743 19.3448161,20.3879553 C19.5606884,19.1953413 19.668623,17.0922686 19.668623,14.078674 C19.668623,11.2446127 19.598783,9.2505407 19.4591009,8.0963981 C19.2813237,6.9422555 18.8559347,5.83942467 18.1829211,4.78787252 C16.3035624,1.65886369 13.4845665,0.0815591309 9.72584904,0.0559115176 L0.0116446331,0.0559115176 L0.0116446331,28.1014365 Z M4.22113321,4.07615481 L9.24966254,4.07615481 C11.3829887,4.02485958 13.033752,4.81351186 14.202002,6.44213531 C14.7734287,7.09614945 15.1353268,7.9489198 15.2877072,9.00047195 C15.4019926,10.0520241 15.4591344,11.7960356 15.4591344,14.2325589 C15.4591344,16.7332012 15.4019926,18.4387419 15.2877072,19.3492322 C15.1607235,20.2725463 14.8623163,21.0355513 14.3924766,21.6382702 C13.3258136,23.2668937 11.6115593,24.0811932 9.24966254,24.0811932 L4.22113321,24.0811932 L4.22113321,4.07615481 Z M24.5498519,10.2200099 C24.5498519,12.3231142 24.7212774,13.926066 25.0641333,15.0289133 C25.4196877,16.1317607 25.9657094,17.08712 26.7022149,17.8950198 C27.2482448,18.5233863 28.0101355,19.0876253 28.98791,19.5877538 C29.9529861,20.1391775 31.1910586,20.4277088 32.7021646,20.4533564 C34.2640641,20.4277088 35.527533,20.1391775 36.4926091,19.5877538 C37.0132423,19.3569253 37.4386313,19.0812176 37.7687889,18.7606224 C38.1370416,18.4784987 38.448147,18.1899673 38.7021144,17.8950198 C39.4894134,17.08712 40.0481333,16.1317607 40.3782909,15.0289133 C40.6957501,13.926066 40.8544774,12.3231142 40.8544774,10.2200099 C40.8544774,8.11690557 40.6957501,6.50113017 40.3782909,5.37263518 C40.0481333,4.26978781 39.4894134,3.34007577 38.7021144,2.58347118 C38.1814813,1.91663323 37.4449869,1.32033516 36.4926091,0.794559089 C35.527533,0.294430629 34.2640641,0.0315465349 32.7021646,0.00589892158 C31.1910586,0.0315465349 29.9529861,0.294430629 28.98791,0.794559089 C28.0101355,1.32033516 27.2482448,1.91663323 26.7022149,2.58347118 C25.9657094,3.34007577 25.4196877,4.26978781 25.0641333,5.37263518 C24.7212774,6.50113017 24.5498519,8.11690557 24.5498519,10.2200099 L24.5498519,10.2200099 Z M36.8735583,10.2584811 C36.8735583,11.6178046 36.8100674,12.6180465 36.6830837,13.2592369 C36.5561,13.913251 36.2957873,14.4903136 35.9021379,14.9904421 C35.6100754,15.3751563 35.1783373,15.7149821 34.6069106,16.0099296 C34.0608807,16.2920534 33.4259717,16.4331131 32.7021646,16.4331131 C32.029151,16.4331131 31.4069403,16.2920534 30.8355136,16.0099296 C30.2894837,15.7149821 29.8450474,15.3751563 29.5021914,14.9904421 C29.1593354,14.4903136 28.9117209,13.913251 28.7593405,13.2592369 C28.6069601,12.6180465 28.530771,11.604981 28.530771,10.2200099 C28.530771,8.82221494 28.6069601,7.7963258 28.7593405,7.14231166 C28.9117209,6.51394513 29.1593354,5.96252971 29.5021914,5.48804887 C29.8450474,5.03921563 30.2894837,4.68656624 30.8355136,4.4300901 C31.4069403,4.16079016 32.029151,4.02614221 32.7021646,4.02614221 C33.4259717,4.02614221 34.0608807,4.16079016 34.6069106,4.4300901 C35.1783373,4.68656624 35.6100754,5.03921563 35.9021379,5.48804887 C36.2957873,5.96252971 36.5561,6.51394513 36.6830837,7.14231166 C36.8100674,7.7963258 36.8735583,8.83503856 36.8735583,10.2584811 L36.8735583,10.2584811 Z M46.1958552,18.5490307 C46.2212519,21.4985062 47.1863135,23.8388158 49.091069,25.5700297 C50.9577294,27.3525388 53.2814962,28.2566036 56.0624392,28.2822513 C58.8941757,28.2566036 61.2369898,27.3525388 63.0909518,25.5700297 C64.9322155,23.8388158 65.8782298,21.4985062 65.9290233,18.5490307 L65.9290233,0.00589892158 L61.7195347,0.00589892158 L61.7195347,18.0873759 C61.694138,19.9981231 61.1608145,21.4536033 60.1195481,22.4538603 C59.0528851,23.5054124 57.700529,24.0311806 56.0624392,24.0311806 C54.4243495,24.0311806 53.0846916,23.5054124 52.0434253,22.4538603 C50.9767622,21.4536033 50.4307405,19.9981231 50.4053437,18.0873759 L50.4053437,0.00589892158 L46.1958552,0.00589892158 L46.1958552,18.5490307 Z M72.5596088,28.1014365 L84.254749,28.1014365 C86.4388686,28.1014365 88.2610574,27.3640787 89.7213699,25.8893409 C91.1943808,24.4787222 91.9435734,22.5615918 91.9689701,20.1378924 C91.9689701,18.6759784 91.607072,17.3230871 90.8832649,16.0791778 C90.1086644,14.87374 88.9658282,14.0722641 87.4547222,13.6747261 L87.4547222,13.5977837 C88.2547195,13.2130695 88.927723,12.7834784 89.4737529,12.3089975 C90.0197828,11.8601643 90.4388228,11.3856906 90.7308853,10.8855621 C91.3023119,9.83400996 91.5753228,8.73117913 91.549926,7.57703653 C91.549926,5.32004655 90.8578753,3.50550513 89.4737529,2.13335781 C88.102329,0.774034304 86.051573,0.0815591309 83.3214235,0.0559115176 L72.5596088,0.0559115176 L72.5596088,28.1014365 Z M83.2452336,15.6559943 C84.8071331,15.681642 85.9499693,16.0984094 86.6737764,16.9063092 C87.3975835,17.7270329 87.7594816,18.7144512 87.7594816,19.8685938 C87.7594816,20.9970888 87.3975835,21.9716834 86.6737764,22.7924071 C85.9499693,23.6259545 84.8071331,24.0555456 83.2452336,24.0811932 L76.7690974,24.0811932 L76.7690974,15.6559943 L83.2452336,15.6559943 Z M82.845237,3.84532744 C84.3817398,3.87097506 85.5118777,4.24927168 86.2356848,4.98022866 C86.9721903,5.76248087 87.3404375,6.71784013 87.3404375,7.84633512 C87.3404375,8.97483011 86.9721903,9.91095395 86.2356848,10.6547347 C85.5118777,11.4626346 84.3817398,11.8665784 82.845237,11.8665784 L76.7690974,11.8665784 L76.7690974,3.84532744 L82.845237,3.84532744 Z M97.6501924,28.1014365 L115.383377,28.1014365 L115.383377,24.0811932 L101.859681,24.0811932 L101.859681,0.0559115176 L97.6501924,0.0559115176 L97.6501924,28.1014365 Z M120.645556,28.1014365 L138.37874,28.1014365 L138.37874,24.0811932 L124.855044,24.0811932 L124.855044,15.8483505 L136.397805,15.8483505 L136.397805,12.0781702 L124.855044,12.0781702 L124.855044,4.07615481 L138.37874,4.07615481 L138.37874,0.0559115176 L120.645556,0.0559115176 L120.645556,28.1014365 Z" id="DoUBLE"></path>
                                    <ellipse id="Oval-2" cx="38.538206" cy="26.0243632" rx="2.10409745" ry="2.10409745"></ellipse>
                                </g>
                            </g>
                        </g>
                    </g>
                    <ellipse id="Oval" cx="46.179402" cy="52.4916944" rx="25.2491694" ry="25.2491694"></ellipse>
                    <ellipse id="Oval-3" cx="90.9410153" cy="7.96064401" rx="7.91805094" ry="7.91805094"></ellipse>
                </g>
            </g>
        </g>
    </g>
</svg>