<?xml version="1.0" encoding="UTF-8" standalone="no"?>
<svg width="291px" height="43px" viewBox="0 0 291 43" version="1.1" xmlns="http://www.w3.org/2000/svg" xmlns:xlink="http://www.w3.org/1999/xlink">
    <!-- Generator: Sketch 43.1 (39012) - http://www.bohemiancoding.com/sketch -->
    <title>Group 2</title>
    <desc>Created with Sketch.</desc>
    <defs>
        <linearGradient x1="50%" y1="-7.68614786%" x2="50%" y2="100%" id="linearGradient-1">
            <stop stop-color="#E6AA4B" offset="0%"></stop>
            <stop stop-color="#D04436" offset="100%"></stop>
        </linearGradient>
    </defs>
    <g id="Page-2" stroke="none" stroke-width="1" fill="none" fill-rule="evenodd">
        <g id="Desktop-HD" transform="translate(-533.000000, -476.000000)">
            <g id="Group-2" transform="translate(523.750000, 467.943065)">
                <g id="Group-3" fill="url(#linearGradient-1)">
                    <g id="Group" transform="translate(35.672498, 34.621110) rotate(42.000000) translate(-35.672498, -34.621110) translate(9.346640, 11.772253)">
                        <path d="M11.8865419,1.95585303 C11.8865419,0.947677747 12.712862,0.130390202 13.7171755,0.130390202 L24.281569,0.130390202 C25.2926,0.130390202 26.1122026,0.940648934 26.1122026,1.95585303 C26.1122026,2.96402831 25.2858825,3.78131585 24.281569,3.78131585 L13.7171755,3.78131585 C12.7061445,3.78131585 11.8865419,2.97105712 11.8865419,1.95585303 Z M17.8059444,6.55507105 C17.8059444,5.54689577 18.6322645,4.72960823 19.6365779,4.72960823 L30.2009714,4.72960823 C31.2120024,4.72960823 32.031605,5.53986696 32.031605,6.55507105 C32.031605,7.56324633 31.2052849,8.38053388 30.2009714,8.38053388 L19.6365779,8.38053388 C18.6255469,8.38053388 17.8059444,7.57027514 17.8059444,6.55507105 Z M26.1122026,11.1542891 C26.1122026,10.1461138 26.9385227,9.32882625 27.9428361,9.32882625 L38.5072297,9.32882625 C39.5182606,9.32882625 40.3378632,10.139085 40.3378632,11.1542891 C40.3378632,12.1624644 39.5115431,12.9797519 38.5072297,12.9797519 L27.9428361,12.9797519 C26.9318051,12.9797519 26.1122026,12.1694932 26.1122026,11.1542891 Z M22.0068106,15.7535071 C22.0068106,14.7453318 22.8248579,13.9280443 23.8259229,13.9280443 L45.2019472,13.9280443 C46.2066151,13.9280443 47.0210595,14.738303 47.0210595,15.7535071 C47.0210595,16.7616824 46.2030122,17.5789699 45.2019472,17.5789699 L23.8259229,17.5789699 C22.8212549,17.5789699 22.0068106,16.7687112 22.0068106,15.7535071 Z M4.00991776,20.3527251 C4.00991776,19.3445498 4.82492332,18.5272623 5.83748171,18.5272623 L50.301367,18.5272623 C51.3107027,18.5272623 52.1289309,19.337521 52.1289309,20.3527251 C52.1289309,21.3609004 51.3139254,22.1781879 50.301367,22.1781879 L5.83748171,22.1781879 C4.82814601,22.1781879 4.00991776,21.3679292 4.00991776,20.3527251 Z M-4.30372441e-13,24.9519432 C-4.30372441e-13,23.9437679 0.809866165,23.1264803 1.82352054,23.1264803 L40.6147758,23.1264803 C41.6218784,23.1264803 42.4382963,23.9367391 42.4382963,24.9519432 C42.4382963,25.9601184 41.6284302,26.777406 40.6147758,26.777406 L1.82352054,26.777406 C0.816417957,26.777406 -4.30372441e-13,25.9671472 -4.30372441e-13,24.9519432 Z M26.1122026,29.5511612 C26.1122026,28.5429859 26.9385227,27.7256984 27.9428361,27.7256984 L38.5072297,27.7256984 C39.5182606,27.7256984 40.3378632,28.5359571 40.3378632,29.5511612 C40.3378632,30.5593365 39.5115431,31.376624 38.5072297,31.376624 L27.9428361,31.376624 C26.9318051,31.376624 26.1122026,30.5663653 26.1122026,29.5511612 Z M23.00929,34.1503792 C23.00929,33.1422039 23.8356101,32.3249164 24.8399236,32.3249164 L35.4043171,32.3249164 C36.4153481,32.3249164 37.2349507,33.1351751 37.2349507,34.1503792 C37.2349507,35.1585545 36.4086305,35.975842 35.4043171,35.975842 L24.8399236,35.975842 C23.8288926,35.975842 23.00929,35.1655833 23.00929,34.1503792 Z M17.8059444,38.7495972 C17.8059444,37.7414219 18.6322645,36.9241344 19.6365779,36.9241344 L30.2009714,36.9241344 C31.2120024,36.9241344 32.031605,37.7343931 32.031605,38.7495972 C32.031605,39.7577725 31.2052849,40.57506 30.2009714,40.57506 L19.6365779,40.57506 C18.6255469,40.57506 17.8059444,39.7648013 17.8059444,38.7495972 Z M10.6453769,43.3488152 C10.6453769,42.34064 11.471697,41.5233524 12.4760105,41.5233524 L23.040404,41.5233524 C24.051435,41.5233524 24.8710376,42.3336112 24.8710376,43.3488152 C24.8710376,44.3569905 24.0447174,45.1742781 23.040404,45.1742781 L12.4760105,45.1742781 C11.4649795,45.1742781 10.6453769,44.3640193 10.6453769,43.3488152 Z" id="Combined-Shape"></path>
                    </g>
                </g>
                <path d="M71.9211599,37.3583294 C72.0142895,41.5073005 75.0875662,45.2077342 81.9046526,45.2077342 C88.4796022,45.2077342 92.0930305,41.8623926 92.0930305,37.0593045 C92.0930305,32.5739304 89.2618908,30.6302682 85.2200663,29.7892606 L81.364501,28.9482529 C79.1480166,28.4997155 77.90008,27.6026407 77.90008,26.1448941 C77.90008,24.3694335 79.4646572,23.0425103 82.1281637,23.0425103 C84.9220516,23.0425103 86.5238806,24.537635 86.672888,26.3878518 L91.7018862,26.3878518 C91.6646344,22.2949479 88.274717,18.7066486 82.1467896,18.7066486 C76.4658842,18.7066486 72.5171893,21.7529652 72.5171893,26.5560534 C72.5171893,30.6115792 75.0875662,32.8355772 79.0735129,33.7139629 L82.8918264,34.5549706 C85.4808291,35.1343314 86.7660176,35.937961 86.7660176,37.6199763 C86.7660176,39.4888822 85.2014404,40.8158053 82.1654155,40.8158053 C79.1293907,40.8158053 77.2667987,39.2833025 77.0991655,37.3583294 L71.9211599,37.3583294 Z M110.00744,44.7218187 L114.608042,27.7334641 L114.812927,27.7334641 L119.394903,44.7218187 L124.368023,44.7218187 L131.017477,19.2112532 L125.243442,19.2112532 L121.630013,37.0779936 L121.36925,37.0779936 L116.973534,19.2112532 L112.428809,19.2112532 L108.051718,37.0779936 L107.790955,37.0779936 L104.158901,19.2112532 L98.3662401,19.2112532 L105.034319,44.7218187 L110.00744,44.7218187 Z M143.921514,44.7218187 L143.921514,19.2112532 L138.519997,19.2112532 L138.519997,44.7218187 L143.921514,44.7218187 Z M159.358675,44.7218187 L159.358675,34.8539955 L169.435298,34.8539955 L169.435298,30.3873105 L159.358675,30.3873105 L159.358675,23.8087617 L170.403846,23.8087617 L170.403846,19.2112532 L153.957159,19.2112532 L153.957159,44.7218187 L159.358675,44.7218187 Z M189.249551,44.7218187 L189.249551,23.883518 L196.364652,23.883518 L196.364652,19.2112532 L176.732933,19.2112532 L176.732933,23.883518 L183.848034,23.883518 L183.848034,44.7218187 L189.249551,44.7218187 Z M209.454948,44.7218187 L209.454948,34.8539955 L219.53157,34.8539955 L219.53157,30.3873105 L209.454948,30.3873105 L209.454948,23.8087617 L220.500118,23.8087617 L220.500118,19.2112532 L204.053431,19.2112532 L204.053431,44.7218187 L209.454948,44.7218187 Z M245.492377,40.1803773 L234.242321,40.1803773 L234.242321,33.9569207 L244.821844,33.9569207 L244.821844,29.7518825 L234.242321,29.7518825 L234.242321,23.7526945 L245.492377,23.7526945 L245.492377,19.2112532 L228.896683,19.2112532 L228.896683,44.7218187 L245.492377,44.7218187 L245.492377,40.1803773 Z M253.25566,37.3583294 C253.348789,41.5073005 256.422066,45.2077342 263.239153,45.2077342 C269.814102,45.2077342 273.42753,41.8623926 273.42753,37.0593045 C273.42753,32.5739304 270.596391,30.6302682 266.554566,29.7892606 L262.699001,28.9482529 C260.482517,28.4997155 259.23458,27.6026407 259.23458,26.1448941 C259.23458,24.3694335 260.799157,23.0425103 263.462664,23.0425103 C266.256552,23.0425103 267.858381,24.537635 268.007388,26.3878518 L273.036386,26.3878518 C272.999134,22.2949479 269.609217,18.7066486 263.48129,18.7066486 C257.800384,18.7066486 253.851689,21.7529652 253.851689,26.5560534 C253.851689,30.6115792 256.422066,32.8355772 260.408013,33.7139629 L264.226326,34.5549706 C266.815329,35.1343314 268.100518,35.937961 268.100518,37.6199763 C268.100518,39.4888822 266.53594,40.8158053 263.499915,40.8158053 C260.463891,40.8158053 258.601299,39.2833025 258.433665,37.3583294 L253.25566,37.3583294 Z M292.403617,44.7218187 L292.403617,23.883518 L299.518718,23.883518 L299.518718,19.2112532 L279.886999,19.2112532 L279.886999,23.883518 L287.0021,23.883518 L287.0021,44.7218187 L292.403617,44.7218187 Z" id="swiftfest" fill="#383838"></path>
            </g>
        </g>
    </g>
</svg>